<svg xmlns="http://www.w3.org/2000/svg" xmlns:xlink="http://www.w3.org/1999/xlink" width="793" zoomAndPan="magnify" viewBox="0 0 595.5 842.249979" height="1122" preserveAspectRatio="xMidYMid meet" version="1.0"><path fill="#000000" d="M 73.457031 369.617188 C 58.464844 367.472656 46.3125 353.621094 46.691406 339.109375 C 47.019531 326.730469 55.253906 314.910156 52.941406 302.726562 C 51.746094 296.429688 47.851562 290.949219 45.253906 285.050781 C 38.328125 269.335938 41.238281 250.226562 51.953125 236.597656 C 62.667969 222.96875 80.601562 215.0625 98.414062 215.363281 C 112.585938 215.601562 127.820312 216.566406 138.867188 225.066406 C 149.054688 232.910156 153.675781 246.457031 151.417969 258.785156 C 149.164062 271.117188 140.539062 281.988281 129.324219 288.417969 C 124.132812 291.390625 118.441406 293.480469 113.152344 296.289062 C 111.203125 297.324219 109.273438 298.488281 107.867188 300.144531 C 103.519531 305.273438 105.625 312.816406 107.765625 319.101562 C 109.972656 325.589844 112.003906 332.222656 112.289062 339.039062 C 112.570312 345.859375 110.945312 352.960938 106.496094 358.292969 C 102.0625 363.601562 95.300781 366.652344 88.480469 368.539062 C 83.269531 369.980469 78.820312 370.386719 73.457031 369.617188 Z M 73.457031 369.617188 " fill-opacity="1" fill-rule="nonzero"/><path stroke-linecap="round" transform="matrix(0.623143, 0, 0, 0.623143, 349.086701, 296.178079)" fill-opacity="1" fill="#f7faf7" fill-rule="nonzero" stroke-linejoin="round" d="M 328.85087 241.570336 C 328.85087 241.570336 -328.853322 241.570336 -328.853322 241.570336 C -335.391499 241.570336 -340.694756 236.273347 -340.694756 229.728902 C -340.694756 229.728902 -340.694756 -229.730007 -340.694756 -229.730007 C -340.694756 -236.274453 -335.391499 -241.571441 -328.853322 -241.571441 C -328.853322 -241.571441 328.85087 -241.571441 328.85087 -241.571441 C 335.395316 -241.571441 340.692304 -236.274453 340.692304 -229.730007 C 340.692304 -229.730007 340.692304 229.728902 340.692304 229.728902 C 340.692304 236.273347 335.395316 241.570336 328.85087 241.570336 Z M 328.85087 241.570336 " stroke="#000000" stroke-width="2" stroke-opacity="1" stroke-miterlimit="4"/><path stroke-linecap="round" transform="matrix(0.623143, 0, 0, 0.623143, 133.669302, 142.527849)" fill="none" stroke-linejoin="round" d="M 5.000223 60.246949 C 5.000223 60.246949 686.387283 60.246949 686.387283 60.246949 " stroke="#000000" stroke-width="2" stroke-opacity="1" stroke-miterlimit="4"/><path stroke-linecap="round" transform="matrix(0.623143, 0, 0, 0.623143, 490.890365, 163.425566)" fill="none" stroke-linejoin="round" d="M 14.443331 0.000346123 C 14.443331 7.974038 7.97411 14.443259 0.000417941 14.443259 C -7.979542 14.443259 -14.442495 7.974038 -14.442495 0.000346123 C -14.442495 -7.979614 -7.979542 -14.442567 0.000417941 -14.442567 C 7.97411 -14.442567 14.443331 -7.979614 14.443331 0.000346123 Z M 14.443331 0.000346123 " stroke="#000000" stroke-width="2" stroke-opacity="1" stroke-miterlimit="4"/><path stroke-linecap="round" transform="matrix(0.623143, 0, 0, 0.623143, 515.064557, 163.425566)" fill="none" stroke-linejoin="round" d="M 13.5432 13.540577 C 13.5432 13.540577 -13.543531 13.540577 -13.543531 13.540577 C -13.543531 13.540577 -13.543531 -13.539885 -13.543531 -13.539885 C -13.543531 -13.539885 13.5432 -13.539885 13.5432 -13.539885 C 13.5432 -13.539885 13.5432 13.540577 13.5432 13.540577 Z M 13.5432 13.540577 " stroke="#000000" stroke-width="2" stroke-opacity="1" stroke-miterlimit="4"/><path stroke-linecap="round" transform="matrix(0.623143, 0, 0, 0.623143, 539.238748, 163.793223)" fill="none" stroke-linejoin="round" d="M -0.000749736 -13.85407 C -0.000749736 -13.85407 -15.998282 13.853255 -15.998282 13.853255 C -15.998282 13.853255 15.996783 13.853255 15.996783 13.853255 C 15.996783 13.853255 -0.000749736 -13.85407 -0.000749736 -13.85407 Z M -0.000749736 -13.85407 " stroke="#000000" stroke-width="2" stroke-opacity="1" stroke-miterlimit="4"/><path fill="#f7faf7" d="M 186.289062 455.835938 C 184.902344 444.519531 181.191406 433.472656 175.429688 423.503906 C 172.171875 417.863281 168.265625 412.566406 165.351562 406.757812 C 163.082031 402.230469 161.441406 397.441406 159.808594 392.671875 C 157.332031 385.4375 154.855469 378.203125 152.378906 370.972656 C 150.296875 364.886719 148.199219 358.738281 147.617188 352.359375 C 146.996094 345.601562 148.386719 339.550781 149.800781 332.898438 C 162.28125 327.210938 176.476562 321.414062 189.457031 325.964844 C 193.855469 327.503906 197.726562 330.140625 201.539062 332.75 C 207.734375 336.988281 213.925781 341.222656 220.121094 345.460938 C 224.347656 348.351562 228.605469 351.269531 232.117188 354.933594 C 234.875 357.808594 237.121094 361.101562 239.84375 364.007812 C 243.707031 368.128906 248.460938 371.417969 252.304688 375.558594 C 256.894531 380.507812 260.085938 386.636719 261.453125 393.125 C 262.644531 398.777344 262.460938 404.605469 262.152344 410.367188 C 261.382812 424.640625 259.855469 438.878906 257.570312 453.003906 C 255.484375 465.898438 252.691406 477.539062 246.394531 489.113281 C 242.929688 495.484375 238.089844 501.945312 230.84375 503.804688 C 227.789062 504.589844 224.554688 504.472656 221.429688 504.015625 C 209.871094 502.328125 199.15625 495.871094 192.566406 486.621094 C 185.976562 477.375 187.652344 466.957031 186.289062 455.835938 Z M 186.289062 455.835938 " fill-opacity="1" fill-rule="nonzero"/><path stroke-linecap="round" transform="matrix(0.623143, 0, 0, 0.623143, 170.091408, 419.492482)" fill="none" stroke-linejoin="round" d="M 36.067162 107.732127 C 25.49199 92.888021 28.181231 76.169597 25.99348 58.32282 C 23.768118 40.162612 17.812924 22.434939 8.566701 6.437406 C 3.338668 -2.614489 -2.929958 -11.114745 -7.606353 -20.436191 C -11.248424 -27.701528 -13.881247 -35.386863 -16.501532 -43.040855 C -20.475841 -54.65035 -24.450149 -66.259844 -28.418189 -77.86307 C -31.765636 -87.62332 -35.125619 -97.496405 -36.065913 -107.726802 " stroke="#000000" stroke-width="2" stroke-opacity="1" stroke-miterlimit="4"/><path stroke-linecap="round" transform="matrix(0.623143, 0, 0, 0.623143, 226.04964, 407.538095)" fill="none" stroke-linejoin="round" d="M -58.722653 -130.906156 C -51.664181 -128.436317 -45.451973 -124.198726 -39.333794 -120.017553 C -29.391754 -113.216094 -19.455983 -106.420904 -9.513943 -99.619445 C -2.73129 -94.980662 4.101512 -90.297999 9.737006 -84.418028 C 14.162656 -79.798051 17.767116 -74.519869 22.136348 -69.856011 C 28.336018 -63.236343 35.964936 -57.964429 42.133263 -51.319685 C 49.498898 -43.377337 54.620365 -33.548132 56.814384 -23.129676 C 58.726315 -14.058975 58.437958 -4.706186 57.936468 4.540037 C 56.701549 27.445595 54.250516 50.294735 50.58337 72.962085 C 47.235924 93.654818 42.753857 112.335322 32.655101 130.909259 " stroke="#000000" stroke-width="2" stroke-opacity="1" stroke-miterlimit="4"/><path stroke-linecap="round" transform="matrix(0.623143, 0, 0, 0.623143, 141.390033, 435.715378)" fill-opacity="1" fill="#f7faf7" fill-rule="nonzero" stroke-linejoin="round" d="M 140.925921 137.137863 C 137.001761 145.613045 127.880911 150.910033 118.572002 153.448827 C 109.263093 155.98762 99.4715 156.282246 89.918115 157.786716 C 75.136696 160.118644 60.869304 165.415633 48.313247 173.238878 C 42.05089 177.137963 36.195994 181.657642 29.64528 185.092849 C 6.457634 197.247714 -21.807598 194.276385 -48.010453 190.966551 C -73.830922 187.706865 -102.008394 171.31441 -126.418422 180.008993 C -128.060801 180.598244 -129.483779 178.79288 -130.236014 177.275872 C -133.67749 170.342773 -137.175383 163.215345 -137.82732 155.561354 C -138.748808 144.798124 -136.316581 135.752497 -133.890623 125.208669 C -131.452128 114.602154 -137.294487 104.058326 -139.400745 93.389125 C -140.936558 85.609761 -140.47268 77.610995 -140.986707 69.712527 C -142.096254 52.793506 -147.719211 36.169111 -146.7225 19.243822 C -146.095637 8.605965 -142.861026 -1.72473 -141.193572 -12.26229 C -137.112697 -38.001266 -142.422223 -64.122629 -145.368477 -89.999515 C -146.333845 -98.468428 -147.017125 -107.200624 -144.472063 -115.368643 C -140.272084 -128.864994 -128.092145 -138.487334 -116.219368 -146.799531 C -93.332616 -162.840944 -69.210945 -177.265051 -44.123905 -189.921406 C -29.605769 -197.243161 -9.709151 -194.572727 5.97495 -189.946481 C 10.44448 -188.63007 14.826249 -186.956347 19.439958 -186.229186 C 24.956348 -185.364116 30.598111 -185.871874 36.177188 -185.545906 C 44.55834 -185.063222 52.81412 -182.674875 60.06692 -178.631612 C 77.938771 -168.664497 71.112238 -141.910003 76.829225 -122.878456 C 79.794285 -113.024177 84.495754 -103.683925 87.053353 -93.723079 C 89.723788 -83.323429 89.993338 -72.503781 91.892732 -61.953684 C 95.45958 -42.151096 104.661922 -23.702531 109.802195 -4.225912 C 114.917394 15.19429 115.964254 35.498368 122.032284 54.661557 C 125.674355 66.164485 131.090448 77.115773 134.488043 88.687656 C 139.026527 104.152355 147.721111 122.450473 140.925921 137.137863 Z M 140.925921 137.137863 " stroke="#000000" stroke-width="2" stroke-opacity="1" stroke-miterlimit="4"/><path fill="#f7faf7" d="M 90.949219 300.765625 C 90.949219 300.765625 93.667969 328.945312 93.667969 328.945312 C 93.667969 328.945312 137.417969 315.960938 137.417969 315.960938 C 137.417969 315.960938 129.078125 302.324219 129.078125 302.324219 C 129.078125 302.324219 90.949219 300.765625 90.949219 300.765625 Z M 90.949219 300.765625 " fill-opacity="1" fill-rule="nonzero"/><path fill="#f7faf7" d="M 87.535156 328.113281 C 87.535156 328.113281 145.25 372.289062 145.25 372.289062 C 145.25 372.289062 135.792969 306.523438 135.792969 306.523438 C 135.792969 306.523438 87.535156 328.113281 87.535156 328.113281 Z M 87.535156 328.113281 " fill-opacity="1" fill-rule="nonzero"/><path fill="#f7faf7" d="M 130.035156 388.683594 C 132.035156 390.972656 134.121094 393.191406 136.207031 395.410156 C 142.003906 401.574219 147.800781 407.734375 153.597656 413.894531 C 153.796875 414.105469 154.023438 414.332031 154.316406 414.351562 C 154.929688 414.394531 155.171875 413.613281 155.199219 413.027344 C 155.976562 397.644531 156.753906 382.265625 157.53125 366.882812 C 157.933594 358.914062 158.308594 350.730469 155.660156 343.164062 C 155.421875 342.476562 155.082031 341.722656 154.375 341.464844 C 153.910156 341.292969 153.378906 341.382812 152.914062 341.5625 C 150.78125 342.390625 149.835938 344.738281 149.210938 346.859375 C 147.199219 353.691406 146.09375 360.765625 145.9375 367.859375 C 145.914062 368.960938 145.714844 370.335938 144.621094 370.671875 C 144.167969 370.8125 143.675781 370.71875 143.222656 370.589844 C 139.59375 369.578125 136.925781 366.609375 133.484375 365.113281 C 131.65625 364.320312 129.65625 363.964844 127.679688 363.613281 C 125.886719 363.296875 124.09375 362.980469 122.300781 362.664062 C 121.324219 362.492188 120.328125 362.320312 119.347656 362.464844 C 112.46875 363.484375 117.226562 371.019531 119.035156 373.890625 C 122.300781 379.082031 125.980469 384.03125 130.035156 388.683594 Z M 130.035156 388.683594 " fill-opacity="1" fill-rule="nonzero"/><path stroke-linecap="round" transform="matrix(0.623143, 0, 0, 0.623143, 109.473275, 351.318747)" fill-opacity="1" fill="#f7faf7" fill-rule="nonzero" stroke-linejoin="round" d="M 57.939912 33.652494 C 57.601407 33.922045 57.262901 34.191595 56.918127 34.461146 C 44.851022 30.173406 33.222722 21.554046 20.353234 22.030462 C 19.801595 22.049268 19.45682 22.600907 19.218612 23.077322 C 16.429074 28.668936 13.250881 34.273088 10.461343 39.864702 C 2.819888 37.307102 -2.138595 30.330122 -8.858561 26.023576 C -12.801527 23.491052 -17.34628 21.892552 -21.176411 19.215849 C -23.752816 17.410485 -25.940566 15.166317 -28.209808 13.016178 C -33.343813 8.157994 -38.947964 3.757418 -44.934501 -0.104055 C -49.372688 -2.968817 -54.143112 -5.651789 -57.264888 -9.814156 C -57.590856 -10.240422 -57.898019 -10.716838 -57.916825 -11.243403 C -57.941899 -11.914145 -57.490558 -12.503396 -57.064292 -13.042498 C -54.556842 -16.220691 -52.37536 -19.637092 -50.55119 -23.222746 C -48.802243 -26.651684 -47.372997 -30.256144 -45.110023 -33.402994 C -42.853318 -36.549844 -39.574827 -39.270427 -35.63813 -39.865947 C -26.805636 -31.340616 -15.854348 -24.263338 -5.561264 -17.41173 C -0.941287 -14.333835 3.810331 -11.443999 8.367622 -8.284611 C 12.718048 -5.269402 16.892952 -2.015986 20.860992 1.456833 C 24.879181 4.973532 28.703043 8.72217 32.984514 11.950512 C 35.874351 14.125725 38.958514 16.056462 41.842082 18.231675 C 48.079364 22.926875 53.5268 27.346256 57.939912 33.652494 Z M 57.939912 33.652494 " stroke="#000000" stroke-width="2" stroke-opacity="1" stroke-miterlimit="4"/><path stroke-linecap="round" transform="matrix(0.623143, 0, 0, 0.623143, 147.314883, 341.19456)" fill-opacity="1" fill="#f7faf7" fill-rule="nonzero" stroke-linejoin="round" d="M 20.22503 24.530339 C 16.645645 20.14857 13.059991 15.766801 9.480606 11.378763 C 8.527775 10.219067 7.77554 9.059371 6.258533 8.783552 C 3.644516 18.073655 1.030499 27.395101 -0.317256 36.92968 C -0.975461 41.618612 -1.602324 46.533215 -3.689776 50.814686 C -9.96467 24.461384 -9.544672 1.361499 -14.622259 -25.23001 C -15.800761 -31.379532 -14.722557 -45.52782 -15.89479 -51.677342 C -11.694811 -52.623904 -14.904347 -50.81854 -10.591533 -50.762122 C -8.899004 -50.743316 -7.187669 -50.643018 -5.557827 -50.191677 C -3.050376 -49.502129 -0.868895 -48.022733 1.256169 -46.574681 C 7.806883 -42.098882 14.357597 -37.623083 20.90831 -33.147285 C 21.716963 -32.595646 22.55069 -32.018932 23.039643 -31.191473 C 23.6477 -30.15715 23.616357 -28.897156 23.572476 -27.712386 C 22.970688 -12.285299 22.193379 3.13552 21.253085 18.543802 C 21.090101 21.214236 21.159056 22.004083 20.22503 24.530339 Z M 20.22503 24.530339 " stroke="#000000" stroke-width="2" stroke-opacity="1" stroke-miterlimit="4"/><path fill="#000000" d="M 293.882812 401.679688 C 240.574219 415.449219 194.78125 449.984375 151.699219 485.042969 C 141.464844 493.375 130.609375 502.871094 128.042969 515.824219 C 125.609375 528.125 131.457031 540.523438 139.316406 550.007812 C 144.492188 556.253906 150.640625 561.734375 157.722656 565.640625 C 170.183594 572.511719 185.074219 574.207031 199.296875 572.324219 C 213.519531 570.441406 227.175781 565.160156 240.128906 558.753906 C 284.683594 536.707031 323.171875 499.386719 340.941406 452.617188 C 344.898438 442.199219 347.777344 430.363281 343.457031 420.257812 C 334.488281 399.273438 313.414062 396.632812 293.882812 401.679688 Z M 293.882812 401.679688 " fill-opacity="1" fill-rule="nonzero"/><path stroke-linecap="round" transform="matrix(0.623143, 0, 0, 0.623143, 233.274963, 487.943483)" fill="none" stroke-linejoin="round" d="M 97.261546 -138.433391 C 11.713614 -116.336486 -61.773484 -60.915568 -130.910155 -4.654653 C -147.333954 8.716325 -164.754464 23.955354 -168.872951 44.742116 C -172.778305 64.482018 -163.394173 84.378635 -150.781698 99.598858 C -142.475769 109.62239 -132.608953 118.417272 -121.243934 124.685898 C -101.247019 135.71241 -77.351018 138.432993 -54.526953 135.411516 C -31.702887 132.390038 -9.787772 123.921125 10.99899 113.634311 C 82.498933 78.254188 144.263701 18.36374 172.779678 -56.690514 " stroke="#000000" stroke-width="2" stroke-opacity="1" stroke-miterlimit="4"/><path fill="#000000" d="M 402.363281 598.0625 C 400.816406 602.953125 395.34375 605.140625 390.515625 606.429688 C 368.683594 612.257812 345.78125 613.34375 323.765625 609.589844 C 319.957031 608.941406 316.101562 608.121094 312.757812 606.195312 C 305.324219 601.910156 301.757812 593.101562 298.683594 584.902344 C 293.132812 570.101562 287.585938 555.304688 282.035156 540.503906 C 273.917969 518.855469 265.707031 496.78125 264.398438 473.441406 C 263.085938 450.105469 269.746094 424.875 287.039062 409.203125 C 295.640625 401.414062 307.441406 396.269531 318.339844 399.0625 C 324.09375 397.089844 330.941406 398.359375 335.472656 402.304688 C 361.136719 424.648438 372.667969 459.78125 379.164062 494.023438 C 385.65625 528.265625 389.550781 565.925781 402.363281 598.0625 Z M 402.363281 598.0625 " fill-opacity="1" fill-rule="nonzero"/><path stroke-linecap="round" transform="matrix(0.623143, 0, 0, 0.623143, 333.379782, 505.557909)" fill="none" stroke-linejoin="round" d="M -32.077962 -172.08521 C -27.351418 -171.859539 -22.612338 -171.784316 -17.892062 -172.241925 C -10.281951 -172.969086 -2.327065 -170.643426 3.358578 -165.69748 C 44.543448 -129.840942 63.048431 -73.460924 73.473155 -18.510152 C 83.897879 36.440619 90.14143 96.876438 110.702522 148.448421 C 108.220146 156.29674 99.437802 159.80717 91.689781 161.875817 C 56.648164 171.228606 19.901481 172.971284 -15.428493 166.947135 C -21.540403 165.906543 -27.727536 164.590131 -33.093479 161.499699 C -45.022674 154.623017 -50.745929 140.487266 -55.679337 127.329421 C -64.587054 103.577599 -73.488503 79.832045 -82.396219 56.080223 C -95.422423 21.3395 -108.599074 -14.090771 -110.699064 -51.53954 " stroke="#000000" stroke-width="2" stroke-opacity="1" stroke-miterlimit="4"/><path stroke-linecap="round" transform="matrix(0.623143, 0, 0, 0.623143, 394.030242, 622.047586)" fill-opacity="1" fill="#f7faf7" fill-rule="nonzero" stroke-linejoin="round" d="M 99.390675 39.428513 C 98.556948 42.775959 97.353372 45.954152 95.604425 48.850257 C 94.845922 50.097714 93.993389 51.282484 93.021752 52.410837 C 83.154935 63.800929 65.853529 63.625408 51.285243 61.10542 C 23.176726 56.234698 -3.822244 46.204897 -32.07494 42.136559 C -50.022015 39.553886 -68.458042 39.378364 -85.834673 34.319583 C -88.617942 33.517199 -91.451361 32.533025 -93.588962 30.570945 C -93.802096 30.376618 -94.00896 30.169753 -94.209556 29.962889 C -96.403575 27.599617 -97.513122 24.371275 -98.415804 21.218156 C -98.547445 20.773083 -98.666549 20.340548 -98.779384 19.901745 C -101.619072 9.207469 -101.431013 -0.5089 -100.421764 -11.096609 C -100.139676 -14.093012 -99.788633 -17.152101 -99.418784 -20.330294 C -99.782364 -20.994769 -100.139676 -21.659243 -100.503256 -22.323717 C -83.333491 -20.562233 -63.950901 -17.52195 -46.674569 -17.076878 C -48.059935 -26.091161 -47.639937 -35.425145 -45.445918 -44.357936 C -44.743832 -47.210161 -43.828613 -50.099997 -42.023249 -52.431926 C -37.597599 -58.155181 -29.529878 -58.832192 -22.521554 -60.179947 C -15.820394 -61.471284 -9.08789 -63.803212 -2.380461 -62.825307 C 4.878608 -61.772178 11.147233 -56.807426 14.977364 -50.532532 C 18.801225 -44.257638 20.405993 -36.791705 20.857334 -29.375921 C 30.22893 -20.117161 44.132741 -14.65092 57.472376 -12.713914 C 58.926697 -12.488244 60.37475 -12.325259 61.816534 -12.193618 C 74.115577 -11.096609 88.708937 -12.695108 96.475764 -3.122917 C 101.616037 3.227201 101.622306 12.285364 101.384098 20.55995 C 101.202308 26.80977 100.901414 33.373021 99.390675 39.428513 Z M 99.390675 39.428513 " stroke="#000000" stroke-width="2" stroke-opacity="1" stroke-miterlimit="4"/><path stroke-linecap="round" transform="matrix(0.623143, 0, 0, 0.623143, 428.000922, 634.416324)" fill-opacity="1" fill="#f7faf7" fill-rule="nonzero" stroke-linejoin="round" d="M 44.875611 19.579558 C 44.041883 22.927004 42.838307 26.105197 41.089361 29.001302 C 37.835944 29.903984 34.381931 30.28637 31.021948 30.537115 C 4.60596 32.561881 -22.079579 29.37742 -47.110201 21.234475 C -39.518895 0.472787 -24.229717 -17.242349 -5.323543 -28.344085 C -2.728332 -29.873629 0.0486693 -31.296607 2.957312 -32.56287 C 4.411633 -32.337199 5.859685 -32.167946 7.301469 -32.042574 C 19.600512 -30.945564 34.187604 -32.544064 41.954431 -22.971872 C 47.100973 -16.621755 47.107241 -7.563591 46.869034 0.710995 C 46.687243 6.960815 46.386349 13.524065 44.875611 19.579558 Z M 44.875611 19.579558 " stroke="#000000" stroke-width="2" stroke-opacity="1" stroke-miterlimit="4"/><path stroke-linecap="round" transform="matrix(0.623143, 0, 0, 0.623143, 403.401709, 611.622366)" fill="none" stroke-linejoin="round" d="M -11.765191 7.73971 C -6.637455 -0.553681 2.251456 -6.39604 11.767229 -7.737526 " stroke="#000000" stroke-width="2" stroke-opacity="1" stroke-miterlimit="4"/><path stroke-linecap="round" transform="matrix(0.623143, 0, 0, 0.623143, 411.0109, 615.783741)" fill="none" stroke-linejoin="round" d="M -12.385491 7.744024 C -5.82224 0.303166 2.916224 -5.156807 12.388117 -7.745749 " stroke="#000000" stroke-width="2" stroke-opacity="1" stroke-miterlimit="4"/><path stroke-linecap="round" transform="matrix(0.623143, 0, 0, 0.623143, 342.759933, 627.355499)" fill-opacity="1" fill="#f7faf7" fill-rule="nonzero" stroke-linejoin="round" d="M 19.347844 14.981966 C 16.351441 18.523739 11.317734 19.269706 6.772981 19.764927 C 0.548236 20.441939 -5.695315 21.11895 -11.932598 21.444919 C -14.126617 19.081647 -15.236163 15.853305 -16.145114 12.700186 C -16.270487 12.255114 -16.389591 11.822578 -16.502426 11.383775 C -19.342113 0.689499 -19.154054 -9.02687 -18.144806 -19.614579 C -11.243049 -21.445017 -2.598614 -19.689802 3.030611 -16.843846 C 9.399535 -13.621773 14.43951 -7.873443 16.852931 -1.084522 C 18.664564 4.01814 19.009338 9.540799 19.347844 14.981966 Z M 19.347844 14.981966 " stroke="#000000" stroke-width="2" stroke-opacity="1" stroke-miterlimit="4"/><path stroke-linecap="round" transform="matrix(0.623143, 0, 0, 0.623143, 394.220297, 647.955986)" fill-opacity="1" fill="#f7faf7" fill-rule="nonzero" stroke-linejoin="round" d="M 99.085681 -2.148461 C 97.894643 2.628232 95.951369 7.085224 92.710489 10.833862 C 82.849941 22.223955 65.548535 22.048434 50.980249 19.528446 C 22.865463 14.657724 -4.127238 4.634192 -32.379934 0.559585 C -50.327009 -2.023089 -68.763036 -2.19861 -86.139666 -7.257391 C -88.922936 -8.059775 -91.762623 -9.043949 -93.893956 -11.006029 C -96.501704 -13.388107 -97.736624 -16.923612 -98.727066 -20.358818 C -98.852439 -20.803891 -98.971543 -21.236426 -99.084378 -21.67523 C -96.100512 -21.662692 -93.267094 -21.480902 -91.236059 -21.549857 C -72.041527 -22.226869 -52.709086 -21.411947 -34.009776 -17.224506 C -22.763862 -14.698249 -11.831379 -10.993492 -0.692031 -8.040969 C 31.215273 0.40287 64.88406 2.465247 97.819419 -1.991745 C 98.239417 -2.048163 98.659415 -2.104581 99.085681 -2.148461 Z M 99.085681 -2.148461 " stroke="#000000" stroke-width="2" stroke-opacity="1" stroke-miterlimit="4"/><path fill="#000000" d="M 235.867188 425.054688 C 180.226562 439.429688 132.433594 475.472656 87.46875 512.066406 C 76.785156 520.757812 65.457031 530.671875 62.78125 544.191406 C 60.238281 557.027344 66.34375 569.96875 74.546875 579.867188 C 79.949219 586.386719 86.363281 592.105469 93.757812 596.183594 C 106.761719 603.351562 122.304688 605.125 137.148438 603.160156 C 151.992188 601.195312 166.242188 595.683594 179.765625 588.996094 C 226.261719 565.988281 266.433594 527.03125 284.980469 478.21875 C 289.109375 467.34375 292.113281 454.992188 287.605469 444.445312 C 278.246094 422.546875 256.25 419.789062 235.867188 425.054688 Z M 235.867188 425.054688 " fill-opacity="1" fill-rule="nonzero"/><path stroke-linecap="round" transform="matrix(0.623143, 0, 0, 0.623143, 172.608873, 515.090716)" fill="none" stroke-linejoin="round" d="M 101.514928 -144.48695 C 12.224625 -121.418408 -64.472008 -63.5778 -136.630157 -4.853315 C -153.774848 9.094376 -171.953862 25.004148 -176.24787 46.699861 C -180.328746 67.298565 -170.530884 88.066521 -157.36677 103.951218 C -148.697261 114.413554 -138.404178 123.590822 -126.53767 130.135267 C -105.669415 141.638195 -80.726554 144.484151 -56.905777 141.331033 C -33.085 138.177914 -10.217054 129.332883 11.484928 118.600996 C 86.100377 81.678792 150.566923 19.161789 180.330357 -59.170956 " stroke="#000000" stroke-width="2" stroke-opacity="1" stroke-miterlimit="4"/><path fill="#000000" d="M 349.085938 630.023438 C 347.472656 635.125 341.757812 637.410156 336.722656 638.753906 C 313.933594 644.839844 290.03125 645.96875 267.054688 642.054688 C 263.078125 641.375 259.058594 640.523438 255.566406 638.507812 C 247.808594 634.039062 244.085938 624.847656 240.875 616.285156 C 235.085938 600.839844 229.292969 585.394531 223.5 569.945312 C 215.03125 547.351562 206.460938 524.3125 205.09375 499.953125 C 203.722656 475.597656 210.675781 449.265625 228.726562 432.910156 C 237.699219 424.777344 250.019531 419.410156 261.394531 422.324219 C 267.394531 420.269531 274.542969 421.589844 279.273438 425.710938 C 306.058594 449.027344 318.097656 485.695312 324.875 521.433594 C 331.652344 557.175781 335.714844 596.480469 349.085938 630.023438 Z M 349.085938 630.023438 " fill-opacity="1" fill-rule="nonzero"/><path stroke-linecap="round" transform="matrix(0.623143, 0, 0, 0.623143, 277.090028, 533.475287)" fill="none" stroke-linejoin="round" d="M -33.481024 -179.606613 C -28.547616 -179.368405 -23.60167 -179.293182 -18.668262 -179.769597 C -10.732182 -180.528101 -2.426253 -178.102143 3.503866 -172.936796 C 46.487832 -135.51937 65.807736 -76.675782 76.683801 -19.324126 C 87.559867 38.033797 94.079237 101.108708 115.536742 154.937395 C 112.9478 163.12422 103.776801 166.791366 95.696542 168.947773 C 59.125381 178.714292 20.767661 180.532193 -16.104394 174.244762 C -22.485855 173.154021 -28.936271 171.787461 -34.540422 168.55285 C -46.989912 161.381542 -52.963912 146.631466 -58.116723 132.890639 C -67.413094 108.104494 -76.703197 83.318348 -85.999569 58.525934 C -99.589949 22.268204 -113.343314 -14.704149 -115.537333 -53.78903 " stroke="#000000" stroke-width="2" stroke-opacity="1" stroke-miterlimit="4"/><path stroke-linecap="round" transform="matrix(0.623143, 0, 0, 0.623143, 340.389495, 655.056111)" fill-opacity="1" fill="#f7faf7" fill-rule="nonzero" stroke-linejoin="round" d="M 103.735028 41.151242 C 102.863689 44.642867 101.609964 47.965238 99.785794 50.986716 C 98.995947 52.284321 98.099534 53.525509 97.084017 54.704011 C 86.790933 66.589325 68.731023 66.401266 53.529606 63.774712 C 24.18617 58.690857 -3.991302 48.228521 -33.478916 43.978392 C -52.20957 41.282883 -71.447981 41.094825 -89.583115 35.822911 C -92.491757 34.976646 -95.450549 33.95486 -97.675911 31.90502 C -97.90785 31.704424 -98.114714 31.485022 -98.321579 31.271888 C -100.615896 28.808319 -101.775592 25.435798 -102.715886 22.14477 C -102.853795 21.680891 -102.979168 21.223282 -103.098272 20.771941 C -106.063332 9.607519 -105.862736 -0.528849 -104.809607 -11.580436 C -104.514981 -14.70848 -104.151401 -17.905479 -103.769015 -21.221582 C -104.145132 -21.917399 -104.514981 -22.606948 -104.891099 -23.302766 C -86.975367 -21.45979 -66.746512 -18.287865 -48.717945 -17.823987 C -50.159729 -27.233194 -49.720925 -36.974638 -47.432877 -46.296084 C -46.699448 -49.273681 -45.746617 -52.28889 -43.85976 -54.721117 C -39.239783 -60.695117 -30.821019 -61.403472 -23.505533 -62.807644 C -16.516016 -64.161667 -9.482618 -66.587625 -2.486832 -65.572108 C 5.091937 -64.475098 11.630113 -59.290945 15.629496 -52.740231 C 19.616342 -46.195786 21.296334 -38.403885 21.772749 -30.662132 C 31.551805 -20.995911 46.057405 -15.291462 59.980022 -13.266696 C 61.503298 -13.034757 63.014037 -12.859235 64.518507 -12.727594 C 77.356652 -11.580436 92.583143 -13.24789 100.688476 -3.255701 C 106.05442 3.363968 106.066957 12.823323 105.809943 21.461489 C 105.628153 27.98086 105.308453 34.832468 103.735028 41.151242 Z M 103.735028 41.151242 " stroke="#000000" stroke-width="2" stroke-opacity="1" stroke-miterlimit="4"/><path stroke-linecap="round" transform="matrix(0.623143, 0, 0, 0.623143, 375.844465, 667.964536)" fill-opacity="1" fill="#f7faf7" fill-rule="nonzero" stroke-linejoin="round" d="M 46.838022 20.436214 C 45.966683 23.927838 44.712958 27.25021 42.888788 30.265419 C 39.491193 31.211981 35.880465 31.606905 32.376303 31.870187 C 4.813156 33.982714 -23.044616 30.666611 -49.165978 22.160086 C -41.248704 0.495716 -25.288784 -17.996729 -5.55515 -29.581149 C -2.847104 -31.179649 0.0490009 -32.665313 3.083016 -33.981725 C 4.606292 -33.749785 6.11703 -33.574264 7.621501 -33.442623 C 20.459646 -32.295464 35.686137 -33.962919 43.79147 -23.97073 C 49.157413 -17.351061 49.169951 -7.891705 48.912937 0.746461 C 48.731147 7.265832 48.411447 14.117439 46.838022 20.436214 Z M 46.838022 20.436214 " stroke="#000000" stroke-width="2" stroke-opacity="1" stroke-miterlimit="4"/><path stroke-linecap="round" transform="matrix(0.623143, 0, 0, 0.623143, 350.170337, 644.174793)" fill="none" stroke-linejoin="round" d="M -12.284038 8.075575 C -6.930632 -0.575128 2.346934 -6.680769 12.282705 -8.078673 " stroke="#000000" stroke-width="2" stroke-opacity="1" stroke-miterlimit="4"/><path stroke-linecap="round" transform="matrix(0.623143, 0, 0, 0.623143, 358.111684, 648.51747)" fill="none" stroke-linejoin="round" d="M -12.929611 8.083566 C -6.078003 0.316739 3.042847 -5.381441 12.92847 -8.083219 " stroke="#000000" stroke-width="2" stroke-opacity="1" stroke-miterlimit="4"/><path stroke-linecap="round" transform="matrix(0.623143, 0, 0, 0.623143, 286.878332, 660.59525)" fill-opacity="1" fill="#f7faf7" fill-rule="nonzero" stroke-linejoin="round" d="M 20.192165 15.631545 C 17.064121 19.336302 11.811013 20.107343 7.065663 20.627639 C 0.571367 21.335994 -5.941735 22.03808 -12.448568 22.382854 C -14.742885 19.919285 -15.902581 16.546764 -16.849143 13.255736 C -16.980784 12.791857 -17.106157 12.334248 -17.225261 11.882907 C -20.190321 0.718484 -19.989725 -9.417883 -18.936596 -20.46947 C -11.733945 -22.381401 -2.707124 -20.550962 3.160309 -17.579634 C 9.811321 -14.213382 15.070698 -8.214307 17.590685 -1.13076 C 19.48381 4.191303 19.841122 9.95217 20.192165 15.631545 Z M 20.192165 15.631545 " stroke="#000000" stroke-width="2" stroke-opacity="1" stroke-miterlimit="4"/><path stroke-linecap="round" transform="matrix(0.623143, 0, 0, 0.623143, 340.587631, 682.096183)" fill-opacity="1" fill="#f7faf7" fill-rule="nonzero" stroke-linejoin="round" d="M 103.417067 -2.241803 C 102.16961 2.748023 100.144844 7.399343 96.766055 11.304696 C 86.472972 23.196279 68.413062 23.00822 53.211645 20.381666 C 23.868208 15.297811 -4.309263 4.835475 -33.796878 0.585347 C -52.527531 -2.110162 -71.765943 -2.298221 -89.907345 -7.570135 C -92.809719 -8.4164 -95.76851 -9.438185 -97.993872 -11.488026 C -100.720724 -13.97667 -102.012061 -17.662622 -103.040116 -21.248276 C -103.171757 -21.712154 -103.29713 -22.169764 -103.416233 -22.621105 C -100.300727 -22.608568 -97.348204 -22.420509 -95.22314 -22.489464 C -75.188613 -23.197819 -55.016176 -22.345286 -35.495676 -17.976053 C -23.760809 -15.343231 -12.345641 -11.46922 -0.72361 -8.391325 C 32.581598 0.422363 67.717244 2.572501 102.094387 -2.078819 C 102.53319 -2.135237 102.971994 -2.197923 103.417067 -2.241803 Z M 103.417067 -2.241803 " stroke="#000000" stroke-width="2" stroke-opacity="1" stroke-miterlimit="4"/><path stroke-linecap="round" transform="matrix(0.623143, 0, 0, 0.623143, 319.188943, 406.215146)" fill-opacity="1" fill="#f7faf7" fill-rule="nonzero" stroke-linejoin="round" d="M 75.923276 49.158077 C 75.923276 49.158077 -129.324061 113.091789 -129.324061 113.091789 C -129.324061 113.091789 -50.972511 -73.543999 -50.972511 -73.543999 C -50.972511 -73.543999 129.319429 -113.092758 129.319429 -113.092758 C 129.319429 -113.092758 75.923276 49.158077 75.923276 49.158077 Z M 75.923276 49.158077 " stroke="#000000" stroke-width="2" stroke-opacity="1" stroke-miterlimit="4"/><path stroke-linecap="round" transform="matrix(0.623143, 0, 0, 0.623143, 259.458815, 418.538419)" fill-opacity="1" fill="#f7faf7" fill-rule="nonzero" stroke-linejoin="round" d="M 44.880497 -93.313728 C 44.880497 -93.313728 28.124461 -87.082714 28.124461 -87.082714 C 28.124461 -87.082714 -44.879952 91.855203 -44.879952 91.855203 C -44.879952 91.855203 -33.471054 93.315792 -33.471054 93.315792 C -33.471054 93.315792 44.880497 -93.313728 44.880497 -93.313728 Z M 44.880497 -93.313728 " stroke="#000000" stroke-width="2" stroke-opacity="1" stroke-miterlimit="4"/><path stroke-linecap="round" transform="matrix(0.623143, 0, 0, 0.623143, 330.610558, 404.889126)" fill="none" stroke-linejoin="round" d="M 19.700392 -0.198191 C 19.806959 9.348926 11.068495 17.178439 0.19243 17.291274 C -10.689904 17.397841 -19.591353 9.750118 -19.697919 0.196732 C -19.804486 -9.350385 -11.07229 -17.179898 -0.189957 -17.292733 C 10.686109 -17.3993 19.593826 -9.745308 19.700392 -0.198191 Z M 19.700392 -0.198191 " stroke="#000000" stroke-width="2" stroke-opacity="1" stroke-miterlimit="4"/><path stroke-linecap="round" transform="matrix(0.623143, 0, 0, 0.623143, 329.951876, 407.257042)" fill="none" stroke-linejoin="round" d="M -11.645102 -1.597263 C -8.636162 1.606005 -4.028722 3.36122 0.453345 3.022714 C 4.941681 2.684209 9.198078 0.251982 11.64911 -3.365015 " stroke="#000000" stroke-width="2" stroke-opacity="1" stroke-miterlimit="4"/><path stroke-linecap="round" transform="matrix(0.623143, 0, 0, 0.623143, 515.064557, 358.937941)" fill-opacity="1" fill="#f7faf7" fill-rule="nonzero" stroke-linejoin="round" d="M 107.867208 79.704867 C 107.867208 79.704867 -108.96455 78.194128 -108.96455 78.194128 C -112.731994 78.169054 -115.75974 75.091158 -115.734665 71.329983 C -115.734665 71.329983 -114.731685 -72.929897 -114.731685 -72.929897 C -114.706611 -76.697341 -111.634984 -79.725087 -107.861271 -79.700012 C -107.861271 -79.700012 108.964218 -78.195542 108.964218 -78.195542 C 112.731662 -78.164199 115.759408 -75.092573 115.734333 -71.325129 C 115.734333 -71.325129 114.731353 72.928483 114.731353 72.928483 C 114.706279 76.695927 111.634652 79.729941 107.867208 79.704867 Z M 107.867208 79.704867 " stroke="#000000" stroke-width="2" stroke-opacity="1" stroke-miterlimit="4"/><path stroke-linecap="round" transform="matrix(0.623143, 0, 0, 0.623143, 515.286383, 327.102804)" fill="none" stroke-linejoin="round" d="M -115.238112 -0.804376 C -115.238112 -0.804376 115.234175 0.800392 115.234175 0.800392 " stroke="#000000" stroke-width="2" stroke-opacity="1" stroke-miterlimit="4"/><path stroke-linecap="round" transform="matrix(0.623143, 0, 0, 0.623143, 513.850062, 351.58921)" fill="none" stroke-linejoin="round" d="M -64.583241 -0.450324 C -64.583241 -0.450324 64.581788 0.44609 64.581788 0.44609 " stroke="#000000" stroke-width="2" stroke-opacity="1" stroke-miterlimit="4"/><path stroke-linecap="round" transform="matrix(0.623143, 0, 0, 0.623143, 513.748489, 366.143943)" fill="none" stroke-linejoin="round" d="M -64.583223 -0.450398 C -64.583223 -0.450398 64.581806 0.446016 64.581806 0.446016 " stroke="#000000" stroke-width="2" stroke-opacity="1" stroke-miterlimit="4"/><path stroke-linecap="round" transform="matrix(0.623143, 0, 0, 0.623143, 507.335088, 380.65448)" fill="none" stroke-linejoin="round" d="M -54.454187 -0.379545 C -54.454187 -0.379545 54.450645 0.378959 54.450645 0.378959 " stroke="#000000" stroke-width="2" stroke-opacity="1" stroke-miterlimit="4"/><path stroke-linecap="round" transform="matrix(0.623143, 0, 0, 0.623143, 542.246078, 317.961295)" fill="none" stroke-linejoin="round" d="M 8.337297 0.0558438 C 8.305954 4.663284 4.544778 8.368041 -0.0563928 8.336698 C -4.663833 8.305355 -8.36859 4.54418 -8.337247 -0.0569915 C -8.305904 -4.664431 -4.544729 -8.369189 0.0564424 -8.337846 C 4.663882 -8.306503 8.36864 -4.545327 8.337297 0.0558438 Z M 8.337297 0.0558438 " stroke="#000000" stroke-width="2" stroke-opacity="1" stroke-miterlimit="4"/><path stroke-linecap="round" transform="matrix(0.623143, 0, 0, 0.623143, 557.413339, 318.066612)" fill="none" stroke-linejoin="round" d="M 8.282015 8.39336 C 8.282015 8.39336 -8.392529 8.280525 -8.392529 8.280525 C -8.392529 8.280525 -8.279694 -8.394019 -8.279694 -8.394019 C -8.279694 -8.394019 8.39485 -8.274915 8.39485 -8.274915 C 8.39485 -8.274915 8.282015 8.39336 8.282015 8.39336 Z M 8.282015 8.39336 " stroke="#000000" stroke-width="2" stroke-opacity="1" stroke-miterlimit="4"/><path stroke-linecap="round" transform="matrix(0.623143, 0, 0, 0.623143, 572.545112, 318.192478)" fill="none" stroke-linejoin="round" d="M 0.115665 -8.326455 C 0.115665 -8.326455 -9.57563 8.191374 -9.57563 8.191374 C -9.57563 8.191374 9.575021 8.329283 9.575021 8.329283 C 9.575021 8.329283 0.115665 -8.326455 0.115665 -8.326455 Z M 0.115665 -8.326455 " stroke="#000000" stroke-width="2" stroke-opacity="1" stroke-miterlimit="4"/><path stroke-linecap="round" transform="matrix(0.592644, -0.192562, 0.192562, 0.592644, 229.675063, 248.548764)" fill-opacity="1" fill="#f7faf7" fill-rule="nonzero" stroke-linejoin="round" d="M 57.445265 62.941746 C 57.445265 62.941746 -75.944097 38.445216 -75.944097 38.445216 C -75.944097 38.445216 -57.943212 -61.442334 -57.943212 -61.442334 C -57.943212 -61.442334 75.440563 -37.942894 75.440563 -37.942894 C 75.440563 -37.942894 57.445265 62.941746 57.445265 62.941746 Z M 57.445265 62.941746 " stroke="#000000" stroke-width="2" stroke-opacity="1" stroke-miterlimit="4"/><path stroke-linecap="round" transform="matrix(0.592644, -0.192562, 0.192562, 0.592644, 183.464917, 222.795458)" fill-opacity="1" fill="#f7faf7" fill-rule="nonzero" stroke-linejoin="round" d="M 7.824541 11.093554 C 7.824541 11.093554 -11.092243 7.827482 -11.092243 7.827482 C -11.092243 7.827482 -7.826171 -11.089303 -7.826171 -11.089303 C -7.826171 -11.089303 11.092551 -7.829192 11.092551 -7.829192 C 11.092551 -7.829192 7.824541 11.093554 7.824541 11.093554 Z M 7.824541 11.093554 " stroke="#000000" stroke-width="2" stroke-opacity="1" stroke-miterlimit="4"/><path stroke-linecap="round" transform="matrix(0.592644, -0.192562, 0.192562, 0.592644, 266.048931, 210.496187)" fill-opacity="1" fill="#f7faf7" fill-rule="nonzero" stroke-linejoin="round" d="M 7.828227 11.092203 C 7.828227 11.092203 -11.094519 7.824194 -11.094519 7.824194 C -11.094519 7.824194 -7.828447 -11.09259 -7.828447 -11.09259 C -7.828447 -11.09259 11.094299 -7.824581 11.094299 -7.824581 C 11.094299 -7.824581 7.828227 11.092203 7.828227 11.092203 Z M 7.828227 11.092203 " stroke="#000000" stroke-width="2" stroke-opacity="1" stroke-miterlimit="4"/><path stroke-linecap="round" transform="matrix(0.592644, -0.192562, 0.192562, 0.592644, 192.377821, 285.245665)" fill-opacity="1" fill="#f7faf7" fill-rule="nonzero" stroke-linejoin="round" d="M 7.8268 11.092621 C 7.8268 11.092621 -11.089984 7.826549 -11.089984 7.826549 C -11.089984 7.826549 -7.829874 -11.092172 -7.829874 -11.092172 C -7.829874 -11.092172 11.094809 -7.830125 11.094809 -7.830125 C 11.094809 -7.830125 7.8268 11.092621 7.8268 11.092621 Z M 7.8268 11.092621 " stroke="#000000" stroke-width="2" stroke-opacity="1" stroke-miterlimit="4"/><path stroke-linecap="round" transform="matrix(0.592644, -0.192562, 0.192562, 0.592644, 275.773075, 274.382449)" fill-opacity="1" fill="#f7faf7" fill-rule="nonzero" stroke-linejoin="round" d="M 7.825729 11.092164 C 7.825729 11.092164 -11.091055 7.826091 -11.091055 7.826091 C -11.091055 7.826091 -7.830945 -11.09263 -7.830945 -11.09263 C -7.830945 -11.09263 11.091801 -7.824621 11.091801 -7.824621 C 11.091801 -7.824621 7.825729 11.092164 7.825729 11.092164 Z M 7.825729 11.092164 " stroke="#000000" stroke-width="2" stroke-opacity="1" stroke-miterlimit="4"/><path stroke-linecap="round" transform="matrix(0.592644, -0.192562, 0.192562, 0.592644, 228.049891, 237.285651)" fill="none" stroke-linejoin="round" d="M -32.1533 -0.113039 C -32.1533 -0.113039 -30.33039 -10.673089 -30.33039 -10.673089 C -30.33039 -10.673089 32.156508 0.112412 32.156508 0.112412 C 32.156508 0.112412 30.333598 10.672461 30.333598 10.672461 " stroke="#000000" stroke-width="4" stroke-opacity="1" stroke-miterlimit="4"/><path stroke-linecap="round" transform="matrix(0.592644, -0.192562, 0.192562, 0.592644, 229.983198, 250.686851)" fill="none" stroke-linejoin="round" d="M 4.608061 -26.692314 C 4.608061 -26.692314 -4.605112 26.695462 -4.605112 26.695462 " stroke="#000000" stroke-width="4" stroke-opacity="1" stroke-miterlimit="4"/><path stroke-linecap="round" transform="matrix(0.592644, -0.192562, 0.192562, 0.592644, 232.39274, 267.392843)" fill="none" stroke-linejoin="round" d="M -8.62282 -1.487223 C -8.62282 -1.487223 8.622588 1.486252 8.622588 1.486252 " stroke="#000000" stroke-width="4" stroke-opacity="1" stroke-miterlimit="4"/><path stroke-linecap="round" transform="matrix(0.623143, 0, 0, 0.623143, 327.254864, 229.298028)" fill="none" stroke-linejoin="round" d="M 3.678147 1.001129 C 3.678147 1.001129 250.304682 1.001129 250.304682 1.001129 " stroke="#000000" stroke-width="2" stroke-opacity="1" stroke-miterlimit="4"/><path stroke-linecap="round" transform="matrix(0.623143, 0, 0, 0.623143, 327.254864, 229.298028)" fill="none" stroke-linejoin="round" d="M 14.641973 23.869075 C 14.641973 23.869075 239.340856 23.869075 239.340856 23.869075 " stroke="#000000" stroke-width="2" stroke-opacity="1" stroke-miterlimit="4"/><path stroke-linecap="round" transform="matrix(0.623143, 0, 0, 0.623143, 327.254864, 229.298028)" fill="none" stroke-linejoin="round" d="M 1.001444 46.737021 C 1.001444 46.737021 252.981385 46.737021 252.981385 46.737021 " stroke="#000000" stroke-width="2" stroke-opacity="1" stroke-miterlimit="4"/><path stroke-linecap="round" transform="matrix(0.623143, 0, 0, 0.623143, 327.254864, 229.298028)" fill="none" stroke-linejoin="round" d="M 45.903609 69.604967 C 45.903609 69.604967 208.07922 69.604967 208.07922 69.604967 " stroke="#000000" stroke-width="2" stroke-opacity="1" stroke-miterlimit="4"/><path stroke-linecap="round" transform="matrix(0.623143, 0, 0, 0.623143, 327.254864, 229.298028)" fill="none" stroke-linejoin="round" d="M 14.641973 92.466645 C 14.641973 92.466645 239.340856 92.466645 239.340856 92.466645 " stroke="#000000" stroke-width="2" stroke-opacity="1" stroke-miterlimit="4"/><path stroke-linecap="round" transform="matrix(0.623143, 0, 0, 0.623143, 498.313818, 509.762828)" fill-opacity="1" fill="#f7faf7" fill-rule="nonzero" stroke-linejoin="round" d="M -0.00211458 -35.952348 C -0.00211458 -35.952348 -41.512953 35.955056 -41.512953 35.955056 C -41.512953 35.955056 41.514992 35.955056 41.514992 35.955056 C 41.514992 35.955056 -0.00211458 -35.952348 -0.00211458 -35.952348 Z M -0.00211458 -35.952348 " stroke="#000000" stroke-width="2" stroke-opacity="1" stroke-miterlimit="4"/><path stroke-linecap="round" transform="matrix(0.623143, 0, 0, 0.623143, 519.5618, 531.010163)" fill="none" stroke-linejoin="round" d="M 34.096178 34.097551 C 34.096178 34.097551 -34.09393 34.097551 -34.09393 34.097551 C -34.09393 34.097551 -34.09393 -34.098826 -34.09393 -34.098826 C -34.09393 -34.098826 34.096178 -34.098826 34.096178 -34.098826 C 34.096178 -34.098826 34.096178 34.097551 34.096178 34.097551 Z M 34.096178 34.097551 " stroke="#000000" stroke-width="2" stroke-opacity="1" stroke-miterlimit="4"/><path fill="#f7faf7" d="M 108.261719 467.40625 C 103.167969 457.113281 100.1875 445.863281 99.546875 434.484375 C 99.1875 428.050781 99.5625 421.578125 98.8125 415.171875 C 98.226562 410.179688 96.960938 405.289062 95.703125 400.414062 C 93.792969 393.027344 91.882812 385.636719 89.972656 378.25 C 88.367188 372.035156 86.738281 365.757812 83.699219 360.054688 C 80.476562 354.007812 75.945312 349.585938 71.0625 344.667969 C 57.332031 346.1875 42.085938 348.488281 33.605469 358.9375 C 30.730469 362.480469 28.910156 366.683594 27.125 370.832031 C 24.222656 377.570312 21.320312 384.308594 18.417969 391.042969 C 16.4375 395.640625 14.445312 400.28125 13.5 405.171875 C 12.757812 409.007812 12.675781 412.941406 11.980469 416.789062 C 10.992188 422.246094 8.78125 427.449219 7.820312 432.910156 C 6.671875 439.4375 7.363281 446.253906 9.800781 452.445312 C 11.925781 457.84375 15.308594 462.691406 18.761719 467.417969 C 27.324219 479.125 36.511719 490.414062 46.273438 501.226562 C 55.1875 511.097656 64.003906 519.542969 75.757812 526.15625 C 82.226562 529.796875 89.90625 532.8125 97.082031 530.707031 C 100.105469 529.820312 102.78125 528.078125 105.175781 526.101562 C 114.039062 518.796875 119.542969 507.882812 120.003906 496.691406 C 120.464844 485.503906 113.269531 477.527344 108.261719 467.40625 Z M 108.261719 467.40625 " fill-opacity="1" fill-rule="nonzero"/><path stroke-linecap="round" transform="matrix(0.623143, 0, 0, 0.623143, 102.080304, 428.374124)" fill="none" stroke-linejoin="round" d="M 28.756957 109.633398 C 29.496655 91.680054 17.956116 78.879521 9.919738 62.637512 C 1.739181 46.119684 -3.037511 28.066042 -4.065566 9.811805 C -4.648548 -0.51889 -4.04676 -10.906003 -5.250336 -21.186549 C -6.19063 -29.197852 -8.215396 -37.046171 -10.233893 -44.869416 C -13.299251 -56.723387 -16.364609 -68.583627 -19.429967 -80.437598 C -22.006372 -90.410981 -24.626658 -100.484662 -29.49738 -109.636855 " stroke="#000000" stroke-width="2" stroke-opacity="1" stroke-miterlimit="4"/><path stroke-linecap="round" transform="matrix(0.623143, 0, 0, 0.623143, 41.214194, 442.547542)" fill="none" stroke-linejoin="round" d="M -12.21024 -134.174732 C -16.823948 -128.489089 -19.745128 -121.744047 -22.60989 -115.086767 C -27.267478 -104.273388 -31.925067 -93.466278 -36.582656 -82.652899 C -39.760849 -75.274726 -42.957848 -67.827599 -44.474855 -59.97928 C -45.665894 -53.817221 -45.797535 -47.510984 -46.913351 -41.336388 C -48.499313 -32.579118 -52.047355 -24.229308 -53.589437 -15.46577 C -55.432413 -4.990897 -54.322866 5.947855 -50.411244 15.883626 C -47.001112 24.546867 -41.572482 32.326231 -36.031017 39.911268 C -22.29019 58.698339 -7.546382 76.814667 8.118913 94.166222 C 22.423916 110.007039 36.572204 123.559808 55.434499 134.172591 " stroke="#000000" stroke-width="2" stroke-opacity="1" stroke-miterlimit="4"/><path stroke-linecap="round" transform="matrix(0.623143, 0, 0, 0.623143, 250.549103, 464.877824)" fill-opacity="1" fill="#f7faf7" fill-rule="nonzero" stroke-linejoin="round" d="M -16.283195 -39.32762 C -3.934003 -42.819245 9.179962 -42.5685 22.055719 -42.286412 C 36.410871 -41.97298 50.772292 -41.65328 65.133713 -41.339849 C 68.606532 -41.258357 72.505617 -41.007612 74.806203 -38.512699 C 78.003202 -35.058686 75.896943 -29.172447 71.866217 -26.639922 C 67.84176 -24.101129 62.720292 -23.969488 57.899719 -23.925607 C 45.820078 -23.806503 33.740437 -23.681131 21.660795 -23.562027 C 30.731496 -19.236675 39.802197 -14.911324 48.872899 -10.585972 C 52.15139 -9.018816 55.611671 -7.301212 57.473453 -4.273466 C 59.736427 -0.60632 58.840013 4.565296 55.454955 7.336028 C 52.076166 10.106761 46.603656 10.150641 43.168449 7.442595 C 45.44396 14.225248 41.187564 22.048493 34.536552 25.232954 C 27.88554 28.423685 19.610955 27.439511 13.173076 23.8852 C 6.760272 20.343426 1.406866 14.319277 -5.9525 13.535699 C -12.847989 12.80227 -19.154226 16.945831 -24.733303 20.895065 C -33.904302 27.370556 -43.069032 33.852314 -52.240032 40.334073 C -53.951366 41.543918 -55.976132 42.822718 -58.044779 42.346302 C -59.937904 41.907498 -61.128943 40.16482 -62.062968 38.528709 C -69.842332 24.900717 -78.004083 0.108303 -66.187723 -13.500883 C -56.189266 -25.016348 -30.67596 -35.253014 -16.283195 -39.32762 Z M -16.283195 -39.32762 " stroke="#000000" stroke-width="2" stroke-opacity="1" stroke-miterlimit="4"/><path stroke-linecap="round" transform="matrix(0.623143, 0, 0, 0.623143, 246.660066, 456.725876)" fill="none" stroke-linejoin="round" d="M 1.592376 -9.903326 C 2.921324 -7.33319 2.513864 -4.029624 0.589396 -1.829337 C 0.150592 -1.327847 -0.382241 -0.820088 -0.413584 -0.17442 C -0.444928 0.452443 -0.00612373 0.991545 0.326113 1.530647 C 2.144015 4.464363 0.457755 8.81479 -2.921035 9.90553 " stroke="#000000" stroke-width="2" stroke-opacity="1" stroke-miterlimit="4"/><path stroke-linecap="round" transform="matrix(0.623143, 0, 0, 0.623143, 269.05522, 465.210624)" fill="none" stroke-linejoin="round" d="M -12.983178 -5.171113 C -4.326206 -1.723369 4.324497 1.724375 12.981469 5.172119 " stroke="#000000" stroke-width="2" stroke-opacity="1" stroke-miterlimit="4"/><path stroke-linecap="round" transform="matrix(0.623143, 0, 0, 0.623143, 265.161208, 473.191796)" fill="none" stroke-linejoin="round" d="M -14.58251 -5.623583 C -14.58251 -5.623583 14.585405 5.622331 14.585405 5.622331 " stroke="#000000" stroke-width="2" stroke-opacity="1" stroke-miterlimit="4"/><path fill="#f7faf7" d="M 241.015625 488.875 C 233.242188 494.722656 224.191406 498.761719 215.230469 502.746094 C 210.632812 504.792969 206.03125 506.839844 201.433594 508.886719 C 197.929688 510.445312 194.417969 512.007812 190.746094 513.152344 C 183.464844 515.417969 175.75 515.980469 168.183594 517.101562 C 156.191406 518.878906 144.480469 522.066406 132.84375 525.355469 C 122.769531 528.203125 112.605469 531.152344 102.121094 531.757812 C 91.632812 532.359375 80.617188 530.394531 72.28125 524.277344 C 65.003906 518.9375 60.246094 510.570312 59.5 501.824219 C 58.753906 493.078125 62.039062 484.085938 68.316406 477.6875 C 75.894531 469.960938 86.933594 466.417969 97.605469 463.613281 C 131.179688 454.800781 166.046875 450.515625 200.855469 450.929688 C 205.710938 450.988281 209.101562 453.882812 213.039062 456.605469 C 216.265625 458.835938 219.492188 461.066406 222.71875 463.296875 C 227.433594 466.554688 232.203125 469.863281 235.914062 474.148438 C 239.625 478.433594 241.40625 483.320312 241.015625 488.875 Z M 241.015625 488.875 " fill-opacity="1" fill-rule="nonzero"/><path stroke-linecap="round" transform="matrix(0.623143, 0, 0, 0.623143, 154.861148, 491.135832)" fill="none" stroke-linejoin="round" d="M -138.884244 -21.581455 C -126.72311 -33.974528 -109.007974 -39.66644 -91.882089 -44.167313 C -38.003253 -58.309333 17.950499 -65.186015 73.810221 -64.52154 C 81.602123 -64.427511 87.04329 -59.78246 93.362064 -55.413227 C 98.539949 -51.833842 103.717834 -48.254457 108.895718 -44.675072 C 116.461949 -39.447038 124.115941 -34.137512 130.071135 -27.26083 C 136.02633 -20.377879 138.884823 -12.542097 138.25796 -3.628112 C 125.783396 5.756021 111.25899 12.237779 96.878763 18.638046 C 89.500591 21.916537 82.11615 25.201297 74.737978 28.486057 C 69.115021 30.987238 63.479526 33.494689 57.587018 35.331396 C 45.9023 38.967199 33.521765 39.869881 21.379437 41.668976 C 2.134757 44.521201 -16.658583 49.6364 -35.332818 54.914582 C -51.499604 59.48441 -67.810567 64.217223 -84.635558 65.188859 " stroke="#000000" stroke-width="2" stroke-opacity="1" stroke-miterlimit="4"/><path fill="#f7faf7" d="M 147.238281 266.125 C 149.761719 288.746094 134.417969 308.863281 112.96875 311.054688 C 91.515625 313.25 72.082031 296.691406 69.558594 274.070312 C 67.03125 251.453125 82.375 231.332031 103.828125 229.140625 C 125.277344 226.945312 144.710938 243.503906 147.238281 266.125 Z M 147.238281 266.125 " fill-opacity="1" fill-rule="nonzero"/><path fill="#f7faf7" d="M 133.804688 266.4375 C 137.734375 261.96875 141.679688 260.578125 145.65625 263.671875 C 143.566406 267.375 139.699219 268.425781 133.804688 266.4375 Z M 133.804688 266.4375 " fill-opacity="1" fill-rule="nonzero"/><path fill="#f7faf7" d="M 102.503906 275.476562 C 106.800781 269.644531 112.007812 266.988281 118.648438 269.347656 C 116.480469 275.269531 111 277.195312 102.503906 275.476562 Z M 102.503906 275.476562 " fill-opacity="1" fill-rule="nonzero"/><path fill="#000000" d="M 94.433594 268.347656 C 94.433594 268.347656 97.5 264.835938 97.5 264.835938 C 98.292969 263.929688 99.273438 263.191406 100.378906 262.664062 C 100.378906 262.664062 114.429688 255.980469 114.429688 255.980469 C 114.429688 255.980469 110.785156 250.894531 110.785156 250.894531 C 110.785156 250.894531 99.613281 257.675781 99.613281 257.675781 C 97.566406 258.921875 96.121094 260.898438 95.605469 263.167969 C 95.605469 263.167969 94.433594 268.347656 94.433594 268.347656 Z M 94.433594 268.347656 " fill-opacity="1" fill-rule="nonzero"/><path fill="#000000" d="M 131.199219 252.488281 C 131.199219 252.488281 131.199219 258.375 131.199219 258.375 C 131.199219 258.375 139.992188 257.847656 139.992188 257.847656 C 141.894531 257.734375 143.808594 257.910156 145.65625 258.375 C 145.65625 258.375 144.652344 255.429688 144.652344 255.429688 C 144.652344 255.429688 143.558594 254.550781 143.558594 254.550781 C 141.902344 253.21875 139.804688 252.488281 137.640625 252.488281 C 137.640625 252.488281 131.199219 252.488281 131.199219 252.488281 Z M 131.199219 252.488281 " fill-opacity="1" fill-rule="nonzero"/><path stroke-linecap="round" transform="matrix(0.623143, 0, 0, 0.623143, 129.742856, 268.147854)" fill="none" stroke-linejoin="round" d="M -5.072392 -12.429749 C -5.072392 -12.429749 5.070244 12.43162 5.070244 12.43162 " stroke="#000000" stroke-width="2" stroke-opacity="1" stroke-miterlimit="4"/><path stroke-linecap="round" transform="matrix(0.623143, 0, 0, 0.623143, 129.092313, 279.380644)" fill="none" stroke-linejoin="round" d="M -6.372887 0.436015 C -5.72095 1.576905 -4.39827 2.347946 -3.037978 2.373021 C -1.677686 2.404364 -0.323663 1.702278 0.384692 0.586462 C 0.52887 0.354523 0.654242 0.0975096 0.854838 -0.0968178 C 1.39394 -0.610845 2.265279 -0.554427 3.011246 -0.416518 C 3.757212 -0.272339 4.565865 -0.0842806 5.236608 -0.422786 C 5.963768 -0.786367 6.245856 -1.632631 6.371229 -2.403672 " stroke="#000000" stroke-width="2" stroke-opacity="1" stroke-miterlimit="4"/><path fill="#000000" d="M 118.648438 269.347656 C 117.578125 269.03125 116.542969 268.824219 115.550781 268.730469 C 112.800781 268.457031 110.347656 269.003906 108.148438 270.230469 C 106.054688 271.398438 104.1875 273.1875 102.503906 275.476562 C 102.503906 275.476562 97.035156 274.929688 97.035156 274.929688 C 97.035156 274.929688 102.070312 273.773438 102.070312 273.773438 C 107.601562 267.003906 111.652344 265.589844 118.648438 269.347656 Z M 118.648438 269.347656 " fill-opacity="1" fill-rule="nonzero"/><path fill="#000000" d="M 115.824219 270.097656 C 115.824219 272.132812 114.105469 273.773438 111.980469 273.773438 C 109.910156 273.773438 108.222656 272.203125 108.148438 270.230469 C 110.347656 269.003906 112.800781 268.457031 115.550781 268.730469 C 115.726562 269.152344 115.824219 269.613281 115.824219 270.097656 Z M 115.824219 270.097656 " fill-opacity="1" fill-rule="nonzero"/><path fill="#000000" d="M 145.65625 263.671875 C 144.714844 262.9375 143.78125 262.460938 142.847656 262.21875 C 141.144531 261.765625 139.457031 262.101562 137.792969 263.046875 C 136.449219 263.808594 135.121094 264.96875 133.804688 266.4375 C 133.335938 263.570312 140.535156 258.375 145.210938 262.3125 C 145.210938 262.3125 147.292969 260.867188 147.292969 260.867188 C 147.292969 260.867188 145.65625 263.671875 145.65625 263.671875 Z M 145.65625 263.671875 " fill-opacity="1" fill-rule="nonzero"/><path fill="#000000" d="M 143.359375 263.4375 C 143.574219 264.9375 142.480469 266.308594 140.921875 266.515625 C 139.363281 266.722656 137.921875 265.679688 137.707031 264.179688 C 137.652344 263.789062 137.683594 263.402344 137.792969 263.046875 C 139.460938 262.101562 141.144531 261.765625 142.847656 262.21875 C 143.117188 262.566406 143.292969 262.980469 143.359375 263.4375 Z M 143.359375 263.4375 " fill-opacity="1" fill-rule="nonzero"/><path stroke-linecap="round" transform="matrix(0.623143, 0, 0, 0.623143, 109.658968, 289.687421)" fill="none" stroke-linejoin="round" d="M 60.306084 -37.812223 C 64.355616 -1.510612 39.732455 30.772809 5.311432 34.289508 C -29.115859 37.812476 -60.302272 11.239772 -64.351804 -25.061839 " stroke="#000000" stroke-width="2" stroke-opacity="1" stroke-miterlimit="4"/><path fill="#000000" d="M 141.164062 245.105469 C 140.492188 245.128906 139.820312 245.105469 139.152344 245.046875 C 135 244.679688 130.835938 242.757812 128.660156 239.355469 C 128.050781 238.402344 127.601562 237.351562 126.859375 236.492188 C 124.265625 233.496094 121.589844 235.914062 120.234375 238.527344 C 118.558594 241.746094 117.355469 245.238281 115.273438 248.207031 C 113.1875 251.179688 109.925781 253.652344 106.316406 253.507812 C 101.339844 253.3125 97.808594 248.464844 93.074219 246.910156 C 91.761719 246.476562 90.246094 246.332031 89.054688 247.035156 C 87.429688 247.992188 86.976562 250.132812 86.917969 252.027344 C 86.679688 259.675781 90.253906 266.867188 91.855469 274.351562 C 92.238281 276.148438 92.507812 278.027344 92.09375 279.820312 C 91.675781 281.613281 90.4375 283.3125 88.675781 283.796875 C 87.195312 284.203125 85.191406 283.953125 84.550781 285.351562 C 84.28125 285.941406 84.390625 286.621094 84.492188 287.257812 C 84.824219 289.265625 85.054688 291.398438 84.285156 293.28125 C 83.519531 295.164062 81.425781 296.648438 79.496094 296.039062 C 71.527344 293.527344 67.375 284.082031 65.960938 275.796875 C 63.78125 263.046875 66.6875 249.738281 72.617188 238.261719 C 78.546875 226.785156 87.359375 217.015625 97.15625 208.640625 C 103.734375 203.019531 111.003906 197.863281 119.351562 195.671875 C 127.703125 193.476562 137.347656 194.710938 143.675781 200.617188 C 146.726562 203.46875 149.179688 207.386719 151.554688 210.757812 C 153.941406 214.152344 155.480469 218.089844 155.960938 222.15625 C 156.644531 227.96875 155.15625 233.992188 151.824219 238.890625 C 150.519531 240.808594 148.898438 242.589844 146.8125 243.707031 C 145.097656 244.625 143.140625 245.046875 141.164062 245.105469 Z M 141.164062 245.105469 " fill-opacity="1" fill-rule="nonzero"/><path stroke-linecap="round" transform="matrix(0.623143, 0, 0, 0.623143, 130.007084, 216.334777)" fill="none" stroke-linejoin="round" d="M -28.671525 -5.288857 C -24.502889 -10.027938 -17.713967 -11.827034 -11.276089 -12.403747 C -2.324492 -13.206131 7.047104 -12.033898 14.795125 -7.664666 C 22.536877 -3.295434 28.391774 4.596765 28.673862 13.203588 " stroke="#f7faf7" stroke-width="2" stroke-opacity="1" stroke-miterlimit="4"/><path stroke-linecap="round" transform="matrix(0.623143, 0, 0, 0.623143, 129.91175, 223.664188)" fill="none" stroke-linejoin="round" d="M -13.141597 -7.278076 C -6.371481 -7.108823 0.837438 -6.281364 6.040397 -2.131534 C 9.162173 0.363379 11.249625 3.829929 13.136481 7.277673 " stroke="#f7faf7" stroke-width="2" stroke-opacity="1" stroke-miterlimit="4"/><path stroke-linecap="round" transform="matrix(0.623143, 0, 0, 0.623143, 110.215436, 244.759426)" fill="none" stroke-linejoin="round" d="M -49.297422 82.291927 C -62.085418 78.261201 -68.748967 63.103664 -71.018209 49.80791 C -74.509834 29.347116 -69.845976 7.989909 -60.330203 -10.427313 C -50.820698 -28.844535 -36.678679 -44.522368 -20.956966 -57.956032 C -10.4006 -66.982853 1.265312 -75.257439 14.667633 -78.774138 C 28.063686 -82.297105 43.540923 -80.31622 53.696096 -70.838058 C 58.591893 -66.261961 62.534858 -59.97453 66.339914 -54.564706 C 70.170044 -49.11727 72.639882 -42.798496 73.410923 -36.272856 C 74.514201 -26.945142 72.119587 -17.278921 66.772449 -9.418065 C 64.678728 -6.340169 62.083517 -3.481676 58.736071 -1.688849 " stroke="#f7faf7" stroke-width="2" stroke-opacity="1" stroke-miterlimit="4"/><path fill="#f7faf7" d="M 85.933594 296.582031 C 85.496094 298.207031 84.867188 299.84375 83.644531 301.046875 C 82.425781 302.25 80.492188 302.917969 78.867188 302.292969 C 77.050781 301.597656 76.210938 299.652344 75.0625 298.136719 C 73.960938 296.683594 72.4375 295.53125 70.710938 294.835938 C 69.152344 294.207031 67.429688 293.945312 66 293.082031 C 62.757812 291.117188 62.207031 286.375 64.339844 283.316406 C 65.980469 280.964844 68.945312 279.515625 71.898438 279.621094 C 74.851562 279.726562 77.695312 281.382812 79.148438 283.847656 C 81.726562 288.214844 87.242188 291.722656 85.933594 296.582031 Z M 85.933594 296.582031 " fill-opacity="1" fill-rule="nonzero"/><path stroke-linecap="round" transform="matrix(0.623143, 0, 0, 0.623143, 75.203524, 291.058964)" fill="none" stroke-linejoin="round" d="M -3.065999 -12.324712 C -5.379121 -12.475159 -7.80508 -12.262026 -9.804771 -11.133673 C -11.798194 -10.00532 -13.252515 -7.792495 -12.882666 -5.604745 C -12.613115 -4.025052 -11.472226 -2.702372 -10.199695 -1.668048 C -6.914935 0.977312 -2.451673 2.26238 0.206224 5.490722 C 1.221741 6.719373 1.91129 8.167425 2.851584 9.446225 C 3.798146 10.731293 5.114558 11.890989 6.731863 12.116659 C 9.333343 12.473971 11.527362 10.399056 13.251234 8.505931 " stroke="#000000" stroke-width="2" stroke-opacity="1" stroke-miterlimit="4"/><path stroke-linecap="round" transform="matrix(0.623143, 0, 0, 0.623143, 78.238849, 290.830886)" fill="none" stroke-linejoin="round" d="M -0.608968 -5.953357 C -2.389258 -6.730666 -4.457904 -5.959625 -6.250731 -5.194853 C -6.720878 -4.987988 -7.222368 -4.762318 -7.510725 -4.354857 C -8.194005 -3.38322 -7.297592 -2.06054 -6.244463 -1.477558 C -3.661789 -0.0420428 -0.402103 -0.756666 2.412509 -1.703229 C 2.117884 -0.0733859 1.9549 1.581531 1.936094 3.236448 C 1.923557 3.750476 1.936094 4.27704 2.117884 4.765993 C 2.713403 6.314344 5.076675 6.734341 6.449504 5.73763 C 7.828602 4.747187 8.192182 2.81645 7.659349 1.249294 " stroke="#000000" stroke-width="2" stroke-opacity="1" stroke-miterlimit="4"/><path stroke-linecap="round" transform="matrix(0.623143, 0, 0, 0.623143, 121.942375, 292.086545)" fill="none" stroke-linejoin="round" d="M 9.470338 -6.614374 C 9.890336 -6.608106 10.32914 -6.570494 10.680183 -6.351092 C 11.281971 -5.962437 11.413612 -5.12871 11.175405 -4.476773 C 10.937197 -3.818567 10.410632 -3.298272 9.902874 -2.80305 C 11.350926 -2.289023 12.936888 -1.655892 13.607631 -0.320674 C 14.416284 1.296631 13.469721 3.302591 12.027938 4.443481 C 10.210036 5.878996 7.765272 6.355412 5.414538 6.487053 C 1.697243 6.687649 -2.057664 6.117204 -5.549288 4.869748 C -7.103908 4.31184 -14.337901 1.534839 -14.38805 -0.383361 C -14.419394 -1.586937 -11.723885 -0.790821 -10.683293 -0.703061 C -7.498831 -0.452316 -5.242126 -0.828433 -2.402438 -2.270217 C 1.314857 -4.157073 5.076032 -6.689598 9.470338 -6.614374 Z M 9.470338 -6.614374 " stroke="#000000" stroke-width="2" stroke-opacity="1" stroke-miterlimit="4"/><path stroke-linecap="round" transform="matrix(0.623143, 0, 0, 0.623143, 118.864668, 292.203688)" fill="none" stroke-linejoin="round" d="M -14.783644 -2.094624 C -5.625182 2.236996 5.670881 2.186847 14.785462 -2.238802 " stroke="#000000" stroke-width="2" stroke-opacity="1" stroke-miterlimit="4"/></svg>