<svg xmlns="http://www.w3.org/2000/svg" xmlns:xlink="http://www.w3.org/1999/xlink" width="1080" zoomAndPan="magnify" viewBox="0 0 810 1012.49997" height="1350" preserveAspectRatio="xMidYMid meet" version="1.0"><defs><g/><clipPath id="a15d2e524a"><path d="M 0.199219 0 L 809.800781 0 L 809.800781 1012 L 0.199219 1012 Z M 0.199219 0 " clip-rule="nonzero"/></clipPath><clipPath id="0b83b0e9e5"><path d="M 707.351562 911.09375 L 729 911.09375 L 729 936.578125 L 707.351562 936.578125 Z M 707.351562 911.09375 " clip-rule="nonzero"/></clipPath><clipPath id="63875c7315"><path d="M 620.695312 80.960938 L 728.636719 80.960938 L 728.636719 100.449219 L 620.695312 100.449219 Z M 620.695312 80.960938 " clip-rule="nonzero"/></clipPath><clipPath id="b469fe3fed"><path d="M 718.992188 80.960938 C 724.425781 80.960938 728.835938 85.367188 728.835938 90.804688 C 728.835938 96.242188 724.425781 100.648438 718.992188 100.648438 L 630.539062 100.648438 C 625.101562 100.648438 620.695312 96.242188 620.695312 90.804688 C 620.695312 85.367188 625.101562 80.960938 630.539062 80.960938 Z M 718.992188 80.960938 " clip-rule="nonzero"/></clipPath><clipPath id="64f6d7afb6"><path d="M 683.003906 90 L 718 90 L 718 92 L 683.003906 92 Z M 683.003906 90 " clip-rule="nonzero"/></clipPath><clipPath id="6c1169795b"><path d="M 712 86.945312 L 718.238281 86.945312 L 718.238281 94.441406 L 712 94.441406 Z M 712 86.945312 " clip-rule="nonzero"/></clipPath><clipPath id="df31503281"><path d="M 341 678 L 664.574219 678 L 664.574219 710.714844 L 341 710.714844 Z M 341 678 " clip-rule="nonzero"/></clipPath></defs><g clip-path="url(#a15d2e524a)"><path fill="#ffffff" d="M 0.199219 0 L 809.800781 0 L 809.800781 1012 L 0.199219 1012 Z M 0.199219 0 " fill-opacity="1" fill-rule="nonzero"/><path fill="#f1f6f9" d="M 0.199219 0 L 809.800781 0 L 809.800781 1012 L 0.199219 1012 Z M 0.199219 0 " fill-opacity="1" fill-rule="nonzero"/></g><g fill="#b6eafa" fill-opacity="1"><g transform="translate(38.209516, 680.671846)"><g><path d="M 165.332031 -82.667969 C 165.332031 -78.980469 164.804688 -68.449219 162.171875 -55.8125 C 159.539062 -42.648438 153.222656 -27.90625 142.164062 -16.324219 C 131.109375 -4.738281 114.257812 4.210938 89.511719 4.210938 C 64.765625 4.210938 47.914062 -4.738281 36.859375 -16.324219 C 25.800781 -27.90625 19.480469 -42.648438 16.847656 -55.8125 C 14.214844 -68.449219 13.691406 -78.980469 13.691406 -82.667969 L 13.691406 -127.949219 C 13.691406 -156.90625 23.695312 -185.867188 43.175781 -204.296875 C 25.800781 -221.671875 16.847656 -248.523438 16.847656 -275.378906 L 16.847656 -308.023438 C 16.847656 -312.761719 17.375 -333.824219 26.851562 -353.304688 C 36.332031 -372.789062 53.707031 -391.214844 89.511719 -391.214844 C 125.316406 -391.214844 143.21875 -372.789062 152.695312 -353.304688 C 162.171875 -333.824219 162.171875 -312.761719 162.171875 -308.023438 L 162.171875 -275.378906 C 162.171875 -248.523438 153.222656 -221.671875 135.847656 -204.296875 C 155.328125 -185.867188 165.332031 -156.90625 165.332031 -127.949219 Z M 106.359375 -288.015625 C 106.359375 -305.917969 105.308594 -319.082031 103.726562 -328.03125 C 101.621094 -336.984375 96.882812 -341.195312 89.511719 -341.195312 C 83.191406 -341.195312 78.980469 -337.511719 76.875 -329.613281 C 72.136719 -314.34375 71.609375 -262.214844 75.820312 -243.785156 C 77.402344 -234.308594 82.140625 -229.570312 89.511719 -229.570312 C 96.882812 -229.570312 101.621094 -234.308594 103.726562 -243.785156 C 105.308594 -252.738281 106.359375 -267.480469 106.359375 -288.015625 Z M 110.046875 -105.308594 C 110.046875 -128.476562 108.992188 -145.851562 107.414062 -156.90625 C 105.308594 -167.964844 99.515625 -173.757812 89.511719 -173.757812 C 79.507812 -173.757812 73.714844 -167.964844 72.136719 -156.90625 C 67.921875 -134.265625 68.449219 -77.925781 73.714844 -61.078125 C 76.347656 -52.128906 81.613281 -47.914062 89.511719 -47.914062 C 99.515625 -47.914062 105.308594 -53.179688 107.414062 -63.183594 C 108.992188 -73.1875 110.046875 -87.40625 110.046875 -105.308594 Z M 110.046875 -105.308594 "/></g></g></g><g fill="#146c94" fill-opacity="1"><g transform="translate(160.170861, 375.916689)"><g><path d="M 25.242188 -62.011719 C 25.242188 -64.777344 25.128906 -67.890625 24.320312 -70.308594 C 23.511719 -72.617188 22.246094 -74.230469 20.285156 -74.230469 C 17.058594 -74.113281 16.023438 -70.773438 16.023438 -65.816406 C 16.023438 -62.933594 17.289062 -59.9375 19.132812 -56.710938 C 20.976562 -53.480469 23.398438 -50.140625 25.820312 -46.566406 C 28.699219 -42.300781 31.582031 -37.921875 33.773438 -33.65625 C 35.960938 -29.390625 37.460938 -25.011719 37.460938 -20.402344 C 37.460938 -14.753906 36.539062 -9.453125 33.886719 -5.53125 C 31.234375 -1.613281 26.972656 0.921875 20.171875 0.921875 C 12.21875 0.921875 7.722656 -2.074219 5.1875 -6.683594 C 2.652344 -11.296875 2.074219 -17.40625 2.074219 -23.746094 L 14.292969 -24.898438 C 14.292969 -21.324219 14.40625 -17.75 15.328125 -15.097656 C 16.136719 -12.332031 17.519531 -10.488281 20.171875 -10.488281 C 23.859375 -10.488281 25.242188 -14.40625 25.242188 -19.824219 C 25.242188 -22.589844 23.859375 -25.820312 22.015625 -29.160156 C 20.976562 -30.773438 19.941406 -32.503906 18.789062 -34.234375 C 16.367188 -37.691406 13.714844 -41.609375 10.949219 -45.875 C 8.183594 -50.140625 6.109375 -54.519531 4.839844 -59.015625 C 4.148438 -61.203125 3.804688 -63.511719 3.804688 -65.816406 C 3.804688 -70.425781 4.839844 -75.382812 7.492188 -79.1875 C 10.144531 -82.875 14.175781 -85.523438 20.054688 -85.640625 C 27.546875 -85.753906 31.929688 -82.644531 34.347656 -78.148438 C 36.769531 -73.539062 37.460938 -67.890625 37.460938 -63.164062 Z M 25.242188 -62.011719 "/></g></g></g><g fill="#146c94" fill-opacity="1"><g transform="translate(199.703513, 375.916689)"><g><path d="M 37.691406 -84.71875 L 37.691406 -17.40625 C 37.574219 -13.945312 36.882812 -10.835938 35.617188 -8.183594 C 34.578125 -5.878906 32.964844 -3.6875 30.660156 -1.960938 C 28.355469 -0.117188 25.242188 0.921875 21.09375 0.921875 C 16.945312 0.921875 13.714844 -0.117188 11.410156 -1.960938 C 9.105469 -3.6875 7.605469 -5.878906 6.570312 -8.183594 C 5.300781 -10.835938 4.609375 -13.945312 4.496094 -17.40625 L 4.496094 -84.71875 L 16.945312 -84.71875 L 16.945312 -17.40625 C 16.945312 -14.984375 17.519531 -13.371094 18.671875 -12.101562 C 19.25 -11.527344 20.054688 -11.179688 21.09375 -11.179688 C 23.28125 -11.179688 24.320312 -12.5625 24.78125 -14.292969 C 25.128906 -15.097656 25.242188 -16.136719 25.242188 -17.40625 L 25.242188 -84.71875 Z M 37.691406 -84.71875 "/></g></g></g><g fill="#146c94" fill-opacity="1"><g transform="translate(241.887036, 375.916689)"><g><path d="M 37 -29.046875 L 37 -17.40625 C 36.882812 -13.945312 36.191406 -10.835938 34.925781 -8.183594 C 33.886719 -5.878906 32.273438 -3.6875 29.96875 -1.960938 C 27.664062 -0.117188 24.550781 0.921875 20.402344 0.921875 C 16.253906 0.921875 13.023438 -0.117188 10.71875 -1.960938 C 8.414062 -3.6875 6.914062 -5.878906 5.878906 -8.183594 C 4.609375 -10.835938 3.917969 -13.945312 3.804688 -17.40625 L 3.804688 -67.3125 C 3.917969 -70.65625 4.609375 -73.769531 5.878906 -76.417969 C 6.914062 -78.726562 8.414062 -81.03125 10.71875 -82.757812 C 13.023438 -84.488281 16.253906 -85.640625 20.402344 -85.640625 C 24.550781 -85.640625 27.664062 -84.488281 29.96875 -82.757812 C 32.273438 -81.03125 33.886719 -78.726562 34.925781 -76.417969 C 36.191406 -73.769531 36.882812 -70.65625 37 -67.3125 L 37 -55.671875 L 25.359375 -55.671875 L 25.359375 -67.3125 C 25.359375 -69.617188 24.78125 -71.234375 23.511719 -72.617188 C 22.9375 -73.191406 21.898438 -73.539062 20.632812 -73.539062 C 18.441406 -73.539062 17.40625 -71.925781 16.828125 -70.425781 C 16.484375 -69.503906 16.367188 -68.464844 16.253906 -67.3125 L 16.253906 -17.40625 C 16.367188 -14.984375 17.058594 -13.371094 18.210938 -12.101562 C 18.789062 -11.527344 19.59375 -11.179688 20.632812 -11.179688 C 23.28125 -11.179688 24.320312 -12.5625 24.898438 -14.292969 C 25.242188 -15.097656 25.359375 -16.136719 25.359375 -17.40625 L 25.359375 -29.046875 Z M 37 -29.046875 "/></g></g></g><g fill="#146c94" fill-opacity="1"><g transform="translate(281.765449, 375.916689)"><g><path d="M 37 -29.046875 L 37 -17.40625 C 36.882812 -13.945312 36.191406 -10.835938 34.925781 -8.183594 C 33.886719 -5.878906 32.273438 -3.6875 29.96875 -1.960938 C 27.664062 -0.117188 24.550781 0.921875 20.402344 0.921875 C 16.253906 0.921875 13.023438 -0.117188 10.71875 -1.960938 C 8.414062 -3.6875 6.914062 -5.878906 5.878906 -8.183594 C 4.609375 -10.835938 3.917969 -13.945312 3.804688 -17.40625 L 3.804688 -67.3125 C 3.917969 -70.65625 4.609375 -73.769531 5.878906 -76.417969 C 6.914062 -78.726562 8.414062 -81.03125 10.71875 -82.757812 C 13.023438 -84.488281 16.253906 -85.640625 20.402344 -85.640625 C 24.550781 -85.640625 27.664062 -84.488281 29.96875 -82.757812 C 32.273438 -81.03125 33.886719 -78.726562 34.925781 -76.417969 C 36.191406 -73.769531 36.882812 -70.65625 37 -67.3125 L 37 -55.671875 L 25.359375 -55.671875 L 25.359375 -67.3125 C 25.359375 -69.617188 24.78125 -71.234375 23.511719 -72.617188 C 22.9375 -73.191406 21.898438 -73.539062 20.632812 -73.539062 C 18.441406 -73.539062 17.40625 -71.925781 16.828125 -70.425781 C 16.484375 -69.503906 16.367188 -68.464844 16.253906 -67.3125 L 16.253906 -17.40625 C 16.367188 -14.984375 17.058594 -13.371094 18.210938 -12.101562 C 18.789062 -11.527344 19.59375 -11.179688 20.632812 -11.179688 C 23.28125 -11.179688 24.320312 -12.5625 24.898438 -14.292969 C 25.242188 -15.097656 25.359375 -16.136719 25.359375 -17.40625 L 25.359375 -29.046875 Z M 37 -29.046875 "/></g></g></g><g fill="#146c94" fill-opacity="1"><g transform="translate(321.643863, 375.916689)"><g><path d="M 4.609375 -84.71875 L 33.082031 -84.71875 L 33.082031 -71.925781 L 17.058594 -71.925781 L 17.058594 -49.679688 L 28.585938 -49.679688 L 28.585938 -36.078125 L 17.058594 -36.078125 L 17.058594 -12.792969 L 33.082031 -12.792969 L 33.082031 0 L 4.609375 0 Z M 4.609375 -84.71875 "/></g></g></g><g fill="#146c94" fill-opacity="1"><g transform="translate(357.027323, 375.916689)"><g><path d="M 25.242188 -62.011719 C 25.242188 -64.777344 25.128906 -67.890625 24.320312 -70.308594 C 23.511719 -72.617188 22.246094 -74.230469 20.285156 -74.230469 C 17.058594 -74.113281 16.023438 -70.773438 16.023438 -65.816406 C 16.023438 -62.933594 17.289062 -59.9375 19.132812 -56.710938 C 20.976562 -53.480469 23.398438 -50.140625 25.820312 -46.566406 C 28.699219 -42.300781 31.582031 -37.921875 33.773438 -33.65625 C 35.960938 -29.390625 37.460938 -25.011719 37.460938 -20.402344 C 37.460938 -14.753906 36.539062 -9.453125 33.886719 -5.53125 C 31.234375 -1.613281 26.972656 0.921875 20.171875 0.921875 C 12.21875 0.921875 7.722656 -2.074219 5.1875 -6.683594 C 2.652344 -11.296875 2.074219 -17.40625 2.074219 -23.746094 L 14.292969 -24.898438 C 14.292969 -21.324219 14.40625 -17.75 15.328125 -15.097656 C 16.136719 -12.332031 17.519531 -10.488281 20.171875 -10.488281 C 23.859375 -10.488281 25.242188 -14.40625 25.242188 -19.824219 C 25.242188 -22.589844 23.859375 -25.820312 22.015625 -29.160156 C 20.976562 -30.773438 19.941406 -32.503906 18.789062 -34.234375 C 16.367188 -37.691406 13.714844 -41.609375 10.949219 -45.875 C 8.183594 -50.140625 6.109375 -54.519531 4.839844 -59.015625 C 4.148438 -61.203125 3.804688 -63.511719 3.804688 -65.816406 C 3.804688 -70.425781 4.839844 -75.382812 7.492188 -79.1875 C 10.144531 -82.875 14.175781 -85.523438 20.054688 -85.640625 C 27.546875 -85.753906 31.929688 -82.644531 34.347656 -78.148438 C 36.769531 -73.539062 37.460938 -67.890625 37.460938 -63.164062 Z M 25.242188 -62.011719 "/></g></g></g><g fill="#146c94" fill-opacity="1"><g transform="translate(396.559975, 375.916689)"><g><path d="M 25.242188 -62.011719 C 25.242188 -64.777344 25.128906 -67.890625 24.320312 -70.308594 C 23.511719 -72.617188 22.246094 -74.230469 20.285156 -74.230469 C 17.058594 -74.113281 16.023438 -70.773438 16.023438 -65.816406 C 16.023438 -62.933594 17.289062 -59.9375 19.132812 -56.710938 C 20.976562 -53.480469 23.398438 -50.140625 25.820312 -46.566406 C 28.699219 -42.300781 31.582031 -37.921875 33.773438 -33.65625 C 35.960938 -29.390625 37.460938 -25.011719 37.460938 -20.402344 C 37.460938 -14.753906 36.539062 -9.453125 33.886719 -5.53125 C 31.234375 -1.613281 26.972656 0.921875 20.171875 0.921875 C 12.21875 0.921875 7.722656 -2.074219 5.1875 -6.683594 C 2.652344 -11.296875 2.074219 -17.40625 2.074219 -23.746094 L 14.292969 -24.898438 C 14.292969 -21.324219 14.40625 -17.75 15.328125 -15.097656 C 16.136719 -12.332031 17.519531 -10.488281 20.171875 -10.488281 C 23.859375 -10.488281 25.242188 -14.40625 25.242188 -19.824219 C 25.242188 -22.589844 23.859375 -25.820312 22.015625 -29.160156 C 20.976562 -30.773438 19.941406 -32.503906 18.789062 -34.234375 C 16.367188 -37.691406 13.714844 -41.609375 10.949219 -45.875 C 8.183594 -50.140625 6.109375 -54.519531 4.839844 -59.015625 C 4.148438 -61.203125 3.804688 -63.511719 3.804688 -65.816406 C 3.804688 -70.425781 4.839844 -75.382812 7.492188 -79.1875 C 10.144531 -82.875 14.175781 -85.523438 20.054688 -85.640625 C 27.546875 -85.753906 31.929688 -82.644531 34.347656 -78.148438 C 36.769531 -73.539062 37.460938 -67.890625 37.460938 -63.164062 Z M 25.242188 -62.011719 "/></g></g></g><g fill="#146c94" fill-opacity="1"><g transform="translate(436.092628, 375.916689)"><g><path d="M 34.234375 -71.925781 L 17.058594 -71.925781 L 17.058594 -49.679688 L 28.585938 -49.679688 L 28.585938 -36.882812 L 17.058594 -36.882812 L 17.058594 0 L 4.609375 0 L 4.609375 -84.71875 L 34.234375 -84.71875 Z M 34.234375 -71.925781 "/></g></g></g><g fill="#146c94" fill-opacity="1"><g transform="translate(470.784555, 375.916689)"><g><path d="M 37.691406 -84.71875 L 37.691406 -17.40625 C 37.574219 -13.945312 36.882812 -10.835938 35.617188 -8.183594 C 34.578125 -5.878906 32.964844 -3.6875 30.660156 -1.960938 C 28.355469 -0.117188 25.242188 0.921875 21.09375 0.921875 C 16.945312 0.921875 13.714844 -0.117188 11.410156 -1.960938 C 9.105469 -3.6875 7.605469 -5.878906 6.570312 -8.183594 C 5.300781 -10.835938 4.609375 -13.945312 4.496094 -17.40625 L 4.496094 -84.71875 L 16.945312 -84.71875 L 16.945312 -17.40625 C 16.945312 -14.984375 17.519531 -13.371094 18.671875 -12.101562 C 19.25 -11.527344 20.054688 -11.179688 21.09375 -11.179688 C 23.28125 -11.179688 24.320312 -12.5625 24.78125 -14.292969 C 25.128906 -15.097656 25.242188 -16.136719 25.242188 -17.40625 L 25.242188 -84.71875 Z M 37.691406 -84.71875 "/></g></g></g><g fill="#146c94" fill-opacity="1"><g transform="translate(512.968066, 375.916689)"><g><path d="M 4.609375 -84.71875 L 17.058594 -84.71875 L 17.058594 -11.527344 L 33.542969 -11.527344 L 33.542969 0 L 4.609375 0 Z M 4.609375 -84.71875 "/></g></g></g><g fill="#146c94" fill-opacity="1"><g transform="translate(160.170861, 479.365596)"><g><path d="M 22.476562 0 L 12.792969 0 L 1.382812 -84.71875 L 12.910156 -84.71875 L 17.867188 -40.6875 L 18.097656 -37.921875 L 19.019531 -37.921875 L 19.363281 -40.6875 L 24.667969 -84.71875 L 33.65625 -84.71875 L 38.957031 -40.6875 L 39.304688 -37.921875 L 40.226562 -37.921875 L 40.457031 -40.6875 L 45.414062 -84.71875 L 56.941406 -84.71875 L 45.527344 0 L 35.847656 0 L 30.082031 -40.113281 L 29.390625 -45.066406 L 28.929688 -45.066406 L 28.238281 -40.113281 Z M 22.476562 0 "/></g></g></g><g fill="#146c94" fill-opacity="1"><g transform="translate(218.490159, 479.365596)"><g><path d="M 1.152344 0 L 13.945312 -84.71875 L 29.160156 -84.71875 L 41.957031 0 L 29.851562 0 L 27.546875 -17.289062 L 15.558594 -17.289062 L 13.253906 0 Z M 22.246094 -57.171875 L 21.898438 -59.359375 L 21.207031 -59.359375 L 20.863281 -57.171875 L 17.289062 -30.429688 L 25.820312 -30.429688 Z M 22.246094 -57.171875 "/></g></g></g><g fill="#146c94" fill-opacity="1"><g transform="translate(261.595724, 479.365596)"><g><path d="M 19.25 -57.632812 L 19.59375 -56.824219 L 19.824219 -56.824219 L 20.171875 -57.632812 L 26.394531 -84.71875 L 38.613281 -84.71875 L 25.933594 -36.078125 L 25.933594 0 L 13.484375 0 L 13.484375 -36.078125 L 0.808594 -84.71875 L 13.023438 -84.71875 Z M 19.25 -57.632812 "/></g></g></g><g fill="#146c94" fill-opacity="1"><g transform="translate(301.013111, 479.365596)"><g><path d="M 25.242188 -62.011719 C 25.242188 -64.777344 25.128906 -67.890625 24.320312 -70.308594 C 23.511719 -72.617188 22.246094 -74.230469 20.285156 -74.230469 C 17.058594 -74.113281 16.023438 -70.773438 16.023438 -65.816406 C 16.023438 -62.933594 17.289062 -59.9375 19.132812 -56.710938 C 20.976562 -53.480469 23.398438 -50.140625 25.820312 -46.566406 C 28.699219 -42.300781 31.582031 -37.921875 33.773438 -33.65625 C 35.960938 -29.390625 37.460938 -25.011719 37.460938 -20.402344 C 37.460938 -14.753906 36.539062 -9.453125 33.886719 -5.53125 C 31.234375 -1.613281 26.972656 0.921875 20.171875 0.921875 C 12.21875 0.921875 7.722656 -2.074219 5.1875 -6.683594 C 2.652344 -11.296875 2.074219 -17.40625 2.074219 -23.746094 L 14.292969 -24.898438 C 14.292969 -21.324219 14.40625 -17.75 15.328125 -15.097656 C 16.136719 -12.332031 17.519531 -10.488281 20.171875 -10.488281 C 23.859375 -10.488281 25.242188 -14.40625 25.242188 -19.824219 C 25.242188 -22.589844 23.859375 -25.820312 22.015625 -29.160156 C 20.976562 -30.773438 19.941406 -32.503906 18.789062 -34.234375 C 16.367188 -37.691406 13.714844 -41.609375 10.949219 -45.875 C 8.183594 -50.140625 6.109375 -54.519531 4.839844 -59.015625 C 4.148438 -61.203125 3.804688 -63.511719 3.804688 -65.816406 C 3.804688 -70.425781 4.839844 -75.382812 7.492188 -79.1875 C 10.144531 -82.875 14.175781 -85.523438 20.054688 -85.640625 C 27.546875 -85.753906 31.929688 -82.644531 34.347656 -78.148438 C 36.769531 -73.539062 37.460938 -67.890625 37.460938 -63.164062 Z M 25.242188 -62.011719 "/></g></g></g><g fill="#146c94" fill-opacity="1"><g transform="translate(340.545764, 479.365596)"><g/></g></g><g fill="#146c94" fill-opacity="1"><g transform="translate(358.295115, 479.365596)"><g><path d="M 0.230469 -71.925781 L 0.230469 -84.71875 L 36.191406 -84.71875 L 36.191406 -71.925781 L 24.4375 -71.925781 L 24.4375 0 L 11.988281 0 L 11.988281 -71.925781 Z M 0.230469 -71.925781 "/></g></g></g><g fill="#146c94" fill-opacity="1"><g transform="translate(394.715847, 479.365596)"><g><path d="M 37 -17.40625 C 36.882812 -13.945312 36.191406 -10.835938 34.925781 -8.183594 C 33.886719 -5.878906 32.273438 -3.6875 29.96875 -1.960938 C 27.664062 -0.117188 24.550781 0.921875 20.402344 0.921875 C 16.253906 0.921875 13.023438 -0.117188 10.71875 -1.960938 C 8.414062 -3.6875 6.914062 -5.878906 5.878906 -8.183594 C 4.609375 -10.835938 3.917969 -13.945312 3.804688 -17.40625 L 3.804688 -67.3125 C 3.917969 -70.65625 4.609375 -73.769531 5.878906 -76.417969 C 6.914062 -78.726562 8.414062 -81.03125 10.71875 -82.757812 C 13.023438 -84.488281 16.253906 -85.640625 20.402344 -85.640625 C 24.550781 -85.640625 27.664062 -84.488281 29.96875 -82.757812 C 32.273438 -81.03125 33.886719 -78.726562 34.925781 -76.417969 C 36.191406 -73.769531 36.882812 -70.65625 37 -67.3125 Z M 24.550781 -67.3125 C 24.550781 -69.617188 24.089844 -71.234375 22.9375 -72.617188 C 22.359375 -73.191406 21.4375 -73.539062 20.402344 -73.539062 C 18.210938 -73.539062 17.175781 -71.925781 16.714844 -70.425781 C 16.367188 -69.503906 16.253906 -68.464844 16.253906 -67.3125 L 16.253906 -17.40625 C 16.253906 -14.984375 16.828125 -13.371094 17.980469 -12.101562 C 18.558594 -11.527344 19.363281 -11.179688 20.402344 -11.179688 C 22.589844 -11.179688 23.628906 -12.5625 24.089844 -14.292969 C 24.4375 -15.097656 24.550781 -16.136719 24.550781 -17.40625 Z M 24.550781 -67.3125 "/></g></g></g><g fill="#146c94" fill-opacity="1"><g transform="translate(160.170861, 582.814502)"><g><path d="M 37 -29.046875 L 37 -17.40625 C 36.882812 -13.945312 36.191406 -10.835938 34.925781 -8.183594 C 33.886719 -5.878906 32.273438 -3.6875 29.96875 -1.960938 C 27.664062 -0.117188 24.550781 0.921875 20.402344 0.921875 C 16.253906 0.921875 13.023438 -0.117188 10.71875 -1.960938 C 8.414062 -3.6875 6.914062 -5.878906 5.878906 -8.183594 C 4.609375 -10.835938 3.917969 -13.945312 3.804688 -17.40625 L 3.804688 -67.3125 C 3.917969 -70.65625 4.609375 -73.769531 5.878906 -76.417969 C 6.914062 -78.726562 8.414062 -81.03125 10.71875 -82.757812 C 13.023438 -84.488281 16.253906 -85.640625 20.402344 -85.640625 C 24.550781 -85.640625 27.664062 -84.488281 29.96875 -82.757812 C 32.273438 -81.03125 33.886719 -78.726562 34.925781 -76.417969 C 36.191406 -73.769531 36.882812 -70.65625 37 -67.3125 L 37 -55.671875 L 25.359375 -55.671875 L 25.359375 -67.3125 C 25.359375 -69.617188 24.78125 -71.234375 23.511719 -72.617188 C 22.9375 -73.191406 21.898438 -73.539062 20.632812 -73.539062 C 18.441406 -73.539062 17.40625 -71.925781 16.828125 -70.425781 C 16.484375 -69.503906 16.367188 -68.464844 16.253906 -67.3125 L 16.253906 -17.40625 C 16.367188 -14.984375 17.058594 -13.371094 18.210938 -12.101562 C 18.789062 -11.527344 19.59375 -11.179688 20.632812 -11.179688 C 23.28125 -11.179688 24.320312 -12.5625 24.898438 -14.292969 C 25.242188 -15.097656 25.359375 -16.136719 25.359375 -17.40625 L 25.359375 -29.046875 Z M 37 -29.046875 "/></g></g></g><g fill="#146c94" fill-opacity="1"><g transform="translate(200.049274, 582.814502)"><g><path d="M 37 -17.40625 C 36.882812 -13.945312 36.191406 -10.835938 34.925781 -8.183594 C 33.886719 -5.878906 32.273438 -3.6875 29.96875 -1.960938 C 27.664062 -0.117188 24.550781 0.921875 20.402344 0.921875 C 16.253906 0.921875 13.023438 -0.117188 10.71875 -1.960938 C 8.414062 -3.6875 6.914062 -5.878906 5.878906 -8.183594 C 4.609375 -10.835938 3.917969 -13.945312 3.804688 -17.40625 L 3.804688 -67.3125 C 3.917969 -70.65625 4.609375 -73.769531 5.878906 -76.417969 C 6.914062 -78.726562 8.414062 -81.03125 10.71875 -82.757812 C 13.023438 -84.488281 16.253906 -85.640625 20.402344 -85.640625 C 24.550781 -85.640625 27.664062 -84.488281 29.96875 -82.757812 C 32.273438 -81.03125 33.886719 -78.726562 34.925781 -76.417969 C 36.191406 -73.769531 36.882812 -70.65625 37 -67.3125 Z M 24.550781 -67.3125 C 24.550781 -69.617188 24.089844 -71.234375 22.9375 -72.617188 C 22.359375 -73.191406 21.4375 -73.539062 20.402344 -73.539062 C 18.210938 -73.539062 17.175781 -71.925781 16.714844 -70.425781 C 16.367188 -69.503906 16.253906 -68.464844 16.253906 -67.3125 L 16.253906 -17.40625 C 16.253906 -14.984375 16.828125 -13.371094 17.980469 -12.101562 C 18.558594 -11.527344 19.363281 -11.179688 20.402344 -11.179688 C 22.589844 -11.179688 23.628906 -12.5625 24.089844 -14.292969 C 24.4375 -15.097656 24.550781 -16.136719 24.550781 -17.40625 Z M 24.550781 -67.3125 "/></g></g></g><g fill="#146c94" fill-opacity="1"><g transform="translate(240.849729, 582.814502)"><g><path d="M 17.75 -44.144531 L 16.714844 -48.066406 L 16.023438 -48.066406 L 16.023438 0 L 4.609375 0 L 4.609375 -84.71875 L 15.675781 -84.71875 L 27.777344 -40.574219 L 28.816406 -36.652344 L 29.507812 -36.652344 L 29.507812 -84.71875 L 40.917969 -84.71875 L 40.917969 0 L 29.851562 0 Z M 17.75 -44.144531 "/></g></g></g><g fill="#146c94" fill-opacity="1"><g transform="translate(286.375668, 582.814502)"><g><path d="M 17.75 -44.144531 L 16.714844 -48.066406 L 16.023438 -48.066406 L 16.023438 0 L 4.609375 0 L 4.609375 -84.71875 L 15.675781 -84.71875 L 27.777344 -40.574219 L 28.816406 -36.652344 L 29.507812 -36.652344 L 29.507812 -84.71875 L 40.917969 -84.71875 L 40.917969 0 L 29.851562 0 Z M 17.75 -44.144531 "/></g></g></g><g fill="#146c94" fill-opacity="1"><g transform="translate(331.901607, 582.814502)"><g><path d="M 4.609375 -84.71875 L 33.082031 -84.71875 L 33.082031 -71.925781 L 17.058594 -71.925781 L 17.058594 -49.679688 L 28.585938 -49.679688 L 28.585938 -36.078125 L 17.058594 -36.078125 L 17.058594 -12.792969 L 33.082031 -12.792969 L 33.082031 0 L 4.609375 0 Z M 4.609375 -84.71875 "/></g></g></g><g fill="#146c94" fill-opacity="1"><g transform="translate(367.285044, 582.814502)"><g><path d="M 37 -29.046875 L 37 -17.40625 C 36.882812 -13.945312 36.191406 -10.835938 34.925781 -8.183594 C 33.886719 -5.878906 32.273438 -3.6875 29.96875 -1.960938 C 27.664062 -0.117188 24.550781 0.921875 20.402344 0.921875 C 16.253906 0.921875 13.023438 -0.117188 10.71875 -1.960938 C 8.414062 -3.6875 6.914062 -5.878906 5.878906 -8.183594 C 4.609375 -10.835938 3.917969 -13.945312 3.804688 -17.40625 L 3.804688 -67.3125 C 3.917969 -70.65625 4.609375 -73.769531 5.878906 -76.417969 C 6.914062 -78.726562 8.414062 -81.03125 10.71875 -82.757812 C 13.023438 -84.488281 16.253906 -85.640625 20.402344 -85.640625 C 24.550781 -85.640625 27.664062 -84.488281 29.96875 -82.757812 C 32.273438 -81.03125 33.886719 -78.726562 34.925781 -76.417969 C 36.191406 -73.769531 36.882812 -70.65625 37 -67.3125 L 37 -55.671875 L 25.359375 -55.671875 L 25.359375 -67.3125 C 25.359375 -69.617188 24.78125 -71.234375 23.511719 -72.617188 C 22.9375 -73.191406 21.898438 -73.539062 20.632812 -73.539062 C 18.441406 -73.539062 17.40625 -71.925781 16.828125 -70.425781 C 16.484375 -69.503906 16.367188 -68.464844 16.253906 -67.3125 L 16.253906 -17.40625 C 16.367188 -14.984375 17.058594 -13.371094 18.210938 -12.101562 C 18.789062 -11.527344 19.59375 -11.179688 20.632812 -11.179688 C 23.28125 -11.179688 24.320312 -12.5625 24.898438 -14.292969 C 25.242188 -15.097656 25.359375 -16.136719 25.359375 -17.40625 L 25.359375 -29.046875 Z M 37 -29.046875 "/></g></g></g><g fill="#146c94" fill-opacity="1"><g transform="translate(407.163458, 582.814502)"><g><path d="M 0.230469 -71.925781 L 0.230469 -84.71875 L 36.191406 -84.71875 L 36.191406 -71.925781 L 24.4375 -71.925781 L 24.4375 0 L 11.988281 0 L 11.988281 -71.925781 Z M 0.230469 -71.925781 "/></g></g></g><g fill="#146c94" fill-opacity="1"><g transform="translate(443.584213, 582.814502)"><g/></g></g><g fill="#146c94" fill-opacity="1"><g transform="translate(461.333564, 582.814502)"><g><path d="M 22.476562 0 L 12.792969 0 L 1.382812 -84.71875 L 12.910156 -84.71875 L 17.867188 -40.6875 L 18.097656 -37.921875 L 19.019531 -37.921875 L 19.363281 -40.6875 L 24.667969 -84.71875 L 33.65625 -84.71875 L 38.957031 -40.6875 L 39.304688 -37.921875 L 40.226562 -37.921875 L 40.457031 -40.6875 L 45.414062 -84.71875 L 56.941406 -84.71875 L 45.527344 0 L 35.847656 0 L 30.082031 -40.113281 L 29.390625 -45.066406 L 28.929688 -45.066406 L 28.238281 -40.113281 Z M 22.476562 0 "/></g></g></g><g fill="#146c94" fill-opacity="1"><g transform="translate(519.652874, 582.814502)"><g><path d="M 4.609375 -84.71875 L 17.058594 -84.71875 L 17.058594 0 L 4.609375 0 Z M 4.609375 -84.71875 "/></g></g></g><g fill="#146c94" fill-opacity="1"><g transform="translate(541.320898, 582.814502)"><g><path d="M 0.230469 -71.925781 L 0.230469 -84.71875 L 36.191406 -84.71875 L 36.191406 -71.925781 L 24.4375 -71.925781 L 24.4375 0 L 11.988281 0 L 11.988281 -71.925781 Z M 0.230469 -71.925781 "/></g></g></g><g fill="#146c94" fill-opacity="1"><g transform="translate(577.741631, 582.814502)"><g><path d="M 26.742188 -36.882812 L 17.058594 -36.882812 L 17.058594 0 L 4.609375 0 L 4.609375 -84.71875 L 17.058594 -84.71875 L 17.058594 -49.679688 L 26.742188 -49.679688 L 26.742188 -84.71875 L 39.1875 -84.71875 L 39.1875 0 L 26.742188 0 Z M 26.742188 -36.882812 "/></g></g></g><g fill="#146c94" fill-opacity="1"><g transform="translate(160.170861, 686.263409)"><g><path d="M 19.25 -57.632812 L 19.59375 -56.824219 L 19.824219 -56.824219 L 20.171875 -57.632812 L 26.394531 -84.71875 L 38.613281 -84.71875 L 25.933594 -36.078125 L 25.933594 0 L 13.484375 0 L 13.484375 -36.078125 L 0.808594 -84.71875 L 13.023438 -84.71875 Z M 19.25 -57.632812 "/></g></g></g><g fill="#146c94" fill-opacity="1"><g transform="translate(199.588248, 686.263409)"><g><path d="M 37 -17.40625 C 36.882812 -13.945312 36.191406 -10.835938 34.925781 -8.183594 C 33.886719 -5.878906 32.273438 -3.6875 29.96875 -1.960938 C 27.664062 -0.117188 24.550781 0.921875 20.402344 0.921875 C 16.253906 0.921875 13.023438 -0.117188 10.71875 -1.960938 C 8.414062 -3.6875 6.914062 -5.878906 5.878906 -8.183594 C 4.609375 -10.835938 3.917969 -13.945312 3.804688 -17.40625 L 3.804688 -67.3125 C 3.917969 -70.65625 4.609375 -73.769531 5.878906 -76.417969 C 6.914062 -78.726562 8.414062 -81.03125 10.71875 -82.757812 C 13.023438 -84.488281 16.253906 -85.640625 20.402344 -85.640625 C 24.550781 -85.640625 27.664062 -84.488281 29.96875 -82.757812 C 32.273438 -81.03125 33.886719 -78.726562 34.925781 -76.417969 C 36.191406 -73.769531 36.882812 -70.65625 37 -67.3125 Z M 24.550781 -67.3125 C 24.550781 -69.617188 24.089844 -71.234375 22.9375 -72.617188 C 22.359375 -73.191406 21.4375 -73.539062 20.402344 -73.539062 C 18.210938 -73.539062 17.175781 -71.925781 16.714844 -70.425781 C 16.367188 -69.503906 16.253906 -68.464844 16.253906 -67.3125 L 16.253906 -17.40625 C 16.253906 -14.984375 16.828125 -13.371094 17.980469 -12.101562 C 18.558594 -11.527344 19.363281 -11.179688 20.402344 -11.179688 C 22.589844 -11.179688 23.628906 -12.5625 24.089844 -14.292969 C 24.4375 -15.097656 24.550781 -16.136719 24.550781 -17.40625 Z M 24.550781 -67.3125 "/></g></g></g><g fill="#146c94" fill-opacity="1"><g transform="translate(240.388703, 686.263409)"><g><path d="M 37.691406 -84.71875 L 37.691406 -17.40625 C 37.574219 -13.945312 36.882812 -10.835938 35.617188 -8.183594 C 34.578125 -5.878906 32.964844 -3.6875 30.660156 -1.960938 C 28.355469 -0.117188 25.242188 0.921875 21.09375 0.921875 C 16.945312 0.921875 13.714844 -0.117188 11.410156 -1.960938 C 9.105469 -3.6875 7.605469 -5.878906 6.570312 -8.183594 C 5.300781 -10.835938 4.609375 -13.945312 4.496094 -17.40625 L 4.496094 -84.71875 L 16.945312 -84.71875 L 16.945312 -17.40625 C 16.945312 -14.984375 17.519531 -13.371094 18.671875 -12.101562 C 19.25 -11.527344 20.054688 -11.179688 21.09375 -11.179688 C 23.28125 -11.179688 24.320312 -12.5625 24.78125 -14.292969 C 25.128906 -15.097656 25.242188 -16.136719 25.242188 -17.40625 L 25.242188 -84.71875 Z M 37.691406 -84.71875 "/></g></g></g><g fill="#146c94" fill-opacity="1"><g transform="translate(282.572226, 686.263409)"><g><path d="M 26.855469 0 L 20.402344 -35.730469 L 17.058594 -35.730469 L 17.058594 0 L 4.609375 0 L 4.609375 -84.71875 L 17.058594 -84.71875 C 31.929688 -84.71875 38.265625 -76.304688 38.265625 -60.28125 C 38.265625 -51.867188 36.078125 -44.261719 31.351562 -41.035156 L 39.304688 0 Z M 17.058594 -47.257812 C 18.789062 -47.257812 21.09375 -47.488281 22.9375 -49.101562 C 24.78125 -50.714844 26.28125 -53.828125 26.28125 -59.820312 C 26.28125 -65.816406 24.78125 -69.042969 22.9375 -70.65625 C 21.09375 -72.269531 18.789062 -72.386719 17.058594 -72.386719 Z M 17.058594 -47.257812 "/></g></g></g><g fill="#146c94" fill-opacity="1"><g transform="translate(324.179468, 686.263409)"><g/></g></g><g fill="#19a7ce" fill-opacity="1"><g transform="translate(341.932651, 686.263409)"><g><path d="M 1.152344 0 L 13.945312 -84.71875 L 29.160156 -84.71875 L 41.957031 0 L 29.851562 0 L 27.546875 -17.289062 L 15.558594 -17.289062 L 13.253906 0 Z M 22.246094 -57.171875 L 21.898438 -59.359375 L 21.207031 -59.359375 L 20.863281 -57.171875 L 17.289062 -30.429688 L 25.820312 -30.429688 Z M 22.246094 -57.171875 "/></g></g></g><g fill="#19a7ce" fill-opacity="1"><g transform="translate(385.038216, 686.263409)"><g><path d="M 37.691406 -84.71875 L 37.691406 -17.40625 C 37.574219 -13.945312 36.882812 -10.835938 35.617188 -8.183594 C 34.578125 -5.878906 32.964844 -3.6875 30.660156 -1.960938 C 28.355469 -0.117188 25.242188 0.921875 21.09375 0.921875 C 16.945312 0.921875 13.714844 -0.117188 11.410156 -1.960938 C 9.105469 -3.6875 7.605469 -5.878906 6.570312 -8.183594 C 5.300781 -10.835938 4.609375 -13.945312 4.496094 -17.40625 L 4.496094 -84.71875 L 16.945312 -84.71875 L 16.945312 -17.40625 C 16.945312 -14.984375 17.519531 -13.371094 18.671875 -12.101562 C 19.25 -11.527344 20.054688 -11.179688 21.09375 -11.179688 C 23.28125 -11.179688 24.320312 -12.5625 24.78125 -14.292969 C 25.128906 -15.097656 25.242188 -16.136719 25.242188 -17.40625 L 25.242188 -84.71875 Z M 37.691406 -84.71875 "/></g></g></g><g fill="#19a7ce" fill-opacity="1"><g transform="translate(427.221738, 686.263409)"><g><path d="M 4.609375 0 L 4.609375 -84.71875 L 14.40625 -84.71875 C 25.933594 -84.71875 32.160156 -82.414062 35.5 -75.957031 C 38.726562 -69.503906 39.1875 -58.898438 39.1875 -42.300781 C 39.1875 -25.703125 38.726562 -15.214844 35.5 -8.761719 C 32.160156 -2.304688 25.933594 0 14.40625 0 Z M 17.058594 -12.449219 C 21.324219 -12.449219 23.746094 -12.910156 25.011719 -17.058594 C 25.589844 -19.019531 26.050781 -22.015625 26.164062 -26.050781 C 26.28125 -30.082031 26.28125 -35.5 26.28125 -42.417969 C 26.28125 -49.332031 26.28125 -54.75 26.164062 -58.785156 C 26.050781 -62.703125 25.589844 -65.699219 25.011719 -67.773438 C 23.746094 -71.808594 21.324219 -72.269531 17.058594 -72.269531 Z M 17.058594 -12.449219 "/></g></g></g><g fill="#19a7ce" fill-opacity="1"><g transform="translate(470.096795, 686.263409)"><g><path d="M 4.609375 -84.71875 L 17.058594 -84.71875 L 17.058594 0 L 4.609375 0 Z M 4.609375 -84.71875 "/></g></g></g><g fill="#19a7ce" fill-opacity="1"><g transform="translate(491.764831, 686.263409)"><g><path d="M 4.609375 -84.71875 L 33.082031 -84.71875 L 33.082031 -71.925781 L 17.058594 -71.925781 L 17.058594 -49.679688 L 28.585938 -49.679688 L 28.585938 -36.078125 L 17.058594 -36.078125 L 17.058594 -12.792969 L 33.082031 -12.792969 L 33.082031 0 L 4.609375 0 Z M 4.609375 -84.71875 "/></g></g></g><g fill="#19a7ce" fill-opacity="1"><g transform="translate(527.14828, 686.263409)"><g><path d="M 17.75 -44.144531 L 16.714844 -48.066406 L 16.023438 -48.066406 L 16.023438 0 L 4.609375 0 L 4.609375 -84.71875 L 15.675781 -84.71875 L 27.777344 -40.574219 L 28.816406 -36.652344 L 29.507812 -36.652344 L 29.507812 -84.71875 L 40.917969 -84.71875 L 40.917969 0 L 29.851562 0 Z M 17.75 -44.144531 "/></g></g></g><g fill="#19a7ce" fill-opacity="1"><g transform="translate(572.674219, 686.263409)"><g><path d="M 37 -29.046875 L 37 -17.40625 C 36.882812 -13.945312 36.191406 -10.835938 34.925781 -8.183594 C 33.886719 -5.878906 32.273438 -3.6875 29.96875 -1.960938 C 27.664062 -0.117188 24.550781 0.921875 20.402344 0.921875 C 16.253906 0.921875 13.023438 -0.117188 10.71875 -1.960938 C 8.414062 -3.6875 6.914062 -5.878906 5.878906 -8.183594 C 4.609375 -10.835938 3.917969 -13.945312 3.804688 -17.40625 L 3.804688 -67.3125 C 3.917969 -70.65625 4.609375 -73.769531 5.878906 -76.417969 C 6.914062 -78.726562 8.414062 -81.03125 10.71875 -82.757812 C 13.023438 -84.488281 16.253906 -85.640625 20.402344 -85.640625 C 24.550781 -85.640625 27.664062 -84.488281 29.96875 -82.757812 C 32.273438 -81.03125 33.886719 -78.726562 34.925781 -76.417969 C 36.191406 -73.769531 36.882812 -70.65625 37 -67.3125 L 37 -55.671875 L 25.359375 -55.671875 L 25.359375 -67.3125 C 25.359375 -69.617188 24.78125 -71.234375 23.511719 -72.617188 C 22.9375 -73.191406 21.898438 -73.539062 20.632812 -73.539062 C 18.441406 -73.539062 17.40625 -71.925781 16.828125 -70.425781 C 16.484375 -69.503906 16.367188 -68.464844 16.253906 -67.3125 L 16.253906 -17.40625 C 16.367188 -14.984375 17.058594 -13.371094 18.210938 -12.101562 C 18.789062 -11.527344 19.59375 -11.179688 20.632812 -11.179688 C 23.28125 -11.179688 24.320312 -12.5625 24.898438 -14.292969 C 25.242188 -15.097656 25.359375 -16.136719 25.359375 -17.40625 L 25.359375 -29.046875 Z M 37 -29.046875 "/></g></g></g><g fill="#19a7ce" fill-opacity="1"><g transform="translate(612.552632, 686.263409)"><g><path d="M 4.609375 -84.71875 L 33.082031 -84.71875 L 33.082031 -71.925781 L 17.058594 -71.925781 L 17.058594 -49.679688 L 28.585938 -49.679688 L 28.585938 -36.078125 L 17.058594 -36.078125 L 17.058594 -12.792969 L 33.082031 -12.792969 L 33.082031 0 L 4.609375 0 Z M 4.609375 -84.71875 "/></g></g></g><g fill="#19a7ce" fill-opacity="1"><g transform="translate(647.936081, 686.263409)"><g><path d="M 2.996094 -12.792969 L 15.097656 -12.792969 L 15.097656 0 L 2.996094 0 Z M 2.996094 -12.792969 "/></g></g></g><g clip-path="url(#0b83b0e9e5)"><path fill="#19a7ce" d="M 728.144531 936.730469 C 724.789062 933.207031 721.4375 929.683594 718.082031 926.160156 L 708.042969 936.726562 C 707.929688 936.847656 707.757812 936.882812 707.605469 936.824219 C 707.457031 936.761719 707.355469 936.617188 707.355469 936.453125 L 707.355469 911.488281 C 707.355469 911.269531 707.535156 911.09375 707.753906 911.09375 L 728.433594 911.09375 C 728.652344 911.09375 728.832031 911.269531 728.832031 911.488281 L 728.832031 936.453125 C 728.832031 936.617188 728.734375 936.761719 728.582031 936.824219 C 728.429688 936.882812 728.257812 936.847656 728.144531 936.730469 Z M 728.144531 936.730469 " fill-opacity="1" fill-rule="nonzero"/></g><g clip-path="url(#63875c7315)"><g clip-path="url(#b469fe3fed)"><path stroke-linecap="butt" transform="matrix(0.74963, 0, 0, 0.74963, 620.694348, 80.960014)" fill="none" stroke-linejoin="miter" d="M 131.128518 0.00123198 C 138.376888 0.00123198 144.260001 5.879134 144.260001 13.132714 C 144.260001 20.386295 138.376888 26.264197 131.128518 26.264197 L 13.132769 26.264197 C 5.879188 26.264197 0.00128662 20.386295 0.00128662 13.132714 C 0.00128662 5.879134 5.879188 0.00123198 13.132769 0.00123198 Z M 131.128518 0.00123198 " stroke="#146c94" stroke-width="2" stroke-opacity="1" stroke-miterlimit="4"/></g></g><g clip-path="url(#64f6d7afb6)"><path fill="#19a7ce" d="M 683.285156 90.335938 L 683.277344 90.335938 C 683.046875 90.367188 683.050781 90.59375 683.105469 90.785156 C 683.085938 90.910156 683.109375 91.023438 683.21875 91.066406 C 683.222656 91.082031 683.230469 91.085938 683.230469 91.085938 C 683.253906 91.089844 683.277344 91.089844 683.296875 91.085938 C 683.3125 91.085938 683.324219 91.085938 683.339844 91.085938 C 683.808594 91.082031 686.21875 91.050781 686.621094 91.0625 C 688.472656 91.128906 690.5625 91.230469 692.414062 91.234375 C 698.34375 91.25 704.316406 91.238281 710.324219 91.21875 C 712.140625 91.214844 713.882812 91.246094 715.695312 91.222656 C 716.113281 91.21875 716.757812 91.257812 717.023438 91.277344 C 717.042969 91.28125 717.0625 91.285156 717.085938 91.285156 C 717.289062 91.296875 717.382812 91.242188 717.386719 91.238281 C 717.472656 91.1875 717.515625 91.121094 717.539062 91.070312 C 717.578125 90.984375 717.582031 90.898438 717.558594 90.8125 C 717.546875 90.765625 717.507812 90.613281 717.300781 90.550781 C 717.292969 90.546875 717.269531 90.542969 717.230469 90.535156 C 717.125 90.523438 716.257812 90.460938 715.683594 90.46875 C 713.875 90.492188 712.132812 90.457031 710.324219 90.464844 C 704.316406 90.484375 698.34375 90.496094 692.417969 90.480469 C 690.570312 90.472656 688.492188 90.375 686.644531 90.308594 C 686.242188 90.296875 683.804688 90.328125 683.328125 90.332031 C 683.3125 90.332031 683.300781 90.335938 683.285156 90.335938 Z M 683.285156 90.335938 " fill-opacity="1" fill-rule="evenodd"/></g><g clip-path="url(#6c1169795b)"><path fill="#19a7ce" d="M 712.421875 87.726562 C 713.011719 88.070312 715.726562 89.777344 716.910156 90.640625 C 716.992188 90.699219 717.070312 90.761719 717.140625 90.820312 C 717.085938 90.863281 717.042969 90.902344 717.03125 90.910156 C 715.902344 91.691406 713.613281 93.210938 712.554688 93.910156 C 712.378906 94.023438 712.332031 94.257812 712.445312 94.429688 C 712.558594 94.605469 712.792969 94.652344 712.96875 94.539062 C 714.03125 93.839844 716.328125 92.3125 717.460938 91.53125 C 717.5 91.503906 717.699219 91.347656 717.832031 91.222656 C 717.925781 91.136719 717.992188 91.050781 718.015625 91.003906 C 718.097656 90.847656 718.0625 90.71875 718.023438 90.636719 C 718 90.589844 717.953125 90.523438 717.871094 90.441406 C 717.769531 90.347656 717.589844 90.203125 717.355469 90.03125 C 716.097656 89.113281 713.144531 87.265625 712.71875 87.03125 C 712.582031 86.953125 712.480469 86.960938 712.464844 86.960938 C 712.28125 86.972656 712.195312 87.074219 712.148438 87.171875 C 712.136719 87.195312 712.019531 87.464844 712.296875 87.667969 C 712.332031 87.695312 712.375 87.714844 712.421875 87.726562 Z M 712.421875 87.726562 " fill-opacity="1" fill-rule="evenodd"/></g><g clip-path="url(#df31503281)"><path fill="#146c94" d="M 464.039062 701.195312 C 464.882812 701.054688 465.746094 700.933594 466.589844 700.792969 C 471.113281 700.039062 475.652344 699.300781 480.175781 698.5 C 483.839844 697.855469 487.484375 697.101562 491.144531 696.378906 C 495.5625 695.515625 499.960938 694.640625 504.375 693.761719 C 510.761719 692.5 517.128906 691.195312 523.53125 690.007812 C 527.714844 689.238281 531.929688 688.6875 536.113281 687.992188 C 541.207031 687.148438 546.285156 686.222656 551.375 685.363281 C 556.992188 684.425781 562.605469 683.515625 568.222656 682.609375 L 579.546875 680.761719 C 580.34375 680.640625 581.128906 680.410156 581.929688 680.378906 C 584.851562 680.253906 586.332031 682.363281 585.285156 684.671875 C 584.421875 686.59375 583.238281 688.378906 582.144531 690.195312 C 580.976562 692.148438 579.730469 694.070312 578.53125 696.007812 L 578.824219 696.546875 C 580.667969 696.148438 582.53125 695.746094 584.375 695.363281 C 590.070312 694.179688 595.730469 692.902344 601.4375 691.855469 C 606.5625 690.917969 611.746094 690.238281 616.898438 689.441406 C 621.777344 688.6875 626.636719 687.933594 631.515625 687.195312 C 636.5625 686.425781 641.621094 685.6875 646.683594 684.933594 C 651.515625 684.207031 656.34375 683.453125 661.175781 682.761719 C 662.5625 682.5625 664.070312 683.777344 664.222656 685.070312 C 664.390625 686.5 663.46875 687.746094 661.882812 687.992188 C 656.730469 688.777344 651.5625 689.453125 646.40625 690.269531 C 637.867188 691.59375 629.359375 693.023438 620.824219 694.332031 C 614.5625 695.285156 608.238281 695.949219 602.007812 697.007812 C 596.285156 697.992188 590.621094 699.347656 584.929688 700.5 C 581.605469 701.179688 578.285156 701.886719 574.929688 702.378906 C 573.5625 702.578125 571.976562 702.148438 571.605469 700.546875 C 571.359375 699.515625 571.5 698.164062 571.992188 697.238281 C 573.667969 694.179688 575.605469 691.238281 577.40625 688.238281 C 577.699219 687.761719 577.851562 687.207031 578.144531 686.46875 C 574.578125 686.960938 571.222656 687.332031 567.898438 687.886719 C 561.605469 688.949219 555.359375 690.195312 549.070312 691.238281 C 540.867188 692.609375 532.636719 693.761719 524.453125 695.179688 C 519.652344 696.007812 514.929688 697.222656 510.144531 698.164062 C 502.730469 699.609375 495.332031 701.039062 487.882812 702.347656 C 482.960938 703.207031 477.960938 703.746094 473.023438 704.578125 C 469.839844 705.101562 466.699219 705.839844 463.546875 706.515625 C 460.730469 707.117188 458.128906 706.238281 457.4375 704.222656 C 456.714844 702.117188 457.808594 700.300781 459.070312 698.824219 C 461.054688 696.5 463.332031 694.441406 465.453125 692.238281 C 467.191406 690.484375 468.882812 688.714844 470.546875 686.917969 C 471.375 686.007812 472.128906 685.039062 473.085938 683.917969 C 468.621094 684.515625 464.46875 684.992188 460.359375 685.640625 C 455.316406 686.441406 450.269531 687.363281 445.238281 688.269531 C 437.929688 689.59375 430.605469 690.871094 423.316406 692.300781 C 419.714844 693.007812 416.191406 694.148438 412.605469 694.960938 C 407.621094 696.101562 402.59375 697.101562 397.605469 698.222656 C 393.40625 699.164062 389.222656 700.222656 385.023438 701.195312 C 380.699219 702.195312 376.375 703.148438 372.054688 704.148438 C 367.578125 705.179688 363.085938 706.238281 358.605469 707.269531 C 353.976562 708.332031 349.332031 709.378906 344.683594 710.410156 C 344.285156 710.5 343.867188 710.515625 343.46875 710.441406 C 342.253906 710.222656 340.914062 710.039062 341.039062 708.363281 C 341.144531 706.871094 342.347656 707.023438 343.46875 706.777344 C 346.375 706.164062 349.222656 705.222656 352.113281 704.484375 C 358.46875 702.855469 364.824219 701.269531 371.175781 699.699219 C 377.34375 698.179688 383.53125 696.671875 389.714844 695.207031 C 393.222656 694.378906 396.777344 693.671875 400.300781 692.871094 C 406.007812 691.5625 411.683594 690.101562 417.421875 688.902344 C 422.359375 687.871094 427.359375 687.117188 432.316406 686.195312 C 436.699219 685.378906 441.054688 684.441406 445.453125 683.65625 C 451.714844 682.546875 457.976562 681.53125 464.253906 680.46875 C 468.683594 679.714844 473.097656 678.917969 477.53125 678.179688 C 480.238281 677.730469 481.808594 679.546875 480.652344 682.023438 C 479.839844 683.761719 478.621094 685.363281 477.40625 686.871094 C 475.929688 688.699219 474.300781 690.410156 472.683594 692.101562 C 470.777344 694.101562 468.824219 696.054688 466.851562 698.023438 C 465.898438 698.976562 464.882812 699.902344 463.898438 700.839844 Z M 464.039062 701.195312 " fill-opacity="1" fill-rule="nonzero"/></g><g fill="#19a7ce" fill-opacity="1"><g transform="translate(81.159927, 93.803683)"><g><path d="M 3.296875 -8.25 L 0.0625 -8.25 L 0.0625 -9.796875 L 8.359375 -9.796875 L 8.359375 -8.25 L 5.125 -8.25 L 5.125 0 L 3.296875 0 Z M 3.296875 -8.25 "/></g></g></g><g fill="#19a7ce" fill-opacity="1"><g transform="translate(89.579067, 93.803683)"><g><path d="M 5.390625 -7.546875 C 6.328125 -7.546875 7.078125 -7.269531 7.640625 -6.71875 C 8.210938 -6.175781 8.5 -5.363281 8.5 -4.28125 L 8.5 0 L 6.75 0 L 6.75 -4.0625 C 6.75 -4.707031 6.59375 -5.195312 6.28125 -5.53125 C 5.976562 -5.863281 5.546875 -6.03125 4.984375 -6.03125 C 4.335938 -6.03125 3.828125 -5.832031 3.453125 -5.4375 C 3.078125 -5.050781 2.890625 -4.5 2.890625 -3.78125 L 2.890625 0 L 1.140625 0 L 1.140625 -10.375 L 2.890625 -10.375 L 2.890625 -6.59375 C 3.179688 -6.90625 3.535156 -7.140625 3.953125 -7.296875 C 4.378906 -7.460938 4.859375 -7.546875 5.390625 -7.546875 Z M 5.390625 -7.546875 "/></g></g></g><g fill="#19a7ce" fill-opacity="1"><g transform="translate(99.158991, 93.803683)"><g><path d="M 8.140625 -7.46875 L 4.640625 0.59375 C 4.316406 1.40625 3.921875 1.976562 3.453125 2.3125 C 2.984375 2.644531 2.421875 2.8125 1.765625 2.8125 C 1.390625 2.8125 1.019531 2.75 0.65625 2.625 C 0.289062 2.507812 -0.00390625 2.34375 -0.234375 2.125 L 0.46875 0.84375 C 0.632812 1 0.832031 1.125 1.0625 1.21875 C 1.289062 1.3125 1.519531 1.359375 1.75 1.359375 C 2.050781 1.359375 2.300781 1.273438 2.5 1.109375 C 2.707031 0.953125 2.894531 0.691406 3.0625 0.328125 L 3.1875 0.03125 L -0.0625 -7.46875 L 1.75 -7.46875 L 4.09375 -1.9375 L 6.453125 -7.46875 Z M 8.140625 -7.46875 "/></g></g></g><g fill="#19a7ce" fill-opacity="1"><g transform="translate(107.242481, 93.803683)"><g><path d="M 5.390625 -7.546875 C 6.328125 -7.546875 7.078125 -7.269531 7.640625 -6.71875 C 8.210938 -6.175781 8.5 -5.363281 8.5 -4.28125 L 8.5 0 L 6.75 0 L 6.75 -4.0625 C 6.75 -4.707031 6.59375 -5.195312 6.28125 -5.53125 C 5.976562 -5.863281 5.546875 -6.03125 4.984375 -6.03125 C 4.335938 -6.03125 3.828125 -5.832031 3.453125 -5.4375 C 3.078125 -5.050781 2.890625 -4.5 2.890625 -3.78125 L 2.890625 0 L 1.140625 0 L 1.140625 -7.46875 L 2.8125 -7.46875 L 2.8125 -6.5 C 3.101562 -6.84375 3.46875 -7.101562 3.90625 -7.28125 C 4.34375 -7.457031 4.835938 -7.546875 5.390625 -7.546875 Z M 5.390625 -7.546875 "/></g></g></g><g fill="#19a7ce" fill-opacity="1"><g transform="translate(116.822405, 93.803683)"><g><path d="M 4.203125 -3.203125 L 2.890625 -1.96875 L 2.890625 0 L 1.140625 0 L 1.140625 -10.375 L 2.890625 -10.375 L 2.890625 -4.109375 L 6.515625 -7.46875 L 8.609375 -7.46875 L 5.5 -4.328125 L 8.90625 0 L 6.78125 0 Z M 4.203125 -3.203125 "/></g></g></g><g fill="#19a7ce" fill-opacity="1"><g transform="translate(125.717041, 93.803683)"><g/></g></g><g fill="#19a7ce" fill-opacity="1"><g transform="translate(129.576978, 93.803683)"><g><path d="M 5.53125 0.140625 C 4.175781 0.140625 3.117188 -0.238281 2.359375 -1 C 1.609375 -1.757812 1.234375 -2.847656 1.234375 -4.265625 L 1.234375 -9.796875 L 3.046875 -9.796875 L 3.046875 -4.328125 C 3.046875 -2.410156 3.875 -1.453125 5.53125 -1.453125 C 7.1875 -1.453125 8.015625 -2.410156 8.015625 -4.328125 L 8.015625 -9.796875 L 9.796875 -9.796875 L 9.796875 -4.265625 C 9.796875 -2.847656 9.421875 -1.757812 8.671875 -1 C 7.921875 -0.238281 6.875 0.140625 5.53125 0.140625 Z M 5.53125 0.140625 "/></g></g></g><g fill="#19a7ce" fill-opacity="1"><g transform="translate(140.611369, 93.803683)"><g><path d="M 5.390625 -7.546875 C 6.328125 -7.546875 7.078125 -7.269531 7.640625 -6.71875 C 8.210938 -6.175781 8.5 -5.363281 8.5 -4.28125 L 8.5 0 L 6.75 0 L 6.75 -4.0625 C 6.75 -4.707031 6.59375 -5.195312 6.28125 -5.53125 C 5.976562 -5.863281 5.546875 -6.03125 4.984375 -6.03125 C 4.335938 -6.03125 3.828125 -5.832031 3.453125 -5.4375 C 3.078125 -5.050781 2.890625 -4.5 2.890625 -3.78125 L 2.890625 0 L 1.140625 0 L 1.140625 -7.46875 L 2.8125 -7.46875 L 2.8125 -6.5 C 3.101562 -6.84375 3.46875 -7.101562 3.90625 -7.28125 C 4.34375 -7.457031 4.835938 -7.546875 5.390625 -7.546875 Z M 5.390625 -7.546875 "/></g></g></g><g fill="#19a7ce" fill-opacity="1"><g transform="translate(150.191293, 93.803683)"><g><path d="M 1.140625 -10.375 L 2.890625 -10.375 L 2.890625 0 L 1.140625 0 Z M 1.140625 -10.375 "/></g></g></g><g fill="#19a7ce" fill-opacity="1"><g transform="translate(154.233044, 93.803683)"><g><path d="M 1.140625 -7.46875 L 2.890625 -7.46875 L 2.890625 0 L 1.140625 0 Z M 2.015625 -8.703125 C 1.703125 -8.703125 1.4375 -8.800781 1.21875 -9 C 1.007812 -9.195312 0.90625 -9.445312 0.90625 -9.75 C 0.90625 -10.039062 1.007812 -10.285156 1.21875 -10.484375 C 1.4375 -10.691406 1.703125 -10.796875 2.015625 -10.796875 C 2.335938 -10.796875 2.601562 -10.695312 2.8125 -10.5 C 3.03125 -10.3125 3.140625 -10.078125 3.140625 -9.796875 C 3.140625 -9.484375 3.035156 -9.222656 2.828125 -9.015625 C 2.617188 -8.804688 2.347656 -8.703125 2.015625 -8.703125 Z M 2.015625 -8.703125 "/></g></g></g><g fill="#19a7ce" fill-opacity="1"><g transform="translate(158.274794, 93.803683)"><g><path d="M 10.578125 -7.546875 C 11.515625 -7.546875 12.257812 -7.273438 12.8125 -6.734375 C 13.363281 -6.191406 13.640625 -5.375 13.640625 -4.28125 L 13.640625 0 L 11.890625 0 L 11.890625 -4.0625 C 11.890625 -4.707031 11.742188 -5.195312 11.453125 -5.53125 C 11.160156 -5.863281 10.742188 -6.03125 10.203125 -6.03125 C 9.617188 -6.03125 9.148438 -5.832031 8.796875 -5.4375 C 8.441406 -5.050781 8.265625 -4.503906 8.265625 -3.796875 L 8.265625 0 L 6.515625 0 L 6.515625 -4.0625 C 6.515625 -4.707031 6.367188 -5.195312 6.078125 -5.53125 C 5.796875 -5.863281 5.382812 -6.03125 4.84375 -6.03125 C 4.238281 -6.03125 3.757812 -5.835938 3.40625 -5.453125 C 3.0625 -5.066406 2.890625 -4.515625 2.890625 -3.796875 L 2.890625 0 L 1.140625 0 L 1.140625 -7.46875 L 2.8125 -7.46875 L 2.8125 -6.515625 C 3.09375 -6.847656 3.441406 -7.101562 3.859375 -7.28125 C 4.273438 -7.457031 4.742188 -7.546875 5.265625 -7.546875 C 5.816406 -7.546875 6.304688 -7.441406 6.734375 -7.234375 C 7.171875 -7.023438 7.519531 -6.71875 7.78125 -6.3125 C 8.082031 -6.695312 8.472656 -7 8.953125 -7.21875 C 9.441406 -7.4375 9.984375 -7.546875 10.578125 -7.546875 Z M 10.578125 -7.546875 "/></g></g></g><g fill="#19a7ce" fill-opacity="1"><g transform="translate(173.001297, 93.803683)"><g><path d="M 1.140625 -7.46875 L 2.890625 -7.46875 L 2.890625 0 L 1.140625 0 Z M 2.015625 -8.703125 C 1.703125 -8.703125 1.4375 -8.800781 1.21875 -9 C 1.007812 -9.195312 0.90625 -9.445312 0.90625 -9.75 C 0.90625 -10.039062 1.007812 -10.285156 1.21875 -10.484375 C 1.4375 -10.691406 1.703125 -10.796875 2.015625 -10.796875 C 2.335938 -10.796875 2.601562 -10.695312 2.8125 -10.5 C 3.03125 -10.3125 3.140625 -10.078125 3.140625 -9.796875 C 3.140625 -9.484375 3.035156 -9.222656 2.828125 -9.015625 C 2.617188 -8.804688 2.347656 -8.703125 2.015625 -8.703125 Z M 2.015625 -8.703125 "/></g></g></g><g fill="#19a7ce" fill-opacity="1"><g transform="translate(177.043048, 93.803683)"><g><path d="M 5.640625 -0.40625 C 5.429688 -0.238281 5.179688 -0.113281 4.890625 -0.03125 C 4.597656 0.0507812 4.285156 0.09375 3.953125 0.09375 C 3.140625 0.09375 2.507812 -0.117188 2.0625 -0.546875 C 1.613281 -0.972656 1.390625 -1.597656 1.390625 -2.421875 L 1.390625 -6.015625 L 0.15625 -6.015625 L 0.15625 -7.40625 L 1.390625 -7.40625 L 1.390625 -9.125 L 3.125 -9.125 L 3.125 -7.40625 L 5.125 -7.40625 L 5.125 -6.015625 L 3.125 -6.015625 L 3.125 -2.46875 C 3.125 -2.101562 3.210938 -1.820312 3.390625 -1.625 C 3.566406 -1.4375 3.828125 -1.34375 4.171875 -1.34375 C 4.554688 -1.34375 4.878906 -1.445312 5.140625 -1.65625 Z M 5.640625 -0.40625 "/></g></g></g><g fill="#19a7ce" fill-opacity="1"><g transform="translate(182.972805, 93.803683)"><g><path d="M 8.171875 -3.6875 C 8.171875 -3.570312 8.160156 -3.398438 8.140625 -3.171875 L 2.28125 -3.171875 C 2.382812 -2.617188 2.648438 -2.179688 3.078125 -1.859375 C 3.515625 -1.546875 4.054688 -1.390625 4.703125 -1.390625 C 5.515625 -1.390625 6.1875 -1.660156 6.71875 -2.203125 L 7.65625 -1.125 C 7.320312 -0.71875 6.898438 -0.410156 6.390625 -0.203125 C 5.878906 -0.00390625 5.300781 0.09375 4.65625 0.09375 C 3.832031 0.09375 3.109375 -0.0664062 2.484375 -0.390625 C 1.859375 -0.710938 1.375 -1.164062 1.03125 -1.75 C 0.695312 -2.332031 0.53125 -2.992188 0.53125 -3.734375 C 0.53125 -4.460938 0.695312 -5.117188 1.03125 -5.703125 C 1.363281 -6.285156 1.820312 -6.738281 2.40625 -7.0625 C 2.988281 -7.382812 3.648438 -7.546875 4.390625 -7.546875 C 5.117188 -7.546875 5.769531 -7.382812 6.34375 -7.0625 C 6.914062 -6.75 7.363281 -6.300781 7.6875 -5.71875 C 8.007812 -5.132812 8.171875 -4.457031 8.171875 -3.6875 Z M 4.390625 -6.15625 C 3.828125 -6.15625 3.351562 -5.988281 2.96875 -5.65625 C 2.582031 -5.320312 2.347656 -4.878906 2.265625 -4.328125 L 6.5 -4.328125 C 6.425781 -4.867188 6.195312 -5.304688 5.8125 -5.640625 C 5.4375 -5.984375 4.960938 -6.15625 4.390625 -6.15625 Z M 4.390625 -6.15625 "/></g></g></g><g fill="#19a7ce" fill-opacity="1"><g transform="translate(191.671649, 93.803683)"><g><path d="M 8.453125 -10.375 L 8.453125 0 L 6.78125 0 L 6.78125 -0.96875 C 6.488281 -0.613281 6.128906 -0.347656 5.703125 -0.171875 C 5.285156 0.00390625 4.820312 0.09375 4.3125 0.09375 C 3.59375 0.09375 2.945312 -0.0625 2.375 -0.375 C 1.800781 -0.695312 1.347656 -1.144531 1.015625 -1.71875 C 0.691406 -2.300781 0.53125 -2.972656 0.53125 -3.734375 C 0.53125 -4.484375 0.691406 -5.144531 1.015625 -5.71875 C 1.347656 -6.300781 1.800781 -6.75 2.375 -7.0625 C 2.945312 -7.382812 3.59375 -7.546875 4.3125 -7.546875 C 4.800781 -7.546875 5.25 -7.460938 5.65625 -7.296875 C 6.070312 -7.128906 6.425781 -6.878906 6.71875 -6.546875 L 6.71875 -10.375 Z M 4.515625 -1.40625 C 4.929688 -1.40625 5.304688 -1.5 5.640625 -1.6875 C 5.984375 -1.875 6.25 -2.144531 6.4375 -2.5 C 6.632812 -2.851562 6.734375 -3.265625 6.734375 -3.734375 C 6.734375 -4.203125 6.632812 -4.613281 6.4375 -4.96875 C 6.25 -5.320312 5.984375 -5.59375 5.640625 -5.78125 C 5.304688 -5.96875 4.929688 -6.0625 4.515625 -6.0625 C 4.097656 -6.0625 3.71875 -5.96875 3.375 -5.78125 C 3.039062 -5.59375 2.773438 -5.320312 2.578125 -4.96875 C 2.390625 -4.613281 2.296875 -4.203125 2.296875 -3.734375 C 2.296875 -3.265625 2.390625 -2.851562 2.578125 -2.5 C 2.773438 -2.144531 3.039062 -1.875 3.375 -1.6875 C 3.71875 -1.5 4.097656 -1.40625 4.515625 -1.40625 Z M 4.515625 -1.40625 "/></g></g></g><g fill="#19a7ce" fill-opacity="1"><g transform="translate(81.159927, 928.391461)"><g><path d="M 10.046875 -5.859375 L 7.890625 0 L 6.5625 0 L 5.046875 -4.046875 L 3.515625 0 L 2.203125 0 L 0.046875 -5.859375 L 1.34375 -5.859375 L 2.890625 -1.53125 L 4.5 -5.859375 L 5.65625 -5.859375 L 7.234375 -1.515625 L 8.828125 -5.859375 Z M 10.046875 -5.859375 "/></g></g></g><g fill="#19a7ce" fill-opacity="1"><g transform="translate(91.2568, 928.391461)"><g><path d="M 10.046875 -5.859375 L 7.890625 0 L 6.5625 0 L 5.046875 -4.046875 L 3.515625 0 L 2.203125 0 L 0.046875 -5.859375 L 1.34375 -5.859375 L 2.890625 -1.53125 L 4.5 -5.859375 L 5.65625 -5.859375 L 7.234375 -1.515625 L 8.828125 -5.859375 Z M 10.046875 -5.859375 "/></g></g></g><g fill="#19a7ce" fill-opacity="1"><g transform="translate(101.353674, 928.391461)"><g><path d="M 10.046875 -5.859375 L 7.890625 0 L 6.5625 0 L 5.046875 -4.046875 L 3.515625 0 L 2.203125 0 L 0.046875 -5.859375 L 1.34375 -5.859375 L 2.890625 -1.53125 L 4.5 -5.859375 L 5.65625 -5.859375 L 7.234375 -1.515625 L 8.828125 -5.859375 Z M 10.046875 -5.859375 "/></g></g></g><g fill="#19a7ce" fill-opacity="1"><g transform="translate(111.450547, 928.391461)"><g><path d="M 1.34375 0.078125 C 1.09375 0.078125 0.878906 -0.00390625 0.703125 -0.171875 C 0.523438 -0.347656 0.4375 -0.566406 0.4375 -0.828125 C 0.4375 -1.097656 0.519531 -1.316406 0.6875 -1.484375 C 0.863281 -1.660156 1.082031 -1.75 1.34375 -1.75 C 1.59375 -1.75 1.800781 -1.660156 1.96875 -1.484375 C 2.144531 -1.316406 2.234375 -1.097656 2.234375 -0.828125 C 2.234375 -0.566406 2.144531 -0.347656 1.96875 -0.171875 C 1.800781 -0.00390625 1.59375 0.078125 1.34375 0.078125 Z M 1.34375 0.078125 "/></g></g></g><g fill="#19a7ce" fill-opacity="1"><g transform="translate(114.131329, 928.391461)"><g><path d="M 2.203125 -5.015625 C 2.597656 -5.628906 3.296875 -5.9375 4.296875 -5.9375 L 4.296875 -4.625 C 4.179688 -4.644531 4.070312 -4.65625 3.96875 -4.65625 C 3.4375 -4.65625 3.019531 -4.5 2.71875 -4.1875 C 2.425781 -3.875 2.28125 -3.425781 2.28125 -2.84375 L 2.28125 0 L 0.90625 0 L 0.90625 -5.859375 L 2.203125 -5.859375 Z M 2.203125 -5.015625 "/></g></g></g><g fill="#19a7ce" fill-opacity="1"><g transform="translate(118.745791, 928.391461)"><g><path d="M 6.421875 -2.90625 C 6.421875 -2.800781 6.410156 -2.664062 6.390625 -2.5 L 1.796875 -2.5 C 1.867188 -2.0625 2.078125 -1.71875 2.421875 -1.46875 C 2.765625 -1.21875 3.1875 -1.09375 3.6875 -1.09375 C 4.332031 -1.09375 4.863281 -1.300781 5.28125 -1.71875 L 6.015625 -0.875 C 5.753906 -0.5625 5.421875 -0.320312 5.015625 -0.15625 C 4.617188 0 4.164062 0.078125 3.65625 0.078125 C 3.007812 0.078125 2.441406 -0.046875 1.953125 -0.296875 C 1.460938 -0.554688 1.082031 -0.914062 0.8125 -1.375 C 0.550781 -1.832031 0.421875 -2.351562 0.421875 -2.9375 C 0.421875 -3.507812 0.550781 -4.019531 0.8125 -4.46875 C 1.070312 -4.925781 1.429688 -5.285156 1.890625 -5.546875 C 2.347656 -5.804688 2.867188 -5.9375 3.453125 -5.9375 C 4.023438 -5.9375 4.535156 -5.804688 4.984375 -5.546875 C 5.429688 -5.296875 5.78125 -4.941406 6.03125 -4.484375 C 6.289062 -4.023438 6.421875 -3.5 6.421875 -2.90625 Z M 3.453125 -4.828125 C 3.015625 -4.828125 2.640625 -4.695312 2.328125 -4.4375 C 2.023438 -4.175781 1.84375 -3.832031 1.78125 -3.40625 L 5.109375 -3.40625 C 5.046875 -3.832031 4.863281 -4.175781 4.5625 -4.4375 C 4.269531 -4.695312 3.898438 -4.828125 3.453125 -4.828125 Z M 3.453125 -4.828125 "/></g></g></g><g fill="#19a7ce" fill-opacity="1"><g transform="translate(125.579585, 928.391461)"><g><path d="M 3.140625 -5.9375 C 4.003906 -5.9375 4.664062 -5.726562 5.125 -5.3125 C 5.582031 -4.894531 5.8125 -4.269531 5.8125 -3.4375 L 5.8125 0 L 4.515625 0 L 4.515625 -0.71875 C 4.347656 -0.457031 4.109375 -0.257812 3.796875 -0.125 C 3.484375 0.0078125 3.109375 0.078125 2.671875 0.078125 C 2.234375 0.078125 1.847656 0.00390625 1.515625 -0.140625 C 1.179688 -0.296875 0.925781 -0.503906 0.75 -0.765625 C 0.570312 -1.035156 0.484375 -1.34375 0.484375 -1.6875 C 0.484375 -2.207031 0.675781 -2.625 1.0625 -2.9375 C 1.457031 -3.257812 2.078125 -3.421875 2.921875 -3.421875 L 4.4375 -3.421875 L 4.4375 -3.515625 C 4.4375 -3.921875 4.3125 -4.234375 4.0625 -4.453125 C 3.820312 -4.679688 3.460938 -4.796875 2.984375 -4.796875 C 2.648438 -4.796875 2.320312 -4.742188 2 -4.640625 C 1.6875 -4.535156 1.421875 -4.390625 1.203125 -4.203125 L 0.65625 -5.203125 C 0.96875 -5.441406 1.335938 -5.625 1.765625 -5.75 C 2.203125 -5.875 2.660156 -5.9375 3.140625 -5.9375 Z M 2.953125 -0.921875 C 3.296875 -0.921875 3.597656 -1 3.859375 -1.15625 C 4.128906 -1.3125 4.320312 -1.535156 4.4375 -1.828125 L 4.4375 -2.515625 L 3.015625 -2.515625 C 2.222656 -2.515625 1.828125 -2.253906 1.828125 -1.734375 C 1.828125 -1.484375 1.925781 -1.285156 2.125 -1.140625 C 2.320312 -0.992188 2.597656 -0.921875 2.953125 -0.921875 Z M 2.953125 -0.921875 "/></g></g></g><g fill="#19a7ce" fill-opacity="1"><g transform="translate(132.248575, 928.391461)"><g><path d="M 0.90625 -8.15625 L 2.28125 -8.15625 L 2.28125 0 L 0.90625 0 Z M 0.90625 -8.15625 "/></g></g></g><g fill="#19a7ce" fill-opacity="1"><g transform="translate(135.423761, 928.391461)"><g><path d="M 0.90625 -8.15625 L 2.28125 -8.15625 L 2.28125 0 L 0.90625 0 Z M 0.90625 -8.15625 "/></g></g></g><g fill="#19a7ce" fill-opacity="1"><g transform="translate(138.598946, 928.391461)"><g><path d="M 6.390625 -5.859375 L 3.640625 0.46875 C 3.390625 1.101562 3.078125 1.550781 2.703125 1.8125 C 2.335938 2.070312 1.898438 2.203125 1.390625 2.203125 C 1.085938 2.203125 0.796875 2.15625 0.515625 2.0625 C 0.234375 1.96875 0 1.835938 -0.1875 1.671875 L 0.359375 0.65625 C 0.492188 0.78125 0.648438 0.878906 0.828125 0.953125 C 1.003906 1.023438 1.1875 1.0625 1.375 1.0625 C 1.613281 1.0625 1.8125 1 1.96875 0.875 C 2.125 0.75 2.269531 0.539062 2.40625 0.25 L 2.5 0.015625 L -0.0625 -5.859375 L 1.375 -5.859375 L 3.21875 -1.53125 L 5.078125 -5.859375 Z M 6.390625 -5.859375 "/></g></g></g><g fill="#19a7ce" fill-opacity="1"><g transform="translate(144.949318, 928.391461)"><g><path d="M 6.71875 -5.859375 L 6.71875 -0.890625 C 6.71875 1.171875 5.664062 2.203125 3.5625 2.203125 C 3 2.203125 2.460938 2.128906 1.953125 1.984375 C 1.453125 1.847656 1.035156 1.644531 0.703125 1.375 L 1.3125 0.34375 C 1.570312 0.550781 1.894531 0.71875 2.28125 0.84375 C 2.675781 0.976562 3.078125 1.046875 3.484375 1.046875 C 4.128906 1.046875 4.597656 0.898438 4.890625 0.609375 C 5.191406 0.316406 5.34375 -0.128906 5.34375 -0.734375 L 5.34375 -1.046875 C 5.113281 -0.785156 4.828125 -0.585938 4.484375 -0.453125 C 4.148438 -0.328125 3.785156 -0.265625 3.390625 -0.265625 C 2.828125 -0.265625 2.320312 -0.382812 1.875 -0.625 C 1.425781 -0.863281 1.070312 -1.195312 0.8125 -1.625 C 0.550781 -2.0625 0.421875 -2.554688 0.421875 -3.109375 C 0.421875 -3.660156 0.550781 -4.148438 0.8125 -4.578125 C 1.070312 -5.015625 1.425781 -5.347656 1.875 -5.578125 C 2.320312 -5.816406 2.828125 -5.9375 3.390625 -5.9375 C 3.804688 -5.9375 4.1875 -5.863281 4.53125 -5.71875 C 4.882812 -5.582031 5.179688 -5.367188 5.421875 -5.078125 L 5.421875 -5.859375 Z M 3.59375 -1.421875 C 4.113281 -1.421875 4.539062 -1.578125 4.875 -1.890625 C 5.207031 -2.203125 5.375 -2.609375 5.375 -3.109375 C 5.375 -3.597656 5.207031 -3.992188 4.875 -4.296875 C 4.539062 -4.609375 4.113281 -4.765625 3.59375 -4.765625 C 3.0625 -4.765625 2.628906 -4.609375 2.296875 -4.296875 C 1.960938 -3.992188 1.796875 -3.597656 1.796875 -3.109375 C 1.796875 -2.609375 1.960938 -2.203125 2.296875 -1.890625 C 2.628906 -1.578125 3.0625 -1.421875 3.59375 -1.421875 Z M 3.59375 -1.421875 "/></g></g></g><g fill="#19a7ce" fill-opacity="1"><g transform="translate(152.574161, 928.391461)"><g><path d="M 2.203125 -5.015625 C 2.597656 -5.628906 3.296875 -5.9375 4.296875 -5.9375 L 4.296875 -4.625 C 4.179688 -4.644531 4.070312 -4.65625 3.96875 -4.65625 C 3.4375 -4.65625 3.019531 -4.5 2.71875 -4.1875 C 2.425781 -3.875 2.28125 -3.425781 2.28125 -2.84375 L 2.28125 0 L 0.90625 0 L 0.90625 -5.859375 L 2.203125 -5.859375 Z M 2.203125 -5.015625 "/></g></g></g><g fill="#19a7ce" fill-opacity="1"><g transform="translate(157.188623, 928.391461)"><g><path d="M 6.421875 -2.90625 C 6.421875 -2.800781 6.410156 -2.664062 6.390625 -2.5 L 1.796875 -2.5 C 1.867188 -2.0625 2.078125 -1.71875 2.421875 -1.46875 C 2.765625 -1.21875 3.1875 -1.09375 3.6875 -1.09375 C 4.332031 -1.09375 4.863281 -1.300781 5.28125 -1.71875 L 6.015625 -0.875 C 5.753906 -0.5625 5.421875 -0.320312 5.015625 -0.15625 C 4.617188 0 4.164062 0.078125 3.65625 0.078125 C 3.007812 0.078125 2.441406 -0.046875 1.953125 -0.296875 C 1.460938 -0.554688 1.082031 -0.914062 0.8125 -1.375 C 0.550781 -1.832031 0.421875 -2.351562 0.421875 -2.9375 C 0.421875 -3.507812 0.550781 -4.019531 0.8125 -4.46875 C 1.070312 -4.925781 1.429688 -5.285156 1.890625 -5.546875 C 2.347656 -5.804688 2.867188 -5.9375 3.453125 -5.9375 C 4.023438 -5.9375 4.535156 -5.804688 4.984375 -5.546875 C 5.429688 -5.296875 5.78125 -4.941406 6.03125 -4.484375 C 6.289062 -4.023438 6.421875 -3.5 6.421875 -2.90625 Z M 3.453125 -4.828125 C 3.015625 -4.828125 2.640625 -4.695312 2.328125 -4.4375 C 2.023438 -4.175781 1.84375 -3.832031 1.78125 -3.40625 L 5.109375 -3.40625 C 5.046875 -3.832031 4.863281 -4.175781 4.5625 -4.4375 C 4.269531 -4.695312 3.898438 -4.828125 3.453125 -4.828125 Z M 3.453125 -4.828125 "/></g></g></g><g fill="#19a7ce" fill-opacity="1"><g transform="translate(164.022417, 928.391461)"><g><path d="M 3.140625 -5.9375 C 4.003906 -5.9375 4.664062 -5.726562 5.125 -5.3125 C 5.582031 -4.894531 5.8125 -4.269531 5.8125 -3.4375 L 5.8125 0 L 4.515625 0 L 4.515625 -0.71875 C 4.347656 -0.457031 4.109375 -0.257812 3.796875 -0.125 C 3.484375 0.0078125 3.109375 0.078125 2.671875 0.078125 C 2.234375 0.078125 1.847656 0.00390625 1.515625 -0.140625 C 1.179688 -0.296875 0.925781 -0.503906 0.75 -0.765625 C 0.570312 -1.035156 0.484375 -1.34375 0.484375 -1.6875 C 0.484375 -2.207031 0.675781 -2.625 1.0625 -2.9375 C 1.457031 -3.257812 2.078125 -3.421875 2.921875 -3.421875 L 4.4375 -3.421875 L 4.4375 -3.515625 C 4.4375 -3.921875 4.3125 -4.234375 4.0625 -4.453125 C 3.820312 -4.679688 3.460938 -4.796875 2.984375 -4.796875 C 2.648438 -4.796875 2.320312 -4.742188 2 -4.640625 C 1.6875 -4.535156 1.421875 -4.390625 1.203125 -4.203125 L 0.65625 -5.203125 C 0.96875 -5.441406 1.335938 -5.625 1.765625 -5.75 C 2.203125 -5.875 2.660156 -5.9375 3.140625 -5.9375 Z M 2.953125 -0.921875 C 3.296875 -0.921875 3.597656 -1 3.859375 -1.15625 C 4.128906 -1.3125 4.320312 -1.535156 4.4375 -1.828125 L 4.4375 -2.515625 L 3.015625 -2.515625 C 2.222656 -2.515625 1.828125 -2.253906 1.828125 -1.734375 C 1.828125 -1.484375 1.925781 -1.285156 2.125 -1.140625 C 2.320312 -0.992188 2.597656 -0.921875 2.953125 -0.921875 Z M 2.953125 -0.921875 "/></g></g></g><g fill="#19a7ce" fill-opacity="1"><g transform="translate(170.691407, 928.391461)"><g><path d="M 4.421875 -0.3125 C 4.265625 -0.1875 4.070312 -0.0859375 3.84375 -0.015625 C 3.613281 0.046875 3.367188 0.078125 3.109375 0.078125 C 2.460938 0.078125 1.960938 -0.0859375 1.609375 -0.421875 C 1.265625 -0.765625 1.09375 -1.257812 1.09375 -1.90625 L 1.09375 -4.71875 L 0.125 -4.71875 L 0.125 -5.828125 L 1.09375 -5.828125 L 1.09375 -7.15625 L 2.453125 -7.15625 L 2.453125 -5.828125 L 4.03125 -5.828125 L 4.03125 -4.71875 L 2.453125 -4.71875 L 2.453125 -1.9375 C 2.453125 -1.644531 2.519531 -1.421875 2.65625 -1.265625 C 2.800781 -1.117188 3.003906 -1.046875 3.265625 -1.046875 C 3.578125 -1.046875 3.835938 -1.128906 4.046875 -1.296875 Z M 4.421875 -0.3125 "/></g></g></g><g fill="#19a7ce" fill-opacity="1"><g transform="translate(175.349815, 928.391461)"><g><path d="M 2.71875 0.078125 C 2.238281 0.078125 1.769531 0.015625 1.3125 -0.109375 C 0.863281 -0.234375 0.503906 -0.390625 0.234375 -0.578125 L 0.765625 -1.625 C 1.023438 -1.445312 1.335938 -1.304688 1.703125 -1.203125 C 2.078125 -1.097656 2.441406 -1.046875 2.796875 -1.046875 C 3.617188 -1.046875 4.03125 -1.257812 4.03125 -1.6875 C 4.03125 -1.894531 3.925781 -2.035156 3.71875 -2.109375 C 3.507812 -2.191406 3.175781 -2.269531 2.71875 -2.34375 C 2.226562 -2.414062 1.832031 -2.5 1.53125 -2.59375 C 1.226562 -2.695312 0.960938 -2.863281 0.734375 -3.09375 C 0.515625 -3.332031 0.40625 -3.664062 0.40625 -4.09375 C 0.40625 -4.65625 0.632812 -5.101562 1.09375 -5.4375 C 1.5625 -5.769531 2.191406 -5.9375 2.984375 -5.9375 C 3.390625 -5.9375 3.789062 -5.890625 4.1875 -5.796875 C 4.59375 -5.703125 4.925781 -5.578125 5.1875 -5.421875 L 4.65625 -4.375 C 4.15625 -4.675781 3.597656 -4.828125 2.984375 -4.828125 C 2.578125 -4.828125 2.269531 -4.765625 2.0625 -4.640625 C 1.851562 -4.515625 1.75 -4.351562 1.75 -4.15625 C 1.75 -3.9375 1.859375 -3.78125 2.078125 -3.6875 C 2.304688 -3.601562 2.65625 -3.519531 3.125 -3.4375 C 3.59375 -3.363281 3.972656 -3.28125 4.265625 -3.1875 C 4.566406 -3.09375 4.828125 -2.929688 5.046875 -2.703125 C 5.265625 -2.472656 5.375 -2.148438 5.375 -1.734375 C 5.375 -1.179688 5.132812 -0.738281 4.65625 -0.40625 C 4.175781 -0.0820312 3.53125 0.078125 2.71875 0.078125 Z M 2.71875 0.078125 "/></g></g></g><g fill="#19a7ce" fill-opacity="1"><g transform="translate(181.008024, 928.391461)"><g><path d="M 0.90625 -5.859375 L 2.28125 -5.859375 L 2.28125 0 L 0.90625 0 Z M 1.59375 -6.828125 C 1.34375 -6.828125 1.132812 -6.90625 0.96875 -7.0625 C 0.800781 -7.21875 0.71875 -7.414062 0.71875 -7.65625 C 0.71875 -7.882812 0.800781 -8.078125 0.96875 -8.234375 C 1.132812 -8.398438 1.34375 -8.484375 1.59375 -8.484375 C 1.84375 -8.484375 2.050781 -8.40625 2.21875 -8.25 C 2.382812 -8.101562 2.46875 -7.914062 2.46875 -7.6875 C 2.46875 -7.445312 2.382812 -7.242188 2.21875 -7.078125 C 2.0625 -6.910156 1.851562 -6.828125 1.59375 -6.828125 Z M 1.59375 -6.828125 "/></g></g></g><g fill="#19a7ce" fill-opacity="1"><g transform="translate(184.18321, 928.391461)"><g><path d="M 4.421875 -0.3125 C 4.265625 -0.1875 4.070312 -0.0859375 3.84375 -0.015625 C 3.613281 0.046875 3.367188 0.078125 3.109375 0.078125 C 2.460938 0.078125 1.960938 -0.0859375 1.609375 -0.421875 C 1.265625 -0.765625 1.09375 -1.257812 1.09375 -1.90625 L 1.09375 -4.71875 L 0.125 -4.71875 L 0.125 -5.828125 L 1.09375 -5.828125 L 1.09375 -7.15625 L 2.453125 -7.15625 L 2.453125 -5.828125 L 4.03125 -5.828125 L 4.03125 -4.71875 L 2.453125 -4.71875 L 2.453125 -1.9375 C 2.453125 -1.644531 2.519531 -1.421875 2.65625 -1.265625 C 2.800781 -1.117188 3.003906 -1.046875 3.265625 -1.046875 C 3.578125 -1.046875 3.835938 -1.128906 4.046875 -1.296875 Z M 4.421875 -0.3125 "/></g></g></g><g fill="#19a7ce" fill-opacity="1"><g transform="translate(188.841618, 928.391461)"><g><path d="M 6.421875 -2.90625 C 6.421875 -2.800781 6.410156 -2.664062 6.390625 -2.5 L 1.796875 -2.5 C 1.867188 -2.0625 2.078125 -1.71875 2.421875 -1.46875 C 2.765625 -1.21875 3.1875 -1.09375 3.6875 -1.09375 C 4.332031 -1.09375 4.863281 -1.300781 5.28125 -1.71875 L 6.015625 -0.875 C 5.753906 -0.5625 5.421875 -0.320312 5.015625 -0.15625 C 4.617188 0 4.164062 0.078125 3.65625 0.078125 C 3.007812 0.078125 2.441406 -0.046875 1.953125 -0.296875 C 1.460938 -0.554688 1.082031 -0.914062 0.8125 -1.375 C 0.550781 -1.832031 0.421875 -2.351562 0.421875 -2.9375 C 0.421875 -3.507812 0.550781 -4.019531 0.8125 -4.46875 C 1.070312 -4.925781 1.429688 -5.285156 1.890625 -5.546875 C 2.347656 -5.804688 2.867188 -5.9375 3.453125 -5.9375 C 4.023438 -5.9375 4.535156 -5.804688 4.984375 -5.546875 C 5.429688 -5.296875 5.78125 -4.941406 6.03125 -4.484375 C 6.289062 -4.023438 6.421875 -3.5 6.421875 -2.90625 Z M 3.453125 -4.828125 C 3.015625 -4.828125 2.640625 -4.695312 2.328125 -4.4375 C 2.023438 -4.175781 1.84375 -3.832031 1.78125 -3.40625 L 5.109375 -3.40625 C 5.046875 -3.832031 4.863281 -4.175781 4.5625 -4.4375 C 4.269531 -4.695312 3.898438 -4.828125 3.453125 -4.828125 Z M 3.453125 -4.828125 "/></g></g></g><g fill="#19a7ce" fill-opacity="1"><g transform="translate(195.675413, 928.391461)"><g><path d="M 1.34375 0.078125 C 1.09375 0.078125 0.878906 -0.00390625 0.703125 -0.171875 C 0.523438 -0.347656 0.4375 -0.566406 0.4375 -0.828125 C 0.4375 -1.097656 0.519531 -1.316406 0.6875 -1.484375 C 0.863281 -1.660156 1.082031 -1.75 1.34375 -1.75 C 1.59375 -1.75 1.800781 -1.660156 1.96875 -1.484375 C 2.144531 -1.316406 2.234375 -1.097656 2.234375 -0.828125 C 2.234375 -0.566406 2.144531 -0.347656 1.96875 -0.171875 C 1.800781 -0.00390625 1.59375 0.078125 1.34375 0.078125 Z M 1.34375 0.078125 "/></g></g></g><g fill="#19a7ce" fill-opacity="1"><g transform="translate(198.356195, 928.391461)"><g><path d="M 3.59375 0.078125 C 2.988281 0.078125 2.441406 -0.046875 1.953125 -0.296875 C 1.472656 -0.554688 1.097656 -0.914062 0.828125 -1.375 C 0.554688 -1.832031 0.421875 -2.351562 0.421875 -2.9375 C 0.421875 -3.507812 0.554688 -4.019531 0.828125 -4.46875 C 1.097656 -4.925781 1.472656 -5.285156 1.953125 -5.546875 C 2.429688 -5.804688 2.976562 -5.9375 3.59375 -5.9375 C 4.164062 -5.9375 4.671875 -5.816406 5.109375 -5.578125 C 5.546875 -5.347656 5.875 -5.007812 6.09375 -4.5625 L 5.046875 -3.953125 C 4.878906 -4.222656 4.664062 -4.425781 4.40625 -4.5625 C 4.15625 -4.695312 3.878906 -4.765625 3.578125 -4.765625 C 3.066406 -4.765625 2.640625 -4.597656 2.296875 -4.265625 C 1.960938 -3.929688 1.796875 -3.488281 1.796875 -2.9375 C 1.796875 -2.375 1.960938 -1.925781 2.296875 -1.59375 C 2.628906 -1.257812 3.054688 -1.09375 3.578125 -1.09375 C 3.878906 -1.09375 4.15625 -1.160156 4.40625 -1.296875 C 4.664062 -1.429688 4.878906 -1.632812 5.046875 -1.90625 L 6.09375 -1.296875 C 5.863281 -0.859375 5.53125 -0.519531 5.09375 -0.28125 C 4.664062 -0.0390625 4.164062 0.078125 3.59375 0.078125 Z M 3.59375 0.078125 "/></g></g></g><g fill="#19a7ce" fill-opacity="1"><g transform="translate(204.739532, 928.391461)"><g><path d="M 3.53125 0.078125 C 2.9375 0.078125 2.398438 -0.046875 1.921875 -0.296875 C 1.453125 -0.554688 1.082031 -0.914062 0.8125 -1.375 C 0.550781 -1.832031 0.421875 -2.351562 0.421875 -2.9375 C 0.421875 -3.507812 0.550781 -4.019531 0.8125 -4.46875 C 1.082031 -4.925781 1.453125 -5.285156 1.921875 -5.546875 C 2.398438 -5.804688 2.9375 -5.9375 3.53125 -5.9375 C 4.132812 -5.9375 4.671875 -5.804688 5.140625 -5.546875 C 5.617188 -5.285156 5.992188 -4.925781 6.265625 -4.46875 C 6.535156 -4.019531 6.671875 -3.507812 6.671875 -2.9375 C 6.671875 -2.351562 6.535156 -1.832031 6.265625 -1.375 C 5.992188 -0.914062 5.617188 -0.554688 5.140625 -0.296875 C 4.671875 -0.046875 4.132812 0.078125 3.53125 0.078125 Z M 3.53125 -1.09375 C 4.039062 -1.09375 4.457031 -1.257812 4.78125 -1.59375 C 5.113281 -1.9375 5.28125 -2.382812 5.28125 -2.9375 C 5.28125 -3.476562 5.113281 -3.914062 4.78125 -4.25 C 4.457031 -4.59375 4.039062 -4.765625 3.53125 -4.765625 C 3.03125 -4.765625 2.613281 -4.59375 2.28125 -4.25 C 1.957031 -3.914062 1.796875 -3.476562 1.796875 -2.9375 C 1.796875 -2.382812 1.957031 -1.9375 2.28125 -1.59375 C 2.613281 -1.257812 3.03125 -1.09375 3.53125 -1.09375 Z M 3.53125 -1.09375 "/></g></g></g><g fill="#19a7ce" fill-opacity="1"><g transform="translate(211.826024, 928.391461)"><g><path d="M 8.296875 -5.9375 C 9.035156 -5.9375 9.617188 -5.71875 10.046875 -5.28125 C 10.484375 -4.851562 10.703125 -4.210938 10.703125 -3.359375 L 10.703125 0 L 9.34375 0 L 9.34375 -3.1875 C 9.34375 -3.695312 9.226562 -4.082031 9 -4.34375 C 8.769531 -4.601562 8.441406 -4.734375 8.015625 -4.734375 C 7.554688 -4.734375 7.1875 -4.582031 6.90625 -4.28125 C 6.625 -3.976562 6.484375 -3.546875 6.484375 -2.984375 L 6.484375 0 L 5.125 0 L 5.125 -3.1875 C 5.125 -3.695312 5.007812 -4.082031 4.78125 -4.34375 C 4.550781 -4.601562 4.222656 -4.734375 3.796875 -4.734375 C 3.328125 -4.734375 2.957031 -4.582031 2.6875 -4.28125 C 2.414062 -3.976562 2.28125 -3.546875 2.28125 -2.984375 L 2.28125 0 L 0.90625 0 L 0.90625 -5.859375 L 2.203125 -5.859375 L 2.203125 -5.125 C 2.421875 -5.382812 2.695312 -5.582031 3.03125 -5.71875 C 3.363281 -5.863281 3.726562 -5.9375 4.125 -5.9375 C 4.570312 -5.9375 4.960938 -5.851562 5.296875 -5.6875 C 5.640625 -5.519531 5.910156 -5.273438 6.109375 -4.953125 C 6.347656 -5.265625 6.65625 -5.503906 7.03125 -5.671875 C 7.414062 -5.847656 7.835938 -5.9375 8.296875 -5.9375 Z M 8.296875 -5.9375 "/></g></g></g><g fill="#19a7ce" fill-opacity="1"><g transform="translate(81.159927, 913.548792)"><g><path d="M 5.734375 -7.78125 C 6.734375 -7.78125 7.625 -7.578125 8.40625 -7.171875 C 9.1875 -6.765625 9.796875 -6.191406 10.234375 -5.453125 C 10.671875 -4.722656 10.890625 -3.898438 10.890625 -2.984375 C 10.890625 -2.023438 10.703125 -1.273438 10.328125 -0.734375 C 9.953125 -0.203125 9.4375 0.0625 8.78125 0.0625 C 8.425781 0.0625 8.128906 -0.015625 7.890625 -0.171875 C 7.648438 -0.335938 7.476562 -0.578125 7.375 -0.890625 C 6.9375 -0.253906 6.28125 0.0625 5.40625 0.0625 C 4.90625 0.0625 4.453125 -0.0507812 4.046875 -0.28125 C 3.648438 -0.519531 3.335938 -0.851562 3.109375 -1.28125 C 2.878906 -1.707031 2.765625 -2.191406 2.765625 -2.734375 C 2.765625 -3.265625 2.878906 -3.738281 3.109375 -4.15625 C 3.335938 -4.582031 3.648438 -4.914062 4.046875 -5.15625 C 4.453125 -5.394531 4.90625 -5.515625 5.40625 -5.515625 C 5.789062 -5.515625 6.140625 -5.445312 6.453125 -5.3125 C 6.765625 -5.1875 7.023438 -4.992188 7.234375 -4.734375 L 7.234375 -5.453125 L 8.453125 -5.453125 L 8.453125 -1.71875 C 8.453125 -1.445312 8.503906 -1.253906 8.609375 -1.140625 C 8.722656 -1.023438 8.863281 -0.96875 9.03125 -0.96875 C 9.332031 -0.96875 9.5625 -1.132812 9.71875 -1.46875 C 9.875 -1.8125 9.953125 -2.304688 9.953125 -2.953125 C 9.953125 -3.734375 9.773438 -4.421875 9.421875 -5.015625 C 9.066406 -5.609375 8.566406 -6.066406 7.921875 -6.390625 C 7.285156 -6.722656 6.554688 -6.890625 5.734375 -6.890625 C 4.898438 -6.890625 4.160156 -6.710938 3.515625 -6.359375 C 2.867188 -6.015625 2.367188 -5.53125 2.015625 -4.90625 C 1.671875 -4.28125 1.5 -3.578125 1.5 -2.796875 C 1.5 -1.984375 1.671875 -1.265625 2.015625 -0.640625 C 2.359375 -0.0234375 2.847656 0.453125 3.484375 0.796875 C 4.128906 1.148438 4.863281 1.328125 5.6875 1.328125 C 6.050781 1.328125 6.414062 1.285156 6.78125 1.203125 C 7.15625 1.128906 7.503906 1.007812 7.828125 0.84375 L 8.125 1.71875 C 7.800781 1.894531 7.421875 2.023438 6.984375 2.109375 C 6.546875 2.191406 6.113281 2.234375 5.6875 2.234375 C 4.664062 2.234375 3.757812 2.015625 2.96875 1.578125 C 2.1875 1.148438 1.578125 0.554688 1.140625 -0.203125 C 0.703125 -0.960938 0.484375 -1.828125 0.484375 -2.796875 C 0.484375 -3.742188 0.703125 -4.59375 1.140625 -5.34375 C 1.578125 -6.101562 2.191406 -6.695312 2.984375 -7.125 C 3.785156 -7.5625 4.703125 -7.78125 5.734375 -7.78125 Z M 5.640625 -1 C 6.109375 -1 6.492188 -1.15625 6.796875 -1.46875 C 7.109375 -1.78125 7.265625 -2.203125 7.265625 -2.734375 C 7.265625 -3.265625 7.109375 -3.679688 6.796875 -3.984375 C 6.492188 -4.296875 6.109375 -4.453125 5.640625 -4.453125 C 5.148438 -4.453125 4.753906 -4.296875 4.453125 -3.984375 C 4.160156 -3.671875 4.015625 -3.253906 4.015625 -2.734375 C 4.015625 -2.203125 4.160156 -1.78125 4.453125 -1.46875 C 4.753906 -1.15625 5.148438 -1 5.640625 -1 Z M 5.640625 -1 "/></g></g></g><g fill="#19a7ce" fill-opacity="1"><g transform="translate(92.520279, 913.548792)"><g><path d="M 2.203125 -5.015625 C 2.597656 -5.628906 3.296875 -5.9375 4.296875 -5.9375 L 4.296875 -4.625 C 4.179688 -4.644531 4.070312 -4.65625 3.96875 -4.65625 C 3.4375 -4.65625 3.019531 -4.5 2.71875 -4.1875 C 2.425781 -3.875 2.28125 -3.425781 2.28125 -2.84375 L 2.28125 0 L 0.90625 0 L 0.90625 -5.859375 L 2.203125 -5.859375 Z M 2.203125 -5.015625 "/></g></g></g><g fill="#19a7ce" fill-opacity="1"><g transform="translate(97.134741, 913.548792)"><g><path d="M 6.421875 -2.90625 C 6.421875 -2.800781 6.410156 -2.664062 6.390625 -2.5 L 1.796875 -2.5 C 1.867188 -2.0625 2.078125 -1.71875 2.421875 -1.46875 C 2.765625 -1.21875 3.1875 -1.09375 3.6875 -1.09375 C 4.332031 -1.09375 4.863281 -1.300781 5.28125 -1.71875 L 6.015625 -0.875 C 5.753906 -0.5625 5.421875 -0.320312 5.015625 -0.15625 C 4.617188 0 4.164062 0.078125 3.65625 0.078125 C 3.007812 0.078125 2.441406 -0.046875 1.953125 -0.296875 C 1.460938 -0.554688 1.082031 -0.914062 0.8125 -1.375 C 0.550781 -1.832031 0.421875 -2.351562 0.421875 -2.9375 C 0.421875 -3.507812 0.550781 -4.019531 0.8125 -4.46875 C 1.070312 -4.925781 1.429688 -5.285156 1.890625 -5.546875 C 2.347656 -5.804688 2.867188 -5.9375 3.453125 -5.9375 C 4.023438 -5.9375 4.535156 -5.804688 4.984375 -5.546875 C 5.429688 -5.296875 5.78125 -4.941406 6.03125 -4.484375 C 6.289062 -4.023438 6.421875 -3.5 6.421875 -2.90625 Z M 3.453125 -4.828125 C 3.015625 -4.828125 2.640625 -4.695312 2.328125 -4.4375 C 2.023438 -4.175781 1.84375 -3.832031 1.78125 -3.40625 L 5.109375 -3.40625 C 5.046875 -3.832031 4.863281 -4.175781 4.5625 -4.4375 C 4.269531 -4.695312 3.898438 -4.828125 3.453125 -4.828125 Z M 3.453125 -4.828125 "/></g></g></g><g fill="#19a7ce" fill-opacity="1"><g transform="translate(103.968536, 913.548792)"><g><path d="M 3.140625 -5.9375 C 4.003906 -5.9375 4.664062 -5.726562 5.125 -5.3125 C 5.582031 -4.894531 5.8125 -4.269531 5.8125 -3.4375 L 5.8125 0 L 4.515625 0 L 4.515625 -0.71875 C 4.347656 -0.457031 4.109375 -0.257812 3.796875 -0.125 C 3.484375 0.0078125 3.109375 0.078125 2.671875 0.078125 C 2.234375 0.078125 1.847656 0.00390625 1.515625 -0.140625 C 1.179688 -0.296875 0.925781 -0.503906 0.75 -0.765625 C 0.570312 -1.035156 0.484375 -1.34375 0.484375 -1.6875 C 0.484375 -2.207031 0.675781 -2.625 1.0625 -2.9375 C 1.457031 -3.257812 2.078125 -3.421875 2.921875 -3.421875 L 4.4375 -3.421875 L 4.4375 -3.515625 C 4.4375 -3.921875 4.3125 -4.234375 4.0625 -4.453125 C 3.820312 -4.679688 3.460938 -4.796875 2.984375 -4.796875 C 2.648438 -4.796875 2.320312 -4.742188 2 -4.640625 C 1.6875 -4.535156 1.421875 -4.390625 1.203125 -4.203125 L 0.65625 -5.203125 C 0.96875 -5.441406 1.335938 -5.625 1.765625 -5.75 C 2.203125 -5.875 2.660156 -5.9375 3.140625 -5.9375 Z M 2.953125 -0.921875 C 3.296875 -0.921875 3.597656 -1 3.859375 -1.15625 C 4.128906 -1.3125 4.320312 -1.535156 4.4375 -1.828125 L 4.4375 -2.515625 L 3.015625 -2.515625 C 2.222656 -2.515625 1.828125 -2.253906 1.828125 -1.734375 C 1.828125 -1.484375 1.925781 -1.285156 2.125 -1.140625 C 2.320312 -0.992188 2.597656 -0.921875 2.953125 -0.921875 Z M 2.953125 -0.921875 "/></g></g></g><g fill="#19a7ce" fill-opacity="1"><g transform="translate(110.637525, 913.548792)"><g><path d="M 0.90625 -8.15625 L 2.28125 -8.15625 L 2.28125 0 L 0.90625 0 Z M 0.90625 -8.15625 "/></g></g></g><g fill="#19a7ce" fill-opacity="1"><g transform="translate(113.812711, 913.548792)"><g><path d="M 0.90625 -8.15625 L 2.28125 -8.15625 L 2.28125 0 L 0.90625 0 Z M 0.90625 -8.15625 "/></g></g></g><g fill="#19a7ce" fill-opacity="1"><g transform="translate(116.987897, 913.548792)"><g><path d="M 6.390625 -5.859375 L 3.640625 0.46875 C 3.390625 1.101562 3.078125 1.550781 2.703125 1.8125 C 2.335938 2.070312 1.898438 2.203125 1.390625 2.203125 C 1.085938 2.203125 0.796875 2.15625 0.515625 2.0625 C 0.234375 1.96875 0 1.835938 -0.1875 1.671875 L 0.359375 0.65625 C 0.492188 0.78125 0.648438 0.878906 0.828125 0.953125 C 1.003906 1.023438 1.1875 1.0625 1.375 1.0625 C 1.613281 1.0625 1.8125 1 1.96875 0.875 C 2.125 0.75 2.269531 0.539062 2.40625 0.25 L 2.5 0.015625 L -0.0625 -5.859375 L 1.375 -5.859375 L 3.21875 -1.53125 L 5.078125 -5.859375 Z M 6.390625 -5.859375 "/></g></g></g><g fill="#19a7ce" fill-opacity="1"><g transform="translate(123.338268, 913.548792)"><g><path d="M 6.71875 -5.859375 L 6.71875 -0.890625 C 6.71875 1.171875 5.664062 2.203125 3.5625 2.203125 C 3 2.203125 2.460938 2.128906 1.953125 1.984375 C 1.453125 1.847656 1.035156 1.644531 0.703125 1.375 L 1.3125 0.34375 C 1.570312 0.550781 1.894531 0.71875 2.28125 0.84375 C 2.675781 0.976562 3.078125 1.046875 3.484375 1.046875 C 4.128906 1.046875 4.597656 0.898438 4.890625 0.609375 C 5.191406 0.316406 5.34375 -0.128906 5.34375 -0.734375 L 5.34375 -1.046875 C 5.113281 -0.785156 4.828125 -0.585938 4.484375 -0.453125 C 4.148438 -0.328125 3.785156 -0.265625 3.390625 -0.265625 C 2.828125 -0.265625 2.320312 -0.382812 1.875 -0.625 C 1.425781 -0.863281 1.070312 -1.195312 0.8125 -1.625 C 0.550781 -2.0625 0.421875 -2.554688 0.421875 -3.109375 C 0.421875 -3.660156 0.550781 -4.148438 0.8125 -4.578125 C 1.070312 -5.015625 1.425781 -5.347656 1.875 -5.578125 C 2.320312 -5.816406 2.828125 -5.9375 3.390625 -5.9375 C 3.804688 -5.9375 4.1875 -5.863281 4.53125 -5.71875 C 4.882812 -5.582031 5.179688 -5.367188 5.421875 -5.078125 L 5.421875 -5.859375 Z M 3.59375 -1.421875 C 4.113281 -1.421875 4.539062 -1.578125 4.875 -1.890625 C 5.207031 -2.203125 5.375 -2.609375 5.375 -3.109375 C 5.375 -3.597656 5.207031 -3.992188 4.875 -4.296875 C 4.539062 -4.609375 4.113281 -4.765625 3.59375 -4.765625 C 3.0625 -4.765625 2.628906 -4.609375 2.296875 -4.296875 C 1.960938 -3.992188 1.796875 -3.597656 1.796875 -3.109375 C 1.796875 -2.609375 1.960938 -2.203125 2.296875 -1.890625 C 2.628906 -1.578125 3.0625 -1.421875 3.59375 -1.421875 Z M 3.59375 -1.421875 "/></g></g></g><g fill="#19a7ce" fill-opacity="1"><g transform="translate(130.963111, 913.548792)"><g><path d="M 2.203125 -5.015625 C 2.597656 -5.628906 3.296875 -5.9375 4.296875 -5.9375 L 4.296875 -4.625 C 4.179688 -4.644531 4.070312 -4.65625 3.96875 -4.65625 C 3.4375 -4.65625 3.019531 -4.5 2.71875 -4.1875 C 2.425781 -3.875 2.28125 -3.425781 2.28125 -2.84375 L 2.28125 0 L 0.90625 0 L 0.90625 -5.859375 L 2.203125 -5.859375 Z M 2.203125 -5.015625 "/></g></g></g><g fill="#19a7ce" fill-opacity="1"><g transform="translate(135.577573, 913.548792)"><g><path d="M 6.421875 -2.90625 C 6.421875 -2.800781 6.410156 -2.664062 6.390625 -2.5 L 1.796875 -2.5 C 1.867188 -2.0625 2.078125 -1.71875 2.421875 -1.46875 C 2.765625 -1.21875 3.1875 -1.09375 3.6875 -1.09375 C 4.332031 -1.09375 4.863281 -1.300781 5.28125 -1.71875 L 6.015625 -0.875 C 5.753906 -0.5625 5.421875 -0.320312 5.015625 -0.15625 C 4.617188 0 4.164062 0.078125 3.65625 0.078125 C 3.007812 0.078125 2.441406 -0.046875 1.953125 -0.296875 C 1.460938 -0.554688 1.082031 -0.914062 0.8125 -1.375 C 0.550781 -1.832031 0.421875 -2.351562 0.421875 -2.9375 C 0.421875 -3.507812 0.550781 -4.019531 0.8125 -4.46875 C 1.070312 -4.925781 1.429688 -5.285156 1.890625 -5.546875 C 2.347656 -5.804688 2.867188 -5.9375 3.453125 -5.9375 C 4.023438 -5.9375 4.535156 -5.804688 4.984375 -5.546875 C 5.429688 -5.296875 5.78125 -4.941406 6.03125 -4.484375 C 6.289062 -4.023438 6.421875 -3.5 6.421875 -2.90625 Z M 3.453125 -4.828125 C 3.015625 -4.828125 2.640625 -4.695312 2.328125 -4.4375 C 2.023438 -4.175781 1.84375 -3.832031 1.78125 -3.40625 L 5.109375 -3.40625 C 5.046875 -3.832031 4.863281 -4.175781 4.5625 -4.4375 C 4.269531 -4.695312 3.898438 -4.828125 3.453125 -4.828125 Z M 3.453125 -4.828125 "/></g></g></g><g fill="#19a7ce" fill-opacity="1"><g transform="translate(142.411368, 913.548792)"><g><path d="M 3.140625 -5.9375 C 4.003906 -5.9375 4.664062 -5.726562 5.125 -5.3125 C 5.582031 -4.894531 5.8125 -4.269531 5.8125 -3.4375 L 5.8125 0 L 4.515625 0 L 4.515625 -0.71875 C 4.347656 -0.457031 4.109375 -0.257812 3.796875 -0.125 C 3.484375 0.0078125 3.109375 0.078125 2.671875 0.078125 C 2.234375 0.078125 1.847656 0.00390625 1.515625 -0.140625 C 1.179688 -0.296875 0.925781 -0.503906 0.75 -0.765625 C 0.570312 -1.035156 0.484375 -1.34375 0.484375 -1.6875 C 0.484375 -2.207031 0.675781 -2.625 1.0625 -2.9375 C 1.457031 -3.257812 2.078125 -3.421875 2.921875 -3.421875 L 4.4375 -3.421875 L 4.4375 -3.515625 C 4.4375 -3.921875 4.3125 -4.234375 4.0625 -4.453125 C 3.820312 -4.679688 3.460938 -4.796875 2.984375 -4.796875 C 2.648438 -4.796875 2.320312 -4.742188 2 -4.640625 C 1.6875 -4.535156 1.421875 -4.390625 1.203125 -4.203125 L 0.65625 -5.203125 C 0.96875 -5.441406 1.335938 -5.625 1.765625 -5.75 C 2.203125 -5.875 2.660156 -5.9375 3.140625 -5.9375 Z M 2.953125 -0.921875 C 3.296875 -0.921875 3.597656 -1 3.859375 -1.15625 C 4.128906 -1.3125 4.320312 -1.535156 4.4375 -1.828125 L 4.4375 -2.515625 L 3.015625 -2.515625 C 2.222656 -2.515625 1.828125 -2.253906 1.828125 -1.734375 C 1.828125 -1.484375 1.925781 -1.285156 2.125 -1.140625 C 2.320312 -0.992188 2.597656 -0.921875 2.953125 -0.921875 Z M 2.953125 -0.921875 "/></g></g></g><g fill="#19a7ce" fill-opacity="1"><g transform="translate(149.080357, 913.548792)"><g><path d="M 4.421875 -0.3125 C 4.265625 -0.1875 4.070312 -0.0859375 3.84375 -0.015625 C 3.613281 0.046875 3.367188 0.078125 3.109375 0.078125 C 2.460938 0.078125 1.960938 -0.0859375 1.609375 -0.421875 C 1.265625 -0.765625 1.09375 -1.257812 1.09375 -1.90625 L 1.09375 -4.71875 L 0.125 -4.71875 L 0.125 -5.828125 L 1.09375 -5.828125 L 1.09375 -7.15625 L 2.453125 -7.15625 L 2.453125 -5.828125 L 4.03125 -5.828125 L 4.03125 -4.71875 L 2.453125 -4.71875 L 2.453125 -1.9375 C 2.453125 -1.644531 2.519531 -1.421875 2.65625 -1.265625 C 2.800781 -1.117188 3.003906 -1.046875 3.265625 -1.046875 C 3.578125 -1.046875 3.835938 -1.128906 4.046875 -1.296875 Z M 4.421875 -0.3125 "/></g></g></g><g fill="#19a7ce" fill-opacity="1"><g transform="translate(153.738766, 913.548792)"><g><path d="M 2.71875 0.078125 C 2.238281 0.078125 1.769531 0.015625 1.3125 -0.109375 C 0.863281 -0.234375 0.503906 -0.390625 0.234375 -0.578125 L 0.765625 -1.625 C 1.023438 -1.445312 1.335938 -1.304688 1.703125 -1.203125 C 2.078125 -1.097656 2.441406 -1.046875 2.796875 -1.046875 C 3.617188 -1.046875 4.03125 -1.257812 4.03125 -1.6875 C 4.03125 -1.894531 3.925781 -2.035156 3.71875 -2.109375 C 3.507812 -2.191406 3.175781 -2.269531 2.71875 -2.34375 C 2.226562 -2.414062 1.832031 -2.5 1.53125 -2.59375 C 1.226562 -2.695312 0.960938 -2.863281 0.734375 -3.09375 C 0.515625 -3.332031 0.40625 -3.664062 0.40625 -4.09375 C 0.40625 -4.65625 0.632812 -5.101562 1.09375 -5.4375 C 1.5625 -5.769531 2.191406 -5.9375 2.984375 -5.9375 C 3.390625 -5.9375 3.789062 -5.890625 4.1875 -5.796875 C 4.59375 -5.703125 4.925781 -5.578125 5.1875 -5.421875 L 4.65625 -4.375 C 4.15625 -4.675781 3.597656 -4.828125 2.984375 -4.828125 C 2.578125 -4.828125 2.269531 -4.765625 2.0625 -4.640625 C 1.851562 -4.515625 1.75 -4.351562 1.75 -4.15625 C 1.75 -3.9375 1.859375 -3.78125 2.078125 -3.6875 C 2.304688 -3.601562 2.65625 -3.519531 3.125 -3.4375 C 3.59375 -3.363281 3.972656 -3.28125 4.265625 -3.1875 C 4.566406 -3.09375 4.828125 -2.929688 5.046875 -2.703125 C 5.265625 -2.472656 5.375 -2.148438 5.375 -1.734375 C 5.375 -1.179688 5.132812 -0.738281 4.65625 -0.40625 C 4.175781 -0.0820312 3.53125 0.078125 2.71875 0.078125 Z M 2.71875 0.078125 "/></g></g></g><g fill="#19a7ce" fill-opacity="1"><g transform="translate(159.396974, 913.548792)"><g><path d="M 0.90625 -5.859375 L 2.28125 -5.859375 L 2.28125 0 L 0.90625 0 Z M 1.59375 -6.828125 C 1.34375 -6.828125 1.132812 -6.90625 0.96875 -7.0625 C 0.800781 -7.21875 0.71875 -7.414062 0.71875 -7.65625 C 0.71875 -7.882812 0.800781 -8.078125 0.96875 -8.234375 C 1.132812 -8.398438 1.34375 -8.484375 1.59375 -8.484375 C 1.84375 -8.484375 2.050781 -8.40625 2.21875 -8.25 C 2.382812 -8.101562 2.46875 -7.914062 2.46875 -7.6875 C 2.46875 -7.445312 2.382812 -7.242188 2.21875 -7.078125 C 2.0625 -6.910156 1.851562 -6.828125 1.59375 -6.828125 Z M 1.59375 -6.828125 "/></g></g></g><g fill="#19a7ce" fill-opacity="1"><g transform="translate(162.57216, 913.548792)"><g><path d="M 4.421875 -0.3125 C 4.265625 -0.1875 4.070312 -0.0859375 3.84375 -0.015625 C 3.613281 0.046875 3.367188 0.078125 3.109375 0.078125 C 2.460938 0.078125 1.960938 -0.0859375 1.609375 -0.421875 C 1.265625 -0.765625 1.09375 -1.257812 1.09375 -1.90625 L 1.09375 -4.71875 L 0.125 -4.71875 L 0.125 -5.828125 L 1.09375 -5.828125 L 1.09375 -7.15625 L 2.453125 -7.15625 L 2.453125 -5.828125 L 4.03125 -5.828125 L 4.03125 -4.71875 L 2.453125 -4.71875 L 2.453125 -1.9375 C 2.453125 -1.644531 2.519531 -1.421875 2.65625 -1.265625 C 2.800781 -1.117188 3.003906 -1.046875 3.265625 -1.046875 C 3.578125 -1.046875 3.835938 -1.128906 4.046875 -1.296875 Z M 4.421875 -0.3125 "/></g></g></g><g fill="#19a7ce" fill-opacity="1"><g transform="translate(167.230569, 913.548792)"><g><path d="M 6.421875 -2.90625 C 6.421875 -2.800781 6.410156 -2.664062 6.390625 -2.5 L 1.796875 -2.5 C 1.867188 -2.0625 2.078125 -1.71875 2.421875 -1.46875 C 2.765625 -1.21875 3.1875 -1.09375 3.6875 -1.09375 C 4.332031 -1.09375 4.863281 -1.300781 5.28125 -1.71875 L 6.015625 -0.875 C 5.753906 -0.5625 5.421875 -0.320312 5.015625 -0.15625 C 4.617188 0 4.164062 0.078125 3.65625 0.078125 C 3.007812 0.078125 2.441406 -0.046875 1.953125 -0.296875 C 1.460938 -0.554688 1.082031 -0.914062 0.8125 -1.375 C 0.550781 -1.832031 0.421875 -2.351562 0.421875 -2.9375 C 0.421875 -3.507812 0.550781 -4.019531 0.8125 -4.46875 C 1.070312 -4.925781 1.429688 -5.285156 1.890625 -5.546875 C 2.347656 -5.804688 2.867188 -5.9375 3.453125 -5.9375 C 4.023438 -5.9375 4.535156 -5.804688 4.984375 -5.546875 C 5.429688 -5.296875 5.78125 -4.941406 6.03125 -4.484375 C 6.289062 -4.023438 6.421875 -3.5 6.421875 -2.90625 Z M 3.453125 -4.828125 C 3.015625 -4.828125 2.640625 -4.695312 2.328125 -4.4375 C 2.023438 -4.175781 1.84375 -3.832031 1.78125 -3.40625 L 5.109375 -3.40625 C 5.046875 -3.832031 4.863281 -4.175781 4.5625 -4.4375 C 4.269531 -4.695312 3.898438 -4.828125 3.453125 -4.828125 Z M 3.453125 -4.828125 "/></g></g></g><g fill="#19a7ce" fill-opacity="1"><g transform="translate(632.845259, 93.054325)"><g><path d="M 2.796875 0.09375 C 2.304688 0.09375 1.835938 0.0234375 1.390625 -0.109375 C 0.941406 -0.253906 0.582031 -0.441406 0.3125 -0.671875 L 0.71875 -1.578125 C 0.976562 -1.367188 1.296875 -1.195312 1.671875 -1.0625 C 2.046875 -0.9375 2.421875 -0.875 2.796875 -0.875 C 3.265625 -0.875 3.613281 -0.945312 3.84375 -1.09375 C 4.070312 -1.25 4.1875 -1.453125 4.1875 -1.703125 C 4.1875 -1.878906 4.125 -2.023438 4 -2.140625 C 3.875 -2.265625 3.710938 -2.359375 3.515625 -2.421875 C 3.316406 -2.484375 3.046875 -2.554688 2.703125 -2.640625 C 2.222656 -2.753906 1.832031 -2.867188 1.53125 -2.984375 C 1.238281 -3.097656 0.984375 -3.273438 0.765625 -3.515625 C 0.554688 -3.765625 0.453125 -4.097656 0.453125 -4.515625 C 0.453125 -4.859375 0.546875 -5.171875 0.734375 -5.453125 C 0.921875 -5.742188 1.203125 -5.972656 1.578125 -6.140625 C 1.960938 -6.304688 2.429688 -6.390625 2.984375 -6.390625 C 3.367188 -6.390625 3.75 -6.34375 4.125 -6.25 C 4.5 -6.15625 4.816406 -6.015625 5.078125 -5.828125 L 4.71875 -4.921875 C 4.4375 -5.085938 4.144531 -5.210938 3.84375 -5.296875 C 3.550781 -5.378906 3.265625 -5.421875 2.984375 -5.421875 C 2.515625 -5.421875 2.164062 -5.34375 1.9375 -5.1875 C 1.71875 -5.03125 1.609375 -4.820312 1.609375 -4.5625 C 1.609375 -4.382812 1.671875 -4.238281 1.796875 -4.125 C 1.929688 -4.007812 2.097656 -3.914062 2.296875 -3.84375 C 2.492188 -3.78125 2.765625 -3.707031 3.109375 -3.625 C 3.578125 -3.519531 3.957031 -3.40625 4.25 -3.28125 C 4.550781 -3.164062 4.804688 -2.988281 5.015625 -2.75 C 5.234375 -2.507812 5.34375 -2.1875 5.34375 -1.78125 C 5.34375 -1.4375 5.25 -1.117188 5.0625 -0.828125 C 4.875 -0.546875 4.585938 -0.320312 4.203125 -0.15625 C 3.816406 0.0078125 3.347656 0.09375 2.796875 0.09375 Z M 2.796875 0.09375 "/></g></g></g><g fill="#19a7ce" fill-opacity="1"><g transform="translate(639.403057, 93.054325)"><g><path d="M 10.046875 -6.296875 L 7.96875 0 L 6.71875 0 L 5.171875 -4.65625 L 3.578125 0 L 2.328125 0 L 0.25 -6.296875 L 1.453125 -6.296875 L 3.03125 -1.515625 L 4.65625 -6.296875 L 5.734375 -6.296875 L 7.328125 -1.484375 L 8.9375 -6.296875 Z M 10.046875 -6.296875 "/></g></g></g><g fill="#19a7ce" fill-opacity="1"><g transform="translate(650.593608, 93.054325)"><g><path d="M 0.84375 -6.296875 L 2.015625 -6.296875 L 2.015625 0 L 0.84375 0 Z M 0.84375 -6.296875 "/></g></g></g><g fill="#19a7ce" fill-opacity="1"><g transform="translate(654.36277, 93.054325)"><g><path d="M 3.4375 -6.296875 C 3.976562 -6.296875 4.453125 -6.207031 4.859375 -6.03125 C 5.265625 -5.851562 5.578125 -5.59375 5.796875 -5.25 C 6.015625 -4.914062 6.125 -4.519531 6.125 -4.0625 C 6.125 -3.601562 6.015625 -3.203125 5.796875 -2.859375 C 5.578125 -2.523438 5.265625 -2.265625 4.859375 -2.078125 C 4.453125 -1.898438 3.976562 -1.8125 3.4375 -1.8125 L 2.015625 -1.8125 L 2.015625 0 L 0.84375 0 L 0.84375 -6.296875 Z M 3.390625 -2.8125 C 3.898438 -2.8125 4.285156 -2.914062 4.546875 -3.125 C 4.804688 -3.34375 4.9375 -3.65625 4.9375 -4.0625 C 4.9375 -4.457031 4.804688 -4.765625 4.546875 -4.984375 C 4.285156 -5.203125 3.898438 -5.3125 3.390625 -5.3125 L 2.015625 -5.3125 L 2.015625 -2.8125 Z M 3.390625 -2.8125 "/></g></g></g><g fill="#19a7ce" fill-opacity="1"><g transform="translate(661.793151, 93.054325)"><g><path d="M 5.578125 -0.984375 L 5.578125 0 L 0.84375 0 L 0.84375 -6.296875 L 5.4375 -6.296875 L 5.4375 -5.3125 L 2.015625 -5.3125 L 2.015625 -3.6875 L 5.0625 -3.6875 L 5.0625 -2.71875 L 2.015625 -2.71875 L 2.015625 -0.984375 Z M 5.578125 -0.984375 "/></g></g></g></svg>